<?xml version="1.0" encoding="iso-8859-1"?>
<!-- Generator: Adobe Illustrator 19.0.0, SVG Export Plug-In . SVG Version: 6.00 Build 0)  -->
<svg version="1.1" id="Capa_1" xmlns="http://www.w3.org/2000/svg" xmlns:xlink="http://www.w3.org/1999/xlink" x="0px" y="0px"
	 viewBox="0 0 469.333 469.333" style="enable-background:new 0 0 469.333 469.333;" xml:space="preserve">
<g>
	<g>
		<path d="M426.667,0h-384C19.146,0,0,19.135,0,42.667v384c0,23.531,19.146,42.667,42.667,42.667h384
			c23.521,0,42.667-19.135,42.667-42.667v-384C469.333,19.135,450.188,0,426.667,0z M221.625,289.208l21.813,3.552
			c7.792-0.354,16.396,5.469,20.417,14.167c7.063,14.74,16.396,28.323,27.708,40.26c9.271,9.802,9.271,25.719,0.021,35.5
			l-34.521,36.365c-4.625,4.896-10.875,7.604-17.583,7.615c0,0,0,0-0.021,0c-6.688,0-12.938-2.698-17.604-7.604
			c-46.771-49.292-72.521-114.771-72.521-184.385c0-69.625,25.75-135.115,72.521-184.396c4.667-4.906,10.917-7.615,17.604-7.615
			c0.021,0,0.021,0,0.021,0c6.708,0.01,12.958,2.719,17.604,7.625l34.563,36.438c9.292,9.792,9.292,25.729,0,35.521
			c-11.333,11.979-20.667,25.563-27.729,40.354c-4.333,8.76-12.812,14.104-22.187,14.104l-19.938,3.354
			c-3.396,13.25-8.458,37.938-8.458,54.604C213.333,253.375,213.333,261.156,221.625,289.208z"/>
	</g>
</g>
</svg>
