<svg xmlns="http://www.w3.org/2000/svg" xmlns:xlink="http://www.w3.org/1999/xlink" width="2010" height="1275" viewBox="0 0 2010 1275">
  <defs>
    <clipPath id="clip-path">
      <rect id="Rectangle_2" data-name="Rectangle 2" width="2010" height="1275" transform="translate(-640.851 -1511.691)" fill="none"/>
    </clipPath>
  </defs>
  <g id="wave_corevalues" transform="translate(640.851 1511.691)">
    <g id="Group_8" data-name="Group 8" clip-path="url(#clip-path)">
      <g id="Group_7" data-name="Group 7" transform="translate(390 -1013)">
        <path id="Path_116" data-name="Path 116" d="M-2653.474,105.876c164.845-119.995,244.733-126.642,454.86-66.381,100.845,28.921,149.767,83.452,219.363,121.546,66.124,36.194,124.1,48.488,245.957,1.162,267.61-103.938,485.6-541.224,848.188-541.224,443.915,0,379.915,687.659,938.212,687.659S1232.34-256.468,1232.34-256.468" fill="none" stroke="#e6e6e6" stroke-miterlimit="10" stroke-width="1"/>
        <path id="Path_117" data-name="Path 117" d="M-2655.043,123.263C-2486.452,8.722-2407.7,9.209-2202.718,70.887c98.22,29.554,147.282,82.914,217.433,119.331,66.457,34.5,124.538,44.314,243.236-3.955,262.032-106.556,475.287-537.741,835.527-537.741,443.419,0,394.4,681.1,951.644,681.1S1218.29-237.466,1218.29-237.466" fill="none" stroke="#e6e6e6" stroke-miterlimit="10" stroke-width="1"/>
        <path id="Path_118" data-name="Path 118" d="M-2656.613,140.649c172.338-109.086,249.962-101.47,449.791-38.371,95.594,30.186,144.795,82.381,215.5,117.117,66.788,32.811,124.97,40.129,240.515-9.071,256.448-109.2,464.97-534.258,822.866-534.258,442.924,0,408.882,674.537,965.075,674.537s1167.1-569.067,1167.1-569.067" fill="none" stroke="#e6e6e6" stroke-miterlimit="10" stroke-width="1"/>
        <path id="Path_119" data-name="Path 119" d="M-2658.182,158.036C-2482.1,54.4-2405.6,69.145-2210.926,133.67c92.97,30.815,142.307,81.853,213.573,114.9,67.118,31.126,125.4,35.932,237.794-14.187,250.855-111.863,454.653-530.776,810.2-530.776,442.429,0,423.366,667.977,978.507,667.977S1190.19-199.462,1190.19-199.462" fill="none" stroke="#e6e6e6" stroke-miterlimit="10" stroke-width="1"/>
        <path id="Path_120" data-name="Path 120" d="M-2659.752,175.423c179.832-98.178,255.194-76.318,444.722-10.361,90.345,31.441,139.818,81.33,211.643,112.687,67.447,29.447,125.823,31.725,235.074-19.3,245.252-114.552,444.335-527.292,797.543-527.292,441.934,0,437.849,661.416,991.938,661.416S1176.139-180.46,1176.139-180.46" fill="none" stroke="#e6e6e6" stroke-miterlimit="10" stroke-width="1"/>
        <path id="Path_121" data-name="Path 121" d="M-2661.321,192.809c183.578-92.723,257.811-63.749,442.188,3.645,87.721,32.064,137.327,80.813,209.711,110.473,67.778,27.771,126.242,27.505,232.354-24.421,239.637-117.268,434.017-523.81,784.882-523.81,441.439,0,452.333,654.855,1005.37,654.855s1148.9-575.009,1148.9-575.009" fill="none" stroke="#e6e6e6" stroke-miterlimit="10" stroke-width="1"/>
        <path id="Path_122" data-name="Path 122" d="M-2662.89,210.2c187.324-87.269,260.43-51.187,439.653,17.65,85.1,32.685,134.838,80.3,207.781,108.258,68.107,26.1,126.655,23.275,229.633-29.537,234.009-120.01,423.7-520.327,772.221-520.327,440.944,0,466.817,648.294,1018.8,648.294s1142.84-576.99,1142.84-576.99" fill="none" stroke="#e6e6e6" stroke-miterlimit="10" stroke-width="1"/>
        <path id="Path_123" data-name="Path 123" d="M-2664.46,227.583c191.071-81.815,263.052-38.631,437.119,31.655,82.476,33.3,132.349,79.8,205.851,106.043,68.437,24.437,127.06,19.032,226.912-34.654,228.364-122.779,413.383-516.844,759.561-516.844,440.448,0,481.3,641.733,1032.232,641.733S1133.988-123.455,1133.988-123.455" fill="none" stroke="#e6e6e6" stroke-miterlimit="10" stroke-width="1"/>
        <path id="Path_124" data-name="Path 124" d="M-2666.029,244.969c194.817-76.36,265.676-26.081,434.584,45.66,79.855,33.918,129.86,79.3,203.921,103.829,68.767,22.778,127.457,14.778,224.192-39.77,222.7-125.578,403.065-513.361,746.9-513.361C-616.48-158.673-560.65,476.5-10.77,476.5S1119.938-104.453,1119.938-104.453" fill="none" stroke="#e6e6e6" stroke-miterlimit="10" stroke-width="1"/>
        <path id="Path_125" data-name="Path 125" d="M-2667.6,262.356c198.563-70.906,268.3-13.539,432.049,59.665,77.236,34.529,127.373,78.8,201.991,101.614,69.1,21.124,127.844,10.512,221.471-44.886,217.011-128.4,392.747-509.879,734.238-509.879,439.458,0,510.267,628.612,1059.095,628.612S1105.888-85.451,1105.888-85.451" fill="none" stroke="#e6e6e6" stroke-miterlimit="10" stroke-width="1"/>
        <path id="Path_126" data-name="Path 126" d="M-2669.168,279.743c202.31-65.452,270.934-1,429.515,73.67,74.619,35.137,124.887,78.313,200.061,99.4,69.432,19.474,128.222,6.234,218.75-50,211.3-131.26,382.43-506.395,721.577-506.395,438.963,0,524.75,622.05,1072.526,622.05S1091.838-66.449,1091.838-66.449" fill="none" stroke="#e6e6e6" stroke-miterlimit="10" stroke-width="1"/>
        <path id="Path_127" data-name="Path 127" d="M-2670.737,297.129c206.056-60,273.57,11.525,426.98,87.676,72,35.742,122.4,77.83,198.131,97.184,69.767,17.83,128.587,1.946,216.029-55.119,205.558-134.145,372.113-502.913,708.916-502.913,438.468,0,539.234,615.49,1085.958,615.49S1077.787-47.447,1077.787-47.447" fill="none" stroke="#e6e6e6" stroke-miterlimit="10" stroke-width="1"/>
        <path id="Path_128" data-name="Path 128" d="M-2672.306,314.516c209.8-54.543,276.211,24.044,424.445,101.681,69.391,36.342,119.92,77.352,196.2,94.969,70.1,16.19,128.939-2.354,213.309-60.235C-1638.568,313.872-1476.556-48.5-1142.1-48.5c437.973,0,553.718,608.928,1099.389,608.928S1063.737-28.445,1063.737-28.445" fill="none" stroke="#e6e6e6" stroke-miterlimit="10" stroke-width="1"/>
        <path id="Path_129" data-name="Path 129" d="M-2673.876,331.9c213.55-49.089,278.859,36.556,421.911,115.685,66.782,36.941,117.441,76.88,194.271,92.755,70.444,14.555,129.277-6.665,210.588-65.351,193.973-140,351.477-495.948,683.593-495.948,437.478,0,568.2,602.368,1112.821,602.368S1049.687-9.443,1049.687-9.443" fill="none" stroke="#e6e6e6" stroke-miterlimit="10" stroke-width="1"/>
        <path id="Path_130" data-name="Path 130" d="M-2675.445,349.289c217.3-43.634,281.514,49.06,419.376,129.691,64.176,37.534,114.964,76.413,192.341,90.54,70.786,12.924,129.6-10.984,207.867-70.468C-1667.738,356.08-1514.7,6.588-1184.928,6.588-747.946,6.588-602.244,602.4-58.677,602.4S1035.636,9.559,1035.636,9.559" fill="none" stroke="#e6e6e6" stroke-miterlimit="10" stroke-width="1"/>
        <path id="Path_131" data-name="Path 131" d="M-2677.014,366.676c221.042-38.18,284.178,61.555,416.842,143.7,61.573,38.124,112.489,75.95,190.41,88.325,71.132,11.3,129.9-15.312,205.146-75.584,182.229-145.968,330.843-488.981,658.272-488.981,436.487,0,597.168,589.245,1139.682,589.245S1021.586,28.561,1021.586,28.561" fill="none" stroke="#e6e6e6" stroke-miterlimit="10" stroke-width="1"/>
        <path id="Path_132" data-name="Path 132" d="M-2678.584,384.063c224.789-32.726,286.852,74.042,414.308,157.7,58.975,38.71,110.019,75.491,188.48,86.11,71.481,9.674,130.188-19.648,202.426-80.7,176.285-148.989,320.525-485.5,645.61-485.5,435.992,0,611.652,582.685,1153.114,582.685s1082.182-596.8,1082.182-596.8" fill="none" stroke="#e6e6e6" stroke-miterlimit="10" stroke-width="1"/>
        <path id="Path_133" data-name="Path 133" d="M-2680.153,401.45c228.535-27.272,289.538,86.521,411.773,171.706,56.383,39.293,107.553,75.037,186.55,83.9,71.834,8.054,130.453-23.99,199.705-85.817C-1711.837,419.2-1571.918,89.219-1249.176,89.219c435.5,0,626.135,576.123,1166.545,576.123S993.485,66.565,993.485,66.565" fill="none" stroke="#e6e6e6" stroke-miterlimit="10" stroke-width="1"/>
        <path id="Path_134" data-name="Path 134" d="M-2681.723,418.836c232.282-21.817,292.237,98.993,409.239,185.711,53.8,39.873,105.091,74.588,184.62,81.681,72.19,6.438,130.7-28.336,196.984-90.933,164.236-155.093,299.89-478.533,620.288-478.533,435,0,640.619,569.563,1179.977,569.563S979.435,85.567,979.435,85.567" fill="none" stroke="#e6e6e6" stroke-miterlimit="10" stroke-width="1"/>
        <path id="Path_135" data-name="Path 135" d="M-2683.292,436.223c236.028-16.363,294.95,111.457,406.7,199.716,51.217,40.45,102.632,74.142,182.69,79.466,72.551,4.825,130.917-32.684,194.263-96.049,158.122-158.169,289.573-475.05,607.627-475.05,434.507,0,655.1,563,1193.408,563S965.385,104.569,965.385,104.569" fill="none" stroke="#e6e6e6" stroke-miterlimit="10" stroke-width="1"/>
        <path id="Path_136" data-name="Path 136" d="M-2684.861,453.61c239.774-10.909,297.68,123.915,404.169,213.721,48.645,41.024,100.178,73.7,180.76,77.251,72.916,3.214,131.113-37.032,191.542-101.166,151.943-161.256,279.256-471.567,594.966-471.567,434.012,0,669.586,556.441,1206.84,556.441S951.335,123.571,951.335,123.571" fill="none" stroke="#e6e6e6" stroke-miterlimit="10" stroke-width="1"/>
        <path id="Path_137" data-name="Path 137" d="M-2686.431,471c243.522-5.454,300.563,136.221,401.635,227.727,46.141,41.529,97.727,73.368,178.83,75.036,73.283,1.705,131.284-41.378,188.822-106.282,145.7-164.349,268.937-468.084,582.305-468.084,433.516,0,684.069,549.88,1220.27,549.88s1051.853-606.7,1051.853-606.7" fill="none" stroke="#e6e6e6" stroke-miterlimit="10" stroke-width="1"/>
        <path id="Path_138" data-name="Path 138" d="M-2688,488.383c359.489,0,314.553,314.553,576,314.553s322.723-576,755.745-576S-657.7,770.255-122.553,770.255,923.234,161.574,923.234,161.574" fill="none" stroke="#e6e6e6" stroke-miterlimit="10" stroke-width="1"/>
      </g>
    </g>
  </g>
</svg>
