<svg xmlns="http://www.w3.org/2000/svg" xmlns:xlink="http://www.w3.org/1999/xlink" width="260" height="268" viewBox="0 0 260 268"><defs><style>.a{fill:#cfcfcf;}.b{clip-path:url(#a);}.c,.h{fill:#fff;}.c,.e,.f,.g{stroke:#000;stroke-linecap:round;stroke-linejoin:round;stroke-miterlimit:10;stroke-width:2.913px;}.d{fill:none;}.e{fill:#ccc;}.f{fill:#db1d34;}.g{fill:#009dff;}</style><clipPath id="a"><rect class="a" width="260" height="268" transform="translate(209 1531)"/></clipPath></defs><g class="b" transform="translate(-209 -1531)"><g transform="translate(163.957 1505.428)"><rect class="c" width="257.087" height="211.112" transform="translate(46.499 60.484)"/><rect class="d" width="30.941" height="34.263" transform="translate(66.835 113.16)"/><rect class="c" width="30.941" height="34.263" transform="translate(97.777 113.16)"/><rect class="c" width="30.941" height="34.263" transform="translate(128.66 113.16)"/><rect class="c" width="30.941" height="34.263" transform="translate(159.601 113.16)"/><rect class="c" width="30.941" height="34.263" transform="translate(190.542 113.16)"/><rect class="e" width="30.941" height="34.263" transform="translate(221.425 113.16)"/><rect class="e" width="30.941" height="34.263" transform="translate(252.367 113.16)"/><rect class="c" width="30.941" height="34.263" transform="translate(66.835 147.423)"/><rect class="c" width="30.941" height="34.263" transform="translate(97.777 147.423)"/><rect class="c" width="30.941" height="34.263" transform="translate(128.66 147.423)"/><rect class="c" width="30.941" height="34.263" transform="translate(159.601 147.423)"/><rect class="c" width="30.941" height="34.263" transform="translate(190.542 147.423)"/><rect class="e" width="30.941" height="34.263" transform="translate(221.425 147.423)"/><rect class="e" width="30.941" height="34.263" transform="translate(252.367 147.423)"/><rect class="c" width="30.941" height="34.263" transform="translate(66.835 181.685)"/><rect class="c" width="30.941" height="34.263" transform="translate(97.777 181.685)"/><rect class="f" width="30.941" height="34.263" transform="translate(128.66 181.685)"/><rect class="c" width="30.941" height="34.263" transform="translate(159.601 181.685)"/><rect class="c" width="30.941" height="34.263" transform="translate(190.542 181.685)"/><rect class="e" width="30.941" height="34.263" transform="translate(221.425 181.685)"/><rect class="e" width="30.941" height="34.263" transform="translate(252.367 181.685)"/><rect class="c" width="30.941" height="34.263" transform="translate(66.835 215.89)"/><rect class="c" width="30.941" height="34.263" transform="translate(97.777 215.89)"/><rect class="c" width="30.941" height="34.263" transform="translate(128.66 215.89)"/><rect class="c" width="30.941" height="34.263" transform="translate(159.601 215.89)"/><rect class="c" width="30.941" height="34.263" transform="translate(190.542 215.89)"/><rect class="d" width="30.941" height="34.263" transform="translate(221.425 215.89)"/><rect class="d" width="30.941" height="34.263" transform="translate(252.367 215.89)"/><rect class="g" width="257.087" height="33.039" transform="translate(46.499 60.484)"/><rect class="c" width="19.87" height="26.804" transform="translate(66.835 47.548)"/><rect class="c" width="19.87" height="26.804" transform="translate(165.137 47.548)"/><rect class="c" width="19.87" height="26.804" transform="translate(263.438 47.548)"/><path class="h" d="M154.065,190.484l-1.573-1.573a1.234,1.234,0,0,0-1.806,0l-6.526,6.526-6.526-6.526a1.234,1.234,0,0,0-1.806,0l-1.573,1.573a1.234,1.234,0,0,0,0,1.806l6.526,6.526-6.526,6.526a1.234,1.234,0,0,0,0,1.806l1.573,1.573a1.234,1.234,0,0,0,1.806,0l6.526-6.526,6.526,6.526a1.234,1.234,0,0,0,1.806,0l1.573-1.573a1.234,1.234,0,0,0,0-1.806l-6.526-6.526,6.526-6.526A1.341,1.341,0,0,0,154.065,190.484Z"/></g></g></svg>