<svg xmlns="http://www.w3.org/2000/svg" xmlns:xlink="http://www.w3.org/1999/xlink" width="1228" height="576" viewBox="0 0 1228 576"><defs><style>.a,.c{fill:none;}.b{clip-path:url(#a);}.c{stroke:#e6e6e6;stroke-miterlimit:10;}</style><clipPath id="a"><rect class="a" width="1228" height="576"/></clipPath></defs><g class="b"><g transform="translate(1338.318 784.595) rotate(180)"><path class="c" d="M0,22.1c0,178.625,57.839,338.71,253.409,338.71s69.455-220.946,299.752-220.946S973.544,484.46,1181.908,484.46,1066.76,0,1337.267,0s647.025,237.162,647.025,237.162" transform="translate(46.343 703.379)"/><path class="c" d="M0,23.887C1.677,199.8,59.019,356.345,252.275,355.646c95.548-.317,113.667-53.767,135.281-107.567,22.024-54.986,47.378-110.235,162.39-109.742C777.7,139.6,965.713,481.2,1173.029,481.2,1381.171,481.2,1064.36,0,1334.4,0s644.311,238.145,644.311,238.145" transform="translate(45.64 692.968)"/><path class="c" d="M0,25.67C3.353,198.882,60.2,351.878,251.141,350.481c94.378-.634,112.574-53.5,134.417-106.468,22.192-54.141,47.554-108.191,161.172-107.2,225.208,2.518,411.151,341.139,617.418,341.139C1372.07,477.949,1061.961,0,1331.527,0s641.6,239.128,641.6,239.128" transform="translate(44.938 682.556)"/><path class="c" d="M0,27.455C5.028,197.96,61.376,347.412,250.007,345.316c93.207-.951,111.482-53.224,133.554-105.369,22.36-53.294,47.73-106.145,159.956-104.664,222.663,3.777,406.535,339.411,611.753,339.411C1362.968,474.694,1059.561,0,1328.656,0s638.883,240.111,638.883,240.111" transform="translate(44.236 672.144)"/><path class="c" d="M0,29.24c6.7,167.8,62.555,313.706,248.873,310.911,92.037-1.268,110.494-52.9,132.69-104.27C404.2,183.49,429.473,131.5,540.3,133.756,760.43,138.235,942.22,471.438,1146.39,471.438,1353.868,471.438,1057.162,0,1325.786,0s636.169,241.094,636.169,241.094" transform="translate(43.534 661.733)"/><path class="c" d="M0,31.023C8.381,196.116,63.734,338.479,247.739,334.986c90.867-1.585,109.426-52.611,131.827-103.172,22.83-51.53,48.089-102.4,157.521-99.586,217.59,5.6,397.3,335.954,600.423,335.954C1344.766,468.183,1054.762,0,1322.916,0s633.455,242.077,633.455,242.077" transform="translate(42.832 651.322)"/><path class="c" d="M0,32.808c10.057,162.386,64.913,301.2,246.6,297.013,89.7-1.9,108.358-52.324,130.963-102.072,23.023-50.668,48.268-100.426,156.3-97.048,215.053,6.725,392.686,334.226,594.759,334.226C1335.664,464.927,1052.363,0,1320.045,0s630.741,243.06,630.741,243.06" transform="translate(42.13 640.91)"/><path class="c" d="M0,34.592C11.734,194.271,66.093,329.546,245.471,324.656,334,322.437,352.76,272.62,375.571,223.683c23.215-49.807,48.447-98.448,155.086-94.509,212.516,7.85,388.07,332.5,589.093,332.5C1326.563,461.672,1049.964,0,1317.176,0S1945.2,244.042,1945.2,244.042" transform="translate(41.427 630.498)"/><path class="c" d="M0,36.376c13.41,156.973,67.271,288.7,244.337,283.114,87.355-2.536,106.22-51.748,129.236-99.874,23.407-48.944,48.627-96.469,153.869-91.97,209.981,8.976,383.453,330.769,583.429,330.769C1317.462,458.416,1047.564,0,1314.3,0s625.314,245.025,625.314,245.025" transform="translate(40.725 620.087)"/><path class="c" d="M0,38.161C15.086,192.427,68.451,320.613,243.2,314.326c86.185-2.853,105.15-51.46,128.373-98.775,23.6-48.081,48.808-94.49,152.651-89.432,207.448,10.1,378.837,329.041,577.764,329.041C1308.36,455.16,1045.164,0,1311.435,0s622.6,246.008,622.6,246.008" transform="translate(40.023 609.675)"/><path class="c" d="M0,39.945c16.762,151.56,69.63,276.2,242.069,269.216,85.015-3.171,104.079-51.172,127.509-97.677,23.789-47.218,48.989-92.509,151.434-86.893C725.928,135.824,895.233,451.9,1093.111,451.9,1299.26,451.9,1042.765,0,1308.565,0S1928.45,246.991,1928.45,246.991" transform="translate(39.321 599.264)"/><path class="c" d="M0,41.729C18.438,190.583,70.809,311.68,240.935,304c83.844-3.487,103.007-50.882,126.645-96.577,23.979-46.354,49.171-90.527,150.217-84.354,202.386,12.364,369.6,325.585,566.434,325.585C1290.158,448.649,1040.365,0,1305.694,0s617.172,247.974,617.172,247.974" transform="translate(38.619 588.852)"/><path class="c" d="M0,43.513c20.115,146.147,71.988,263.7,239.8,255.317,82.674-3.8,101.935-50.593,125.782-95.478,24.168-45.491,49.353-88.544,149-81.815,199.857,13.5,364.988,323.857,560.769,323.857C1281.057,445.394,1037.966,0,1302.824,0s614.458,248.956,614.458,248.956" transform="translate(37.917 578.441)"/><path class="c" d="M0,45.3C21.791,188.739,73.167,302.747,238.667,293.666c81.5-4.121,100.862-50.3,124.917-94.379,24.356-44.626,49.537-86.561,147.782-79.277,197.33,14.629,360.372,322.129,555.1,322.129C1271.956,442.138,1035.567,0,1299.954,0S1911.7,249.939,1911.7,249.939" transform="translate(37.215 568.029)"/><path class="c" d="M0,47.082C23.467,187.817,74.327,297.9,237.533,288.5c80.325-4.625,99.788-50.012,124.054-93.28,24.544-43.762,49.721-84.576,146.565-76.738,194.8,15.765,355.756,320.4,549.44,320.4C1262.854,438.883,1033.167,0,1297.083,0s609.03,250.922,609.03,250.922" transform="translate(36.512 557.617)"/><path class="c" d="M0,48.866C25.144,186.894,75.5,293.408,236.4,283.336c79.153-4.956,98.713-49.722,123.191-92.182,24.729-42.9,49.906-82.59,145.348-74.2,192.28,16.9,351.14,318.672,543.775,318.672,205.04,0-17.946-435.627,245.5-435.627s606.316,251.9,606.316,251.9" transform="translate(35.81 547.206)"/><path class="c" d="M0,50.651c26.82,135.322,76.68,238.266,235.265,227.52,77.981-5.285,97.637-49.431,122.327-91.083,24.915-42.032,50.091-80.6,144.131-71.661,189.757,18.043,346.523,316.944,538.11,316.944C1244.652,432.372,1028.368,0,1291.343,0s603.6,252.887,603.6,252.887" transform="translate(35.108 536.794)"/><path class="c" d="M0,52.435C28.5,185.05,77.855,284.426,234.131,273.005c76.809-5.613,96.561-49.139,121.463-89.983,25.1-41.166,50.277-78.613,142.913-69.122,187.236,19.185,341.907,315.216,532.446,315.216,204.6,0-4.985-429.116,257.52-429.116s600.888,253.87,600.888,253.87" transform="translate(34.406 526.383)"/><path class="c" d="M0,54.219C30.173,184.128,79.031,279.935,233,267.841c75.637-5.941,95.483-48.848,120.6-88.884,25.283-40.3,50.464-76.624,141.7-66.583C680.01,132.7,832.584,425.861,1022.074,425.861,1226.45,425.861,1023.569,0,1285.6,0s598.174,254.853,598.174,254.853" transform="translate(33.704 515.971)"/><path class="c" d="M0,56c31.849,127.2,80.206,219.442,231.863,206.672,74.465-6.27,94.4-48.556,119.737-87.785,25.465-39.435,50.652-74.632,140.479-64.045,182.2,21.476,332.675,311.76,521.116,311.76C1217.348,422.605,1021.169,0,1282.732,0s595.46,255.836,595.46,255.836" transform="translate(33.002 505.559)"/><path class="c" d="M0,57.788c33.525,124.5,81.381,213.168,230.729,199.723,73.292-6.6,93.324-48.264,118.873-86.687,25.646-38.569,50.84-72.639,139.261-61.506C668.547,131.943,816.921,419.35,1004.314,419.35,1208.247,419.35,1018.77,0,1279.862,0s592.746,256.819,592.746,256.819" transform="translate(32.3 495.148)"/><path class="c" d="M0,59.572C35.2,181.362,82.556,266.467,229.6,252.346c72.12-6.927,92.243-47.972,118.009-85.588,25.826-37.7,51.029-70.645,138.044-58.967,177.17,23.777,323.442,308.3,509.786,308.3C1199.146,416.094,1016.37,0,1276.991,0s590.032,257.8,590.032,257.8" transform="translate(31.597 484.736)"/><path class="c" d="M0,61.356C36.877,180.439,83.73,261.978,228.461,247.18c70.947-7.254,91.161-47.68,117.145-84.489,26.005-36.837,51.219-68.649,136.827-56.428,174.658,24.932,318.826,306.575,504.122,306.575C1190.045,412.838,1013.971,0,1274.121,0S1861.44,258.784,1861.44,258.784" transform="translate(30.895 474.325)"/><path class="c" d="M0,63.141C38.554,179.517,84.9,257.49,227.327,242.015c69.774-7.581,90.077-47.388,116.282-83.39,26.182-35.972,51.409-66.65,135.609-53.889,172.147,26.089,314.21,304.847,498.457,304.847C1180.944,409.583,1011.572,0,1271.251,0s584.6,259.767,584.6,259.767" transform="translate(30.193 463.913)"/><path class="c" d="M0,64.925C40.23,178.595,86.078,253,226.193,236.85c68.6-7.908,88.993-47.1,115.418-82.291,26.358-35.106,51.6-64.65,134.392-51.351C645.642,130.459,785.6,406.327,968.8,406.327,1171.842,406.327,1009.172,0,1268.381,0s581.89,260.75,581.89,260.75" transform="translate(29.491 453.502)"/><path class="c" d="M0,66.709C41.906,177.673,87.251,248.516,225.059,231.685c67.429-8.235,87.907-46.8,114.555-81.192,26.533-34.24,51.792-62.648,133.175-48.812,167.131,28.415,304.977,301.39,487.127,301.39C1162.741,403.072,1006.772,0,1265.51,0s579.177,261.733,579.177,261.733" transform="translate(28.789 443.09)"/><path class="c" d="M0,68.494C43.583,176.751,88.425,244.03,223.925,226.52c66.256-8.562,86.82-46.511,113.691-80.093,26.706-33.375,51.985-60.645,131.957-46.273C634.2,129.737,769.935,399.817,951.036,399.817c202.6,0,53.337-399.817,311.6-399.817S1839.1,262.716,1839.1,262.716" transform="translate(28.086 432.678)"/><path class="c" d="M0,70.278C45.259,175.828,89.6,239.544,222.791,221.355c65.083-8.888,85.731-46.22,112.828-78.994,26.878-32.51,52.178-58.638,130.74-43.735,162.122,30.756,295.745,297.934,475.8,297.934C1144.538,396.561,1001.974,0,1259.77,0s573.749,263.7,573.749,263.7" transform="translate(27.384 422.267)"/><path class="c" d="M0,72.062c46.935,102.844,90.77,163,221.657,144.128,63.909-9.213,84.641-45.928,111.964-77.9,27.049-31.646,52.372-56.63,129.523-41.2,159.62,31.932,291.129,296.206,470.132,296.206C1135.437,393.305,999.574,0,1256.9,0s571.035,264.681,571.035,264.681" transform="translate(26.682 411.855)"/><path class="c" d="M0,73.846C48.611,173.984,91.943,230.575,220.523,211.024c62.736-9.539,83.55-45.638,111.1-76.8,27.218-30.782,52.567-54.619,128.305-38.657C617.049,128.685,746.442,390.049,924.4,390.049,1126.336,390.049,997.175,0,1254.03,0s568.321,265.664,568.321,265.664" transform="translate(25.98 401.444)"/><path class="c" d="M0,75.631c50.287,97.431,93.115,150.461,219.389,130.229,61.562-9.863,82.457-45.347,110.237-75.7,27.386-29.918,52.762-52.605,127.088-36.118,154.621,34.3,281.9,292.75,458.8,292.75C1117.235,386.794,994.775,0,1251.159,0s565.607,266.646,565.607,266.646" transform="translate(25.278 391.032)"/><path class="c" d="M0,77.415C51.963,172.14,94.287,221.61,218.255,200.7c60.388-10.188,81.362-45.058,109.373-74.6C355.18,97.041,380.586,75.508,453.5,92.517,605.623,128.006,730.78,383.539,906.638,383.539,1108.134,383.539,992.376,0,1248.289,0s562.893,267.629,562.893,267.629" transform="translate(24.576 380.621)"/><path class="c" d="M0,79.2c53.64,92.019,95.458,137.93,217.121,116.331,59.215-10.513,80.266-44.769,108.51-73.5,27.716-28.194,53.154-48.57,124.654-31.041,149.628,36.684,272.663,289.294,447.473,289.294C1099.032,380.283,989.976,0,1245.419,0S1805.6,268.612,1805.6,268.612" transform="translate(23.873 370.209)"/><path class="c" d="M0,80.984C55.316,170.3,96.629,212.648,215.987,190.365c58.04-10.836,79.169-44.481,107.646-72.4,27.88-27.333,53.352-46.548,123.436-28.5C594.2,127.348,715.117,377.028,888.878,377.028,1089.931,377.028,987.577,0,1242.548,0s557.465,269.595,557.465,269.595" transform="translate(23.171 359.798)"/><path class="c" d="M0,82.768c56.992,86.606,97.8,125.4,214.853,102.432,56.866-11.159,78.071-44.194,106.783-71.3,28.041-26.474,53.549-44.523,122.219-25.964C588.5,127.027,707.286,373.772,880,373.772,1080.83,373.772,985.177,0,1239.678,0s554.751,270.577,554.751,270.577" transform="translate(22.469 349.386)"/><path class="c" d="M0,84.552c58.669,83.9,98.971,119.139,213.719,95.482,55.692-11.481,76.97-43.908,105.919-70.2,28.2-25.615,53.747-42.495,121-23.425,142.15,40.305,258.815,284.109,430.479,284.109C1071.729,370.517,982.778,0,1236.808,0s552.037,271.56,552.037,271.56" transform="translate(21.767 338.975)"/><path class="c" d="M0,86.337C60.345,167.53,100.141,199.214,212.585,174.87c54.518-11.8,75.869-43.624,105.056-69.1C346,81.009,371.585,65.3,437.425,84.88c139.658,41.525,254.2,282.38,424.814,282.38C1062.627,367.261,980.378,0,1233.938,0s549.323,272.544,549.323,272.544" transform="translate(21.065 328.563)"/><path class="c" d="M0,88.121C62.021,166.607,101.311,194.738,211.451,169.7c53.343-12.124,74.765-43.341,104.192-68,28.518-23.9,54.143-38.427,118.567-18.348C571.378,126.1,683.793,364.005,853.36,364.005,1053.526,364.005,977.979,0,1231.068,0s546.609,273.526,546.609,273.526" transform="translate(20.362 318.151)"/><path class="c" d="M0,89.9c63.7,75.78,102.481,100.358,210.317,74.634,52.168-12.445,73.661-43.059,103.329-66.905C342.319,74.587,367.987,61.247,431,81.826,565.674,125.812,675.962,360.75,844.48,360.75,1044.425,360.75,975.579,0,1228.2,0s543.9,274.509,543.9,274.509" transform="translate(19.66 307.74)"/><path class="c" d="M0,91.689c65.373,73.073,103.651,94.1,209.183,67.685,50.994-12.764,72.555-42.779,102.465-65.806C340.476,71.373,366.187,59.224,427.78,80.3c132.189,45.229,240.35,277.2,407.82,277.2C1035.323,357.494,973.18,0,1225.327,0s541.182,275.492,541.182,275.492" transform="translate(18.959 297.328)"/><path class="c" d="M0,93.474c67.05,70.367,104.821,87.845,208.049,60.735,49.819-13.083,71.448-42.5,101.6-64.707,28.981-21.344,54.738-32.3,114.915-10.731C554.265,125.25,660.3,354.239,826.72,354.239,1026.223,354.239,970.781,0,1222.457,0s538.468,276.475,538.468,276.475" transform="translate(18.256 286.917)"/><path class="c" d="M0,95.258c68.726,67.661,105.99,81.591,206.915,53.787,48.645-13.4,70.34-42.225,100.738-63.608,29.134-20.495,54.936-30.244,113.7-8.192,127.21,47.738,231.117,273.74,396.49,273.74C1017.121,350.984,968.381,0,1219.586,0S1755.34,277.458,1755.34,277.458" transform="translate(17.554 276.505)"/><path class="c" d="M0,97.042C70.4,162,107.159,172.381,205.781,143.879c47.469-13.719,69.23-41.951,99.874-62.509,29.285-19.648,55.133-28.188,112.48-5.654,124.719,49.007,226.5,272.011,390.825,272.011C1008.02,347.728,965.981,0,1216.716,0s533.04,278.44,533.04,278.44" transform="translate(16.852 266.094)"/><path class="c" d="M0,98.827c72.079,62.248,108.329,69.088,204.647,39.888,46.295-14.035,68.12-41.679,99.011-61.41,29.436-18.8,55.33-26.126,111.263-3.115,122.228,50.285,221.885,270.284,385.16,270.284C998.919,344.472,963.582,0,1213.846,0s530.326,279.423,530.326,279.423" transform="translate(16.15 255.682)"/><path class="c" d="M0,100.611c73.755,59.542,109.5,62.84,203.513,32.938,45.12-14.351,67.009-41.409,98.147-60.311,29.585-17.959,55.526-24.06,110.046-.577C531.44,124.235,628.975,341.216,791.2,341.216,989.818,341.216,961.183,0,1210.975,0s527.612,280.406,527.612,280.406" transform="translate(15.448 245.271)"/><path class="c" d="M0,102.395c75.431,56.835,110.668,56.594,202.379,25.989,43.945-14.665,65.9-41.142,97.284-59.212,29.734-17.119,55.721-21.989,108.828,1.962,117.238,52.873,212.652,266.827,373.831,266.827C980.716,337.961,958.783,0,1208.105,0S1733,281.389,1733,281.389" transform="translate(14.746 234.859)"/><path class="c" d="M0,104.179c77.107,54.128,111.838,50.349,201.245,19.04,42.771-14.978,64.784-40.877,96.42-58.113,29.882-16.281,55.914-19.912,107.611,4.5,114.74,54.184,208.036,265.1,368.166,265.1C971.615,334.705,956.384,0,1205.235,0s522.184,282.371,522.184,282.371" transform="translate(14.043 224.448)"/><path class="c" d="M0,105.964c78.783,51.422,113.008,44.108,200.111,12.09,41.6-15.29,63.671-40.615,95.557-57.014,30.03-15.445,56.106-17.829,106.394,7.04C514.3,123.586,605.481,331.45,764.562,331.45,962.513,331.45,953.984,0,1202.365,0s519.47,283.354,519.47,283.354" transform="translate(13.341 214.036)"/><path class="c" d="M0,107.748c80.46,48.716,114.179,37.869,198.977,5.141,40.422-15.6,62.557-40.356,94.693-55.915,30.177-14.612,56.3-15.742,105.177,9.579,109.73,56.841,198.8,261.642,356.836,261.642C953.412,328.195,951.585,0,1199.495,0S1716.25,284.337,1716.25,284.337" transform="translate(12.639 203.624)"/><path class="c" d="M0,109.532c82.136,46.009,115.35,31.632,197.844-1.809,39.248-15.91,61.443-40.1,93.829-54.817C322,39.127,348.155,39.259,395.632,65.025,502.85,123.213,589.819,324.939,746.8,324.939,944.311,324.939,949.185,0,1196.625,0s514.042,285.319,514.042,285.319" transform="translate(11.937 193.213)"/><path class="c" d="M0,111.317c83.812,43.3,116.521,25.4,196.709-8.758,38.074-16.218,60.329-39.845,92.965-53.718C320.147,35.889,346.342,37.292,392.417,63.5c104.7,59.549,189.571,258.186,345.506,258.186C935.209,321.683,946.786,0,1193.754,0s511.328,286.3,511.328,286.3" transform="translate(11.235 182.801)"/><path class="c" d="M0,113.1c85.489,40.6,117.694,19.169,195.575-15.707,36.9-16.524,59.216-39.595,92.1-52.619,30.62-12.126,56.849-9.444,101.525,17.2,102.174,60.923,184.956,256.458,339.842,256.458C926.109,318.428,944.386,0,1190.884,0S1699.5,287.285,1699.5,287.285" transform="translate(10.532 172.39)"/><path class="c" d="M0,114.885c87.165,37.89,118.869,12.941,194.441-22.656,35.729-16.83,58.1-39.347,91.238-51.52,30.768-11.3,57.027-7.333,100.308,19.734,99.639,62.312,180.339,254.73,334.177,254.73C917.007,315.172,941.987,0,1188.014,0s505.9,288.268,505.9,288.268" transform="translate(9.83 161.978)"/><path class="c" d="M0,116.67c88.841,35.184,120.044,6.718,193.307-29.606,34.557-17.133,56.989-39.1,90.375-50.421,30.917-10.482,57.2-5.216,99.09,22.272,97.095,63.715,175.723,253,328.512,253C907.906,311.917,939.587,0,1185.143,0s503.186,289.251,503.186,289.251" transform="translate(9.128 151.566)"/><path class="c" d="M0,118.453c90.517,32.477,121.221.5,192.173-36.555,33.386-17.435,55.877-38.859,89.511-49.322,31.065-9.663,57.369-3.093,97.873,24.812C474.1,122.519,550.664,308.661,702.4,308.661,898.8,308.661,937.188,0,1182.273,0s500.473,290.234,500.473,290.234" transform="translate(8.426 141.155)"/><path class="c" d="M0,120.238c92.194,29.771,122.4-5.719,191.039-43.5C223.255,59,245.8,38.114,279.687,28.511c31.215-8.847,57.532-.966,96.656,27.35,91.97,66.563,166.49,249.545,317.182,249.545C889.7,305.406,934.788,0,1179.4,0s497.758,291.217,497.758,291.217" transform="translate(7.724 130.743)"/><path class="c" d="M0,122.022c93.87,27.064,123.582-11.931,189.9-50.454,31.047-18.033,53.655-38.382,87.784-47.124,31.366-8.033,57.69,1.168,95.438,29.889C462.514,122.342,535,302.15,684.645,302.15,880.6,302.15,932.389,0,1176.532,0s495.045,292.2,495.045,292.2" transform="translate(7.022 120.332)"/><path class="c" d="M0,123.806c95.546,24.358,124.767-18.139,188.771-57.4,29.879-18.33,52.545-38.148,86.92-46.025,31.518-7.222,57.841,3.307,94.221,32.427C456.7,122.275,527.17,298.9,675.765,298.9,871.5,298.9,929.99,0,1173.662,0s492.33,293.182,492.33,293.182" transform="translate(6.319 109.92)"/><path class="c" d="M0,125.591c97.223,21.651,125.955-24.344,187.637-64.353,28.714-18.624,51.437-37.916,86.057-44.926,31.671-6.413,57.985,5.45,93,34.966,84.17,70.943,152.641,244.361,300.188,244.361C862.4,295.639,927.59,0,1170.792,0s489.616,294.165,489.616,294.165" transform="translate(5.617 99.508)"/><path class="c" d="M0,127.375c98.9,18.945,127.147-30.544,186.5-71.3,27.549-18.917,50.33-37.686,85.193-43.827,31.826-5.606,58.121,7.6,91.786,37.5,81.533,72.429,148.026,242.632,294.523,242.632C853.3,292.383,925.19,0,1167.921,0s486.9,295.148,486.9,295.148" transform="translate(4.915 89.097)"/><path class="c" d="M0,129.159C100.575,145.4,128.343,92.42,185.369,50.908,211.756,31.7,234.594,13.45,269.7,8.18c31.982-4.8,58.249,9.749,90.569,40.043,78.873,73.928,143.409,240.9,288.858,240.9C844.2,289.128,922.791,0,1165.051,0S1649.24,296.131,1649.24,296.131" transform="translate(4.213 78.685)"/><path class="c" d="M0,130.943c102.251,13.532,129.545-42.932,184.235-85.2,25.227-19.5,48.121-37.233,83.466-41.629,32.14-4,58.367,11.9,89.352,42.582,76.19,75.438,138.792,239.176,283.193,239.176C835.1,285.872,920.391,0,1162.181,0s481.475,297.113,481.475,297.113" transform="translate(3.511 68.274)"/><path class="c" d="M0,133.057c103.928,10.826,130.752-49.12,183.1-92.15C207.171,21.123,230.121,3.9,265.7.378,298-2.817,324.18,14.438,353.838,45.5c73.482,76.957,134.177,237.448,277.529,237.448C826,282.947,917.992.329,1159.311.329s478.761,298.1,478.761,298.1" transform="translate(2.808 57.533)"/><path class="c" d="M0,138.736c105.6,8.119,131.966-55.3,181.967-99.1C204.882,19.566,227.886,2.848,263.706.206c32.461-2.394,58.575,16.218,86.917,47.66,70.747,78.483,129.56,235.72,271.864,235.72,194.407,0,293.106-279.362,533.953-279.362S1632.487,303.3,1632.487,303.3" transform="translate(2.106 43.227)"/><path class="c" d="M0,144.469c107.28,5.413,133.188-61.487,180.833-106.048C202.6,18.065,225.655,1.851,261.708.089c32.624-1.595,58.662,18.375,85.7,50.2,67.982,80.015,124.944,233.992,266.2,233.992,194.185,0,299.585-276.106,539.963-276.106S1626.9,308.235,1626.9,308.235" transform="translate(1.404 28.866)"/><path class="c" d="M0,150.255c108.957,2.706,134.478-67.593,179.7-113C200.344,16.65,223.424.852,259.711.024,292.5-.822,318.45,20.556,344.194,52.761c65.188,81.55,120.327,232.263,260.534,232.263,193.963,0,306.066-272.85,545.972-272.85s470.619,301.045,470.619,301.045" transform="translate(0.702 14.453)"/><path class="c" d="M0,156.081C160.842,156.081,140.737,0,257.713,0S402.106,285.811,595.848,285.811,908.394,16.216,1147.83,16.216s467.905,302.028,467.905,302.028" transform="translate(0 0)"/></g></g></svg>