<svg xmlns="http://www.w3.org/2000/svg" width="203.03" height="177.656" viewBox="0 0 203.03 177.656">
  <g id="approval_process_icon" transform="translate(-58.8 -73.5)">
    <path id="Path_298" data-name="Path 298" d="M155.709,75.1v53.215H93.734A11.154,11.154,0,0,0,82.589,139.46v45.895a11.145,11.145,0,0,1-22.289,0V96.937H82.548V75.1Z" transform="translate(0 -0.059)" fill="#fff" stroke="#000" stroke-linecap="round" stroke-linejoin="round" stroke-miterlimit="10" stroke-width="3"/>
    <path id="Path_299" data-name="Path 299" d="M248.071,215.645V325.9H152.745V215.645A11.154,11.154,0,0,0,141.6,204.5h95.327A11.127,11.127,0,0,1,248.071,215.645Z" transform="translate(-47.866 -76.244)" fill="#fff" stroke="#000" stroke-linecap="round" stroke-linejoin="round" stroke-miterlimit="10" stroke-width="3"/>
    <path id="Path_300" data-name="Path 300" d="M82.689,75.1V96.937H60.4Z" transform="translate(-0.059 -0.059)" fill="#009dff" stroke="#000" stroke-linecap="round" stroke-linejoin="round" stroke-miterlimit="10" stroke-width="3"/>
    <path id="Path_301" data-name="Path 301" d="M120.893,215.645v57H87.5A11.154,11.154,0,0,0,98.645,261.5V215.645a11.124,11.124,0,1,1,22.248,0Z" transform="translate(-16.014 -76.244)" fill="#009dff" stroke="#000" stroke-linecap="round" stroke-linejoin="round" stroke-miterlimit="10" stroke-width="3"/>
    <g id="Group_71" data-name="Group 71" transform="translate(91.76 90.463)">
      <line id="Line_24" data-name="Line 24" x2="52.269" transform="translate(0)" fill="none" stroke="#000" stroke-linecap="round" stroke-linejoin="round" stroke-miterlimit="10" stroke-width="3"/>
      <line id="Line_25" data-name="Line 25" x2="52.269" transform="translate(0 6.21)" fill="none" stroke="#000" stroke-linecap="round" stroke-linejoin="round" stroke-miterlimit="10" stroke-width="3"/>
      <line id="Line_26" data-name="Line 26" x2="52.269" transform="translate(0 12.461)" fill="none" stroke="#000" stroke-linecap="round" stroke-linejoin="round" stroke-miterlimit="10" stroke-width="3"/>
      <line id="Line_27" data-name="Line 27" x2="52.269" transform="translate(0 18.671)" fill="none" stroke="#000" stroke-linecap="round" stroke-linejoin="round" stroke-miterlimit="10" stroke-width="3"/>
      <line id="Line_28" data-name="Line 28" x2="52.269" transform="translate(0 24.88)" fill="none" stroke="#000" stroke-linecap="round" stroke-linejoin="round" stroke-miterlimit="10" stroke-width="3"/>
    </g>
    <rect id="Rectangle_93" data-name="Rectangle 93" width="9.253" height="9.253" transform="translate(117.915 138.085)" fill="#ccc" stroke="#000" stroke-linecap="round" stroke-linejoin="round" stroke-miterlimit="10" stroke-width="3"/>
    <line id="Line_29" data-name="Line 29" x2="54.408" transform="translate(133.214 142.732)" fill="none" stroke="#000" stroke-linecap="round" stroke-linejoin="round" stroke-miterlimit="10" stroke-width="3"/>
    <rect id="Rectangle_94" data-name="Rectangle 94" width="9.253" height="9.253" transform="translate(117.915 153.63)" fill="#ccc" stroke="#000" stroke-linecap="round" stroke-linejoin="round" stroke-miterlimit="10" stroke-width="3"/>
    <line id="Line_30" data-name="Line 30" x2="54.408" transform="translate(133.214 158.277)" fill="none" stroke="#000" stroke-linecap="round" stroke-linejoin="round" stroke-miterlimit="10" stroke-width="3"/>
    <rect id="Rectangle_95" data-name="Rectangle 95" width="9.253" height="9.253" transform="translate(117.915 169.175)" fill="#ccc" stroke="#000" stroke-linecap="round" stroke-linejoin="round" stroke-miterlimit="10" stroke-width="3"/>
    <line id="Line_31" data-name="Line 31" x2="54.408" transform="translate(133.214 173.822)" fill="none" stroke="#000" stroke-linecap="round" stroke-linejoin="round" stroke-miterlimit="10" stroke-width="3"/>
    <rect id="Rectangle_96" data-name="Rectangle 96" width="9.253" height="9.253" transform="translate(117.915 184.72)" fill="#ccc" stroke="#000" stroke-linecap="round" stroke-linejoin="round" stroke-miterlimit="10" stroke-width="3"/>
    <line id="Line_32" data-name="Line 32" x2="54.408" transform="translate(133.214 189.326)" fill="none" stroke="#000" stroke-linecap="round" stroke-linejoin="round" stroke-miterlimit="10" stroke-width="3"/>
    <rect id="Rectangle_97" data-name="Rectangle 97" width="9.253" height="9.253" transform="translate(117.915 200.265)" fill="#ccc" stroke="#000" stroke-linecap="round" stroke-linejoin="round" stroke-miterlimit="10" stroke-width="3"/>
    <line id="Line_33" data-name="Line 33" x2="54.408" transform="translate(133.214 204.871)" fill="none" stroke="#000" stroke-linecap="round" stroke-linejoin="round" stroke-miterlimit="10" stroke-width="3"/>
    <rect id="Rectangle_98" data-name="Rectangle 98" width="9.253" height="9.253" transform="translate(117.915 215.81)" fill="#ccc" stroke="#000" stroke-linecap="round" stroke-linejoin="round" stroke-miterlimit="10" stroke-width="3"/>
    <line id="Line_34" data-name="Line 34" x2="54.408" transform="translate(133.214 220.416)" fill="none" stroke="#000" stroke-linecap="round" stroke-linejoin="round" stroke-miterlimit="10" stroke-width="3"/>
    <rect id="Rectangle_99" data-name="Rectangle 99" width="9.253" height="9.253" transform="translate(117.915 231.355)" fill="#ccc" stroke="#000" stroke-linecap="round" stroke-linejoin="round" stroke-miterlimit="10" stroke-width="3"/>
    <line id="Line_35" data-name="Line 35" x2="54.408" transform="translate(133.214 235.961)" fill="none" stroke="#000" stroke-linecap="round" stroke-linejoin="round" stroke-miterlimit="10" stroke-width="3"/>
    <circle id="Ellipse_66" data-name="Ellipse 66" cx="47.828" cy="47.828" r="47.828" transform="translate(164.674 75)" fill="#ccc" stroke="#000" stroke-linecap="round" stroke-linejoin="round" stroke-miterlimit="10" stroke-width="3"/>
    <circle id="Ellipse_67" data-name="Ellipse 67" cx="38.04" cy="38.04" r="38.04" transform="translate(174.462 84.788)" fill="#fff" stroke="#000" stroke-linecap="round" stroke-linejoin="round" stroke-miterlimit="10" stroke-width="3"/>
    <path id="Icon_awesome-check_1_" d="M390.913,183.514l-14.64-14.64a2.259,2.259,0,0,1,0-3.167h0l3.167-3.208a2.259,2.259,0,0,1,3.167,0h0l9.87,9.87,21.1-21.1a2.259,2.259,0,0,1,3.167,0h0l3.167,3.208a2.259,2.259,0,0,1,0,3.167h0l-25.867,25.867a2.209,2.209,0,0,1-3.125,0Z" transform="translate(-185.649 -44.525)" fill="#009dff"/>
    <path id="Path_302" data-name="Path 302" d="M469.451,346.787l.082-9.171-3.66-.041a17.882,17.882,0,0,0-1.4-3.454l2.591-2.55-6.415-6.539-2.591,2.55a14.662,14.662,0,0,0-3.413-1.439l.041-3.66-9.171-.082-.041,3.66a17.882,17.882,0,0,0-3.454,1.4l-2.55-2.591-6.539,6.415,2.55,2.591a14.662,14.662,0,0,0-1.439,3.413l-3.66-.041-.082,9.171,3.66.041a17.882,17.882,0,0,0,1.4,3.454l-2.591,2.55L439.183,359l2.591-2.55a14.666,14.666,0,0,0,3.413,1.439l-.041,3.66,9.171.082.041-3.66a17.883,17.883,0,0,0,3.454-1.4l2.55,2.591,6.539-6.415-2.55-2.591a14.665,14.665,0,0,0,1.439-3.413Zm-19.534,5.387a10.117,10.117,0,1,1,10.117-10.117A10.109,10.109,0,0,1,449.916,352.174Z" transform="translate(-217.839 -145.658)" fill="#fff" stroke="#000" stroke-linecap="round" stroke-linejoin="round" stroke-miterlimit="10" stroke-width="3"/>
    <circle id="Ellipse_68" data-name="Ellipse 68" cx="5.017" cy="5.017" r="5.017" transform="translate(227.06 191.382)" fill="#009dff"/>
  </g>
</svg>
