<?xml version="1.0" encoding="utf-8"?>
<!-- Generator: Adobe Illustrator 25.2.1, SVG Export Plug-In . SVG Version: 6.00 Build 0)  -->
<svg version="1.1" xmlns="http://www.w3.org/2000/svg" xmlns:xlink="http://www.w3.org/1999/xlink" x="0px" y="0px"
	 viewBox="0 0 600.9 547.7" style="enable-background:new 0 0 600.9 547.7;" xml:space="preserve">
<style type="text/css">
	.st0{clip-path:url(#SVGID_2_);}
	.st1{fill:none;stroke:#009DFF;stroke-miterlimit:10;}
	.st2{fill:none;stroke:#979797;stroke-width:3;stroke-miterlimit:10;}
	.st3{fill:#FFFFFF;}
	.st4{fill:#009DFF;}
	.st5{clip-path:url(#SVGID_4_);}
	.st6{fill:none;stroke:#4599F8;stroke-miterlimit:10;}
	.st7{clip-path:url(#SVGID_6_);}
	.st8{clip-path:url(#SVGID_10_);fill:#009DFF;}
	.st9{fill:none;stroke:#979797;stroke-miterlimit:10;}
	.st10{fill:#F2F2F2;}
	.st11{clip-path:url(#SVGID_12_);fill:none;stroke:#0A4C86;stroke-width:5;stroke-miterlimit:10;}
	.st12{fill:#0A4C86;}
	.st13{clip-path:url(#SVGID_14_);fill:none;stroke:#FFFFFF;stroke-width:5;stroke-miterlimit:10;}
	.st14{fill:none;stroke:#111B1E;stroke-width:3;stroke-miterlimit:10;}
	.st15{clip-path:url(#Rectangle_2_1_);}
	.st16{fill:none;}
	.st17{fill:#E6E6E6;}
	.st18{fill:url(#);}
	.st19{fill:#FFFFFF;stroke:#000000;stroke-width:5;stroke-miterlimit:10;}
	.st20{fill:none;stroke:#000000;stroke-width:5;stroke-miterlimit:10;}
	.st21{fill:#FFFFFF;stroke:#000000;stroke-width:5;stroke-linecap:round;stroke-linejoin:round;stroke-miterlimit:10;}
	.st22{fill:#009DFF;stroke:#000000;stroke-width:5;stroke-linecap:round;stroke-linejoin:round;stroke-miterlimit:10;}
	.st23{fill:none;stroke:#000000;stroke-width:5;stroke-linecap:round;stroke-linejoin:round;stroke-miterlimit:10;}
	.st24{fill:#CCCCCC;stroke:#000000;stroke-width:5;stroke-linecap:round;stroke-linejoin:round;stroke-miterlimit:10;}
</style>
<g id="Layer_1">
</g>
<g id="Layer_2">
</g>
<g id="Layer_3">
	<path class="st21" d="M292.3,75.1v129.4H141.6c-14.9,0-27.1,12.1-27.1,27.1v111.6c0,14.9-12.1,27.1-27.1,27.1
		c-15,0-27.1-12.1-27.1-27.1v-215h54.1V75.1H292.3z"/>
	<path class="st21" d="M400.5,231.6v268.1H168.7V231.6c0-14.9-12.1-27.1-27.1-27.1h231.8C388.4,204.5,400.5,216.6,400.5,231.6z"/>
	<polygon class="st22" points="114.6,75.1 114.6,128.2 60.4,128.2 	"/>
	<path class="st22" d="M168.7,231.6v138.6H87.5c14.9,0,27.1-12.1,27.1-27.1V231.6c0-14.9,12.1-27.1,27.1-27.1
		C156.6,204.5,168.7,216.6,168.7,231.6z"/>
	<g>
		<line class="st23" x1="136.8" y1="112.6" x2="263.9" y2="112.6"/>
		<line class="st23" x1="136.8" y1="127.7" x2="263.9" y2="127.7"/>
		<line class="st23" x1="136.8" y1="142.9" x2="263.9" y2="142.9"/>
		<line class="st23" x1="136.8" y1="158" x2="263.9" y2="158"/>
		<line class="st23" x1="136.8" y1="173.1" x2="263.9" y2="173.1"/>
	</g>
	<rect x="200.4" y="228.4" class="st24" width="22.5" height="22.5"/>
	<line class="st23" x1="237.6" y1="239.7" x2="369.9" y2="239.7"/>
	<rect x="200.4" y="266.2" class="st24" width="22.5" height="22.5"/>
	<line class="st23" x1="237.6" y1="277.5" x2="369.9" y2="277.5"/>
	<rect x="200.4" y="304" class="st24" width="22.5" height="22.5"/>
	<line class="st23" x1="237.6" y1="315.3" x2="369.9" y2="315.3"/>
	<rect x="200.4" y="341.8" class="st24" width="22.5" height="22.5"/>
	<line class="st23" x1="237.6" y1="353" x2="369.9" y2="353"/>
	<rect x="200.4" y="379.6" class="st24" width="22.5" height="22.5"/>
	<line class="st23" x1="237.6" y1="390.8" x2="369.9" y2="390.8"/>
	<rect x="200.4" y="417.4" class="st24" width="22.5" height="22.5"/>
	<line class="st23" x1="237.6" y1="428.6" x2="369.9" y2="428.6"/>
	<rect x="200.4" y="455.2" class="st24" width="22.5" height="22.5"/>
	<line class="st23" x1="237.6" y1="466.4" x2="369.9" y2="466.4"/>
	<circle class="st24" cx="430.4" cy="191.3" r="116.3"/>
	<circle class="st21" cx="430.4" cy="191.3" r="92.5"/>
	<path id="Icon_awesome-check_1_" class="st4" d="M412.8,230.6L377.2,195c-2.1-2.1-2.1-5.6,0-7.7c0,0,0,0,0,0l7.7-7.8
		c2.1-2.1,5.6-2.1,7.7,0c0,0,0,0,0,0l24,24l51.3-51.3c2.1-2.1,5.6-2.1,7.7,0c0,0,0,0,0,0l7.7,7.8c2.1,2.1,2.1,5.6,0,7.7c0,0,0,0,0,0
		l-62.9,62.9C418.4,232.7,415,232.7,412.8,230.6C412.8,230.6,412.8,230.6,412.8,230.6z"/>
	<path class="st21" d="M525.5,381.7l0.2-22.3l-8.9-0.1c-0.8-2.9-2-5.7-3.4-8.4l6.3-6.2l-15.6-15.9l-6.3,6.2
		c-2.6-1.5-5.4-2.7-8.3-3.5l0.1-8.9l-22.3-0.2l-0.1,8.9c-2.9,0.8-5.7,2-8.4,3.4l-6.2-6.3l-15.9,15.6l6.2,6.3
		c-1.5,2.6-2.7,5.4-3.5,8.3l-8.9-0.1l-0.2,22.3l8.9,0.1c0.8,2.9,2,5.7,3.4,8.4l-6.3,6.2l15.6,15.9l6.3-6.2c2.6,1.5,5.4,2.7,8.3,3.5
		l-0.1,8.9l22.3,0.2l0.1-8.9c2.9-0.8,5.7-2,8.4-3.4l6.2,6.3l15.9-15.6l-6.2-6.3c1.5-2.6,2.7-5.4,3.5-8.3L525.5,381.7z M478,394.8
		c-13.6,0-24.6-11-24.6-24.6s11-24.6,24.6-24.6c13.6,0,24.6,11,24.6,24.6S491.6,394.8,478,394.8z"/>
	<circle class="st4" cx="478" cy="370.2" r="12.2"/>
</g>
</svg>
