<?xml version="1.0" encoding="utf-8"?>
<!-- Generator: Adobe Illustrator 25.2.1, SVG Export Plug-In . SVG Version: 6.00 Build 0)  -->
<svg version="1.1" xmlns="http://www.w3.org/2000/svg" xmlns:xlink="http://www.w3.org/1999/xlink" x="0px" y="0px"
	 viewBox="0 0 600.9 547.7" style="enable-background:new 0 0 600.9 547.7;" xml:space="preserve">
<style type="text/css">
	.st0{clip-path:url(#SVGID_2_);}
	.st1{fill:none;stroke:#009DFF;stroke-miterlimit:10;}
	.st2{fill:none;stroke:#979797;stroke-width:3;stroke-miterlimit:10;}
	.st3{fill:#FFFFFF;}
	.st4{fill:#009DFF;}
	.st5{clip-path:url(#SVGID_4_);}
	.st6{fill:none;stroke:#4599F8;stroke-miterlimit:10;}
	.st7{clip-path:url(#SVGID_6_);}
	.st8{clip-path:url(#SVGID_10_);fill:#009DFF;}
	.st9{fill:none;stroke:#979797;stroke-miterlimit:10;}
	.st10{fill:#F2F2F2;}
	.st11{clip-path:url(#SVGID_12_);fill:none;stroke:#0A4C86;stroke-width:5;stroke-miterlimit:10;}
	.st12{fill:#0A4C86;}
	.st13{clip-path:url(#SVGID_14_);fill:none;stroke:#FFFFFF;stroke-width:5;stroke-miterlimit:10;}
	.st14{fill:none;stroke:#111B1E;stroke-width:3;stroke-miterlimit:10;}
	.st15{fill:#979797;}
	.st16{clip-path:url(#Rectangle_2_1_);}
	.st17{fill:none;}
	.st18{fill:#E6E6E6;}
	.st19{fill:url(#);}
	.st20{fill:#FFFFFF;stroke:#000000;stroke-width:5;stroke-miterlimit:10;}
	.st21{fill:none;stroke:#000000;stroke-width:5;stroke-miterlimit:10;}
	.st22{fill:#FFFFFF;stroke:#000000;stroke-width:5;stroke-linecap:round;stroke-linejoin:round;stroke-miterlimit:10;}
	.st23{fill:#009DFF;stroke:#000000;stroke-width:5;stroke-linecap:round;stroke-linejoin:round;stroke-miterlimit:10;}
	.st24{fill:none;stroke:#000000;stroke-width:5;stroke-linecap:round;stroke-linejoin:round;stroke-miterlimit:10;}
	.st25{fill:#CCCCCC;stroke:#000000;stroke-width:5;stroke-linecap:round;stroke-linejoin:round;stroke-miterlimit:10;}
	.st26{fill:#009DFF;stroke:#000000;stroke-width:5;stroke-miterlimit:10;}
	.st27{fill:none;stroke:#000000;stroke-width:5;stroke-miterlimit:10;stroke-dasharray:9.7056,9.7056;}
	.st28{fill:none;stroke:#000000;stroke-width:5;stroke-miterlimit:10;stroke-dasharray:9.371,9.371;}
	.st29{fill:#CCCCCC;stroke:#000000;stroke-width:5;stroke-miterlimit:10;}
	.st30{fill:#CCCCCC;}
	.st31{fill:none;stroke:#CCCCCC;stroke-width:5;stroke-miterlimit:10;}
	.st32{fill:none;stroke:#009DFF;stroke-width:5;stroke-miterlimit:10;}
	.st33{fill:#009DFF;stroke:#000000;stroke-width:3;stroke-linecap:round;stroke-linejoin:round;}
	.st34{fill:none;stroke:#000000;stroke-width:5;}
	.st35{fill:#CCCCCC;stroke:#000000;stroke-width:5;stroke-linecap:round;stroke-linejoin:round;}
	.st36{fill:#FFFFFF;stroke:#000000;stroke-width:5;}
	.st37{fill:#FFFFFF;stroke:#000000;stroke-width:5;stroke-linecap:round;stroke-linejoin:round;}
	.st38{fill:#009DFF;stroke:#000000;stroke-width:5;stroke-linecap:round;stroke-linejoin:round;}
	.st39{clip-path:url(#SVGID_16_);fill:#009DFF;stroke:#000000;stroke-width:3;stroke-linecap:round;stroke-linejoin:round;}
	.st40{clip-path:url(#SVGID_18_);fill:#009DFF;stroke:#000000;stroke-width:3;stroke-linecap:round;stroke-linejoin:round;}
	.st41{fill:#009DFF;stroke:#000000;stroke-width:5;}
	.st42{fill:none;stroke:#FFFFFF;stroke-width:5;}
	.st43{fill:#4599F8;}
</style>
<g id="Layer_1">
</g>
<g id="Layer_2">
</g>
<g id="Layer_3">
	<g>
		<polygon class="st1" points="110.4,57.8 419.1,12.8 505.6,339.6 		"/>
		<circle class="st4" cx="110.4" cy="57.8" r="8"/>
		<circle class="st4" cx="419.1" cy="12.8" r="8"/>
	</g>
	<g>
		<polygon class="st9" points="549.3,159.1 236,57.8 242.8,492.2 		"/>
		<circle class="st15" cx="236" cy="57.8" r="8"/>
		<circle class="st15" cx="549.3" cy="159.3" r="16"/>
		<circle class="st15" cx="242.9" cy="492.2" r="8"/>
	</g>
	<g>
		<path class="st20" d="M455.8,367.6H56c-5.5,0-10-4.5-10-10V116.3c0-5.5,4.5-10,10-10h399.7c5.5,0,10,4.5,10,10v241.3
			C465.8,363.1,461.3,367.6,455.8,367.6z"/>
		<path class="st29" d="M465.8,330.5H46v27.1c0,5.5,4.5,10,10,10h399.7c5.5,0,10-4.5,10-10V330.5z"/>
		<rect x="189" y="367.6" class="st20" width="133.8" height="93.4"/>
		<line class="st21" x1="46" y1="461" x2="465.8" y2="461"/>
		<g>
			<rect x="80.5" y="139.6" class="st30" width="47.7" height="47.7"/>
			<line class="st21" x1="142.5" y1="146.5" x2="241.9" y2="146.5"/>
			<line class="st21" x1="142.5" y1="162.3" x2="241.9" y2="162.3"/>
			<line class="st21" x1="142.5" y1="178.1" x2="241.9" y2="178.1"/>
		</g>
		<g>
			<rect x="80.5" y="199.5" class="st4" width="47.7" height="47.7"/>
			<line class="st21" x1="142.5" y1="206.4" x2="241.9" y2="206.4"/>
			<line class="st21" x1="142.5" y1="222.2" x2="241.9" y2="222.2"/>
			<line class="st21" x1="142.5" y1="238.1" x2="241.9" y2="238.1"/>
		</g>
		<g>
			<rect x="81.4" y="259.5" class="st30" width="47.7" height="47.7"/>
			<line class="st21" x1="143.5" y1="266.4" x2="242.8" y2="266.4"/>
			<line class="st21" x1="143.5" y1="282.2" x2="242.8" y2="282.2"/>
			<line class="st21" x1="143.5" y1="298" x2="242.8" y2="298"/>
		</g>
		<g>
			<rect x="268.7" y="139.6" class="st4" width="47.7" height="47.7"/>
			<line class="st21" x1="330.8" y1="146.5" x2="430.1" y2="146.5"/>
			<line class="st21" x1="330.8" y1="162.3" x2="430.1" y2="162.3"/>
			<line class="st21" x1="330.8" y1="178.1" x2="430.1" y2="178.1"/>
		</g>
		<g>
			<rect x="268.7" y="199.5" class="st30" width="47.7" height="47.7"/>
			<line class="st21" x1="330.8" y1="206.4" x2="430.1" y2="206.4"/>
			<line class="st21" x1="330.8" y1="222.2" x2="430.1" y2="222.2"/>
			<line class="st21" x1="330.8" y1="238.1" x2="430.1" y2="238.1"/>
		</g>
		<g>
			<rect x="269.6" y="259.5" class="st30" width="47.7" height="47.7"/>
			<line class="st21" x1="331.7" y1="266.4" x2="431" y2="266.4"/>
			<line class="st21" x1="331.7" y1="282.2" x2="431" y2="282.2"/>
			<line class="st21" x1="331.7" y1="298" x2="431" y2="298"/>
		</g>
	</g>
	<g>
		<path class="st22" d="M489.7,123.8v99.5H373.9c-11.5,0-20.8,9.3-20.8,20.8v85.7c0,11.5-9.3,20.8-20.8,20.8
			c-11.5,0-20.8-9.3-20.8-20.8V164.7h41.6v-40.8H489.7z"/>
		<path class="st22" d="M572.9,244.1v206H394.7v-206c0-11.5-9.3-20.8-20.8-20.8h178.2C563.6,223.3,572.9,232.6,572.9,244.1z"/>
		<polygon class="st23" points="353.1,123.8 353.1,164.7 311.5,164.7 		"/>
		<path class="st23" d="M394.7,244.1v106.5h-62.4c11.5,0,20.8-9.3,20.8-20.8v-85.7c0-11.5,9.3-20.8,20.8-20.8
			C385.4,223.3,394.7,232.6,394.7,244.1z"/>
		<g>
			<line class="st24" x1="370.2" y1="152.7" x2="467.9" y2="152.7"/>
			<line class="st24" x1="370.2" y1="164.3" x2="467.9" y2="164.3"/>
			<line class="st24" x1="370.2" y1="175.9" x2="467.9" y2="175.9"/>
			<line class="st24" x1="370.2" y1="187.6" x2="467.9" y2="187.6"/>
			<line class="st24" x1="370.2" y1="199.2" x2="467.9" y2="199.2"/>
		</g>
		<rect x="419.1" y="241.7" class="st25" width="17.3" height="17.3"/>
		<line class="st24" x1="447.7" y1="250.4" x2="549.3" y2="250.4"/>
		<rect x="419.1" y="270.8" class="st25" width="17.3" height="17.3"/>
		<line class="st24" x1="447.7" y1="279.4" x2="549.3" y2="279.4"/>
		<rect x="419.1" y="299.8" class="st25" width="17.3" height="17.3"/>
		<line class="st24" x1="447.7" y1="308.4" x2="549.3" y2="308.4"/>
		<rect x="419.1" y="328.8" class="st25" width="17.3" height="17.3"/>
		<line class="st24" x1="447.7" y1="337.5" x2="549.3" y2="337.5"/>
		<rect x="419.1" y="357.9" class="st25" width="17.3" height="17.3"/>
		<line class="st24" x1="447.7" y1="366.5" x2="549.3" y2="366.5"/>
		<rect x="419.1" y="386.9" class="st25" width="17.3" height="17.3"/>
		<line class="st24" x1="447.7" y1="395.6" x2="549.3" y2="395.6"/>
		<rect x="419.1" y="416" class="st25" width="17.3" height="17.3"/>
		<line class="st24" x1="447.7" y1="424.6" x2="549.3" y2="424.6"/>
	</g>
	<circle class="st22" cx="85.1" cy="350.7" r="65.2"/>
	<path id="Icon_awesome-check_2_" class="st4" d="M72.7,378.3l-25.1-25.1c-1.5-1.5-1.5-3.9,0-5.5c0,0,0,0,0,0l5.5-5.5
		c1.5-1.5,3.9-1.5,5.5,0c0,0,0,0,0,0l16.9,16.9l36.2-36.2c1.5-1.5,3.9-1.5,5.5,0c0,0,0,0,0,0l5.5,5.5c1.5,1.5,1.5,3.9,0,5.5
		c0,0,0,0,0,0l-44.4,44.4C76.6,379.8,74.2,379.8,72.7,378.3C72.7,378.3,72.7,378.3,72.7,378.3z"/>
</g>
</svg>
