<?xml version="1.0" encoding="utf-8"?>
<!-- Generator: Adobe Illustrator 25.2.1, SVG Export Plug-In . SVG Version: 6.00 Build 0)  -->
<svg version="1.1" xmlns="http://www.w3.org/2000/svg" xmlns:xlink="http://www.w3.org/1999/xlink" x="0px" y="0px"
	 viewBox="0 0 600.9 547.7" style="enable-background:new 0 0 600.9 547.7;" xml:space="preserve">
<style type="text/css">
	.st0{clip-path:url(#SVGID_2_);}
	.st1{fill:none;stroke:#009DFF;stroke-miterlimit:10;}
	.st2{fill:none;stroke:#979797;stroke-width:3;stroke-miterlimit:10;}
	.st3{fill:#FFFFFF;}
	.st4{fill:#009DFF;}
	.st5{clip-path:url(#SVGID_4_);}
	.st6{fill:none;stroke:#4599F8;stroke-miterlimit:10;}
	.st7{clip-path:url(#SVGID_6_);}
	.st8{clip-path:url(#SVGID_10_);fill:#009DFF;}
	.st9{fill:none;stroke:#979797;stroke-miterlimit:10;}
	.st10{fill:#F2F2F2;}
	.st11{clip-path:url(#SVGID_12_);fill:none;stroke:#0A4C86;stroke-width:5;stroke-miterlimit:10;}
	.st12{fill:#0A4C86;}
	.st13{clip-path:url(#SVGID_14_);fill:none;stroke:#FFFFFF;stroke-width:5;stroke-miterlimit:10;}
	.st14{fill:none;stroke:#111B1E;stroke-width:3;stroke-miterlimit:10;}
	.st15{clip-path:url(#Rectangle_2_1_);}
	.st16{fill:none;}
	.st17{fill:#E6E6E6;}
	.st18{fill:url(#);}
	.st19{fill:#FFFFFF;stroke:#000000;stroke-width:5;stroke-miterlimit:10;}
	.st20{fill:none;stroke:#000000;stroke-width:5;stroke-miterlimit:10;}
	.st21{fill:#FFFFFF;stroke:#000000;stroke-width:5;stroke-linecap:round;stroke-linejoin:round;stroke-miterlimit:10;}
	.st22{fill:#009DFF;stroke:#000000;stroke-width:5;stroke-linecap:round;stroke-linejoin:round;stroke-miterlimit:10;}
	.st23{fill:none;stroke:#000000;stroke-width:5;stroke-linecap:round;stroke-linejoin:round;stroke-miterlimit:10;}
	.st24{fill:#CCCCCC;stroke:#000000;stroke-width:5;stroke-linecap:round;stroke-linejoin:round;stroke-miterlimit:10;}
	.st25{fill:#009DFF;stroke:#000000;stroke-width:5;stroke-miterlimit:10;}
	.st26{fill:none;stroke:#000000;stroke-width:5;stroke-miterlimit:10;stroke-dasharray:9.7056,9.7056;}
	.st27{fill:none;stroke:#000000;stroke-width:5;stroke-miterlimit:10;stroke-dasharray:9.371,9.371;}
	.st28{fill:#CCCCCC;stroke:#000000;stroke-width:5;stroke-miterlimit:10;}
	.st29{fill:#CCCCCC;}
	.st30{fill:none;stroke:#CCCCCC;stroke-width:5;stroke-miterlimit:10;}
	.st31{fill:none;stroke:#009DFF;stroke-width:5;stroke-miterlimit:10;}
	.st32{fill:#009DFF;stroke:#000000;stroke-width:3;stroke-linecap:round;stroke-linejoin:round;}
	.st33{fill:none;stroke:#000000;stroke-width:5;}
	.st34{fill:#CCCCCC;stroke:#000000;stroke-width:5;stroke-linecap:round;stroke-linejoin:round;}
	.st35{fill:#FFFFFF;stroke:#000000;stroke-width:5;}
	.st36{fill:#FFFFFF;stroke:#000000;stroke-width:5;stroke-linecap:round;stroke-linejoin:round;}
	.st37{fill:#009DFF;stroke:#000000;stroke-width:5;stroke-linecap:round;stroke-linejoin:round;}
	.st38{clip-path:url(#SVGID_16_);fill:#009DFF;stroke:#000000;stroke-width:3;stroke-linecap:round;stroke-linejoin:round;}
</style>
<g id="Layer_1">
</g>
<g id="Layer_2">
</g>
<g id="Layer_3">
	
		<image style="display:none;overflow:visible;" width="500" height="375" xlink:href="F9989167.jpg"  transform="matrix(1 0 0 1 -113.693 -21.4149)">
	</image>
	<path class="st20" d="M494.7,364H94.9c-5.5,0-10-4.5-10-10V112.7c0-5.5,4.5-10,10-10h399.7c5.5,0,10,4.5,10,10V354
		C504.7,359.5,500.2,364,494.7,364z"/>
	<path class="st28" d="M504.7,326.8H84.9V354c0,5.5,4.5,10,10,10h399.7c5.5,0,10-4.5,10-10V326.8z"/>
	<rect x="227.9" y="364" class="st19" width="133.8" height="93.4"/>
	<line class="st20" x1="84.9" y1="457.4" x2="504.7" y2="457.4"/>
	<g>
		<rect x="114.5" y="126.4" class="st29" width="47.7" height="47.7"/>
		<line class="st20" x1="176.6" y1="133.3" x2="275.9" y2="133.3"/>
		<line class="st20" x1="176.6" y1="149.1" x2="275.9" y2="149.1"/>
		<line class="st20" x1="176.6" y1="165" x2="275.9" y2="165"/>
	</g>
	<g>
		<rect x="114.5" y="187.6" class="st29" width="47.7" height="47.7"/>
		<line class="st20" x1="176.6" y1="194.5" x2="275.9" y2="194.5"/>
		<line class="st20" x1="176.6" y1="210.3" x2="275.9" y2="210.3"/>
		<line class="st20" x1="176.6" y1="226.1" x2="275.9" y2="226.1"/>
	</g>
	<g>
		<rect x="114.5" y="248.7" class="st29" width="47.7" height="47.7"/>
		<line class="st20" x1="176.6" y1="255.6" x2="275.9" y2="255.6"/>
		<line class="st20" x1="176.6" y1="271.4" x2="275.9" y2="271.4"/>
		<line class="st20" x1="176.6" y1="287.3" x2="275.9" y2="287.3"/>
	</g>
	<g>
		<rect x="312.2" y="126.4" class="st29" width="47.7" height="47.7"/>
		<line class="st20" x1="374.2" y1="133.3" x2="473.5" y2="133.3"/>
		<line class="st20" x1="374.2" y1="149.1" x2="473.5" y2="149.1"/>
		<line class="st20" x1="374.2" y1="165" x2="473.5" y2="165"/>
	</g>
	<g>
		<rect x="312.2" y="187.6" class="st29" width="47.7" height="47.7"/>
		<line class="st20" x1="374.2" y1="194.5" x2="473.5" y2="194.5"/>
		<line class="st20" x1="374.2" y1="210.3" x2="473.5" y2="210.3"/>
		<line class="st20" x1="374.2" y1="226.1" x2="473.5" y2="226.1"/>
	</g>
	<g>
		<rect x="312.2" y="248.7" class="st29" width="47.7" height="47.7"/>
		<line class="st20" x1="374.2" y1="255.6" x2="473.5" y2="255.6"/>
		<line class="st20" x1="374.2" y1="271.4" x2="473.5" y2="271.4"/>
		<line class="st20" x1="374.2" y1="287.3" x2="473.5" y2="287.3"/>
	</g>
	<g>
		<g>
			<rect x="107.9" y="49.7" class="st19" width="219.6" height="179.7"/>
			<rect x="107.9" y="49.7" class="st28" width="219.6" height="38.3"/>
			<circle class="st3" cx="130.7" cy="68.8" r="7.5"/>
			<circle class="st3" cx="152.2" cy="68.8" r="7.5"/>
			<circle class="st3" cx="173.6" cy="68.8" r="7.5"/>
		</g>
		<g>
			<rect x="138.2" y="108.9" class="st4" width="54.5" height="96.7"/>
			<g>
				<rect x="148" y="121.1" class="st3" width="14.6" height="14.6"/>
				<rect x="168.2" y="121.1" class="st3" width="14.6" height="14.6"/>
			</g>
			<g>
				<rect x="148" y="141.1" class="st3" width="14.6" height="14.6"/>
				<rect x="168.2" y="141.1" class="st3" width="14.6" height="14.6"/>
			</g>
			<g>
				<rect x="148" y="161" class="st3" width="14.6" height="14.6"/>
				<rect x="168.2" y="161" class="st3" width="14.6" height="14.6"/>
			</g>
			<g>
				<rect x="148" y="180.9" class="st3" width="14.6" height="14.6"/>
				<rect x="168.2" y="180.9" class="st3" width="14.6" height="14.6"/>
			</g>
			<line class="st31" x1="129.3" y1="205.6" x2="201.5" y2="205.6"/>
		</g>
		<path id="Icon_feather-thumbs-up" class="st32" d="M267.1,173.7V165c0-3.6-2.9-6.5-6.5-6.5l-8.7,19.5v23.9h24.5
			c2.2,0,4-1.6,4.3-3.7l3-19.5c0.4-2.4-1.3-4.6-3.6-4.9c-0.2,0-0.5-0.1-0.7,0H267.1z M251.9,201.9h-6.5c-2.4,0-4.3-1.9-4.3-4.3
			v-15.2c0-2.4,1.9-4.3,4.3-4.3h6.5"/>
		<line class="st33" x1="222.9" y1="111.7" x2="301.9" y2="111.7"/>
		<line class="st33" x1="222.9" y1="126.4" x2="301.9" y2="126.4"/>
		<line class="st33" x1="222.9" y1="141.1" x2="301.9" y2="141.1"/>
	</g>
	<g>
		
			<rect x="378.9" y="296.7" transform="matrix(0.7071 -0.7071 0.7071 0.7071 -105.6492 362.4123)" class="st34" width="11.5" height="24.1"/>
		<circle class="st35" cx="324" cy="248.1" r="78.3"/>
		<circle class="st35" cx="324" cy="248.1" r="59.1"/>
		
			<rect x="427" y="296.7" transform="matrix(0.7071 -0.7071 0.7071 0.7071 -129.3986 420.2077)" class="st36" width="31" height="139.2"/>
		
			<rect x="464.4" y="386.8" transform="matrix(0.7071 -0.7071 0.7071 0.7071 -144.8601 457.5352)" class="st37" width="31" height="33.6"/>
	</g>
	<g>
		<defs>
			<circle id="SVGID_15_" cx="324" cy="248.1" r="59.1"/>
		</defs>
		<clipPath id="SVGID_2_">
			<use xlink:href="#SVGID_15_"  style="overflow:visible;"/>
		</clipPath>
		
			<path id="Icon_feather-thumbs-up_1_" style="clip-path:url(#SVGID_2_);fill:#009DFF;stroke:#000000;stroke-width:3;stroke-linecap:round;stroke-linejoin:round;" d="
			M311.1,200.3v-17c0-7-5.7-12.8-12.8-12.8l-17,38.3v46.8h48c4.2,0,7.9-3,8.5-7.2l5.9-38.3c0.7-4.6-2.5-9-7.1-9.7
			c-0.5-0.1-0.9-0.1-1.4-0.1H311.1z M281.4,255.6h-12.8c-4.7,0-8.5-3.8-8.5-8.5v-29.8c0-4.7,3.8-8.5,8.5-8.5h12.8"/>
	</g>
	<circle class="st33" cx="324" cy="248.1" r="59.1"/>
</g>
</svg>
