<svg xmlns="http://www.w3.org/2000/svg" xmlns:xlink="http://www.w3.org/1999/xlink" width="190.105" height="184.755" viewBox="0 0 190.105 184.755">
  <defs>
    <clipPath id="clip-path">
      <circle id="Ellipse_76" data-name="Ellipse 76" cx="26.347" cy="26.347" r="26.347"/>
    </clipPath>
  </defs>
  <g id="finding_apartment_icon" transform="translate(-83.4 -48.2)">
    <path id="Path_326" data-name="Path 326" d="M267.591,219.189H89.358a4.471,4.471,0,0,1-4.458-4.458V107.158a4.471,4.471,0,0,1,4.458-4.458H267.546A4.471,4.471,0,0,1,272,107.158V214.731A4.4,4.4,0,0,1,267.591,219.189Z" transform="translate(0 -29.372)" fill="none" stroke="#000" stroke-miterlimit="10" stroke-width="3"/>
    <path id="Path_327" data-name="Path 327" d="M272.049,326.8H84.9v12.126a4.471,4.471,0,0,0,4.458,4.458H267.546A4.471,4.471,0,0,0,272,338.926V326.8Z" transform="translate(0 -153.568)" fill="#ccc" stroke="#000" stroke-miterlimit="10" stroke-width="3"/>
    <rect id="Rectangle_136" data-name="Rectangle 136" width="59.649" height="41.638" transform="translate(148.65 189.816)" fill="#fff" stroke="#000" stroke-miterlimit="10" stroke-width="3"/>
    <line id="Line_47" data-name="Line 47" x2="187.149" transform="translate(84.9 231.455)" fill="none" stroke="#000" stroke-miterlimit="10" stroke-width="3"/>
    <g id="Group_84" data-name="Group 84" transform="translate(98.096 83.893)">
      <rect id="Rectangle_137" data-name="Rectangle 137" width="21.265" height="21.265" transform="translate(0 0)" fill="#ccc"/>
      <line id="Line_48" data-name="Line 48" x2="44.268" transform="translate(27.684 3.076)" fill="none" stroke="#000" stroke-miterlimit="10" stroke-width="3"/>
      <line id="Line_49" data-name="Line 49" x2="44.268" transform="translate(27.684 10.12)" fill="none" stroke="#000" stroke-miterlimit="10" stroke-width="3"/>
      <line id="Line_50" data-name="Line 50" x2="44.268" transform="translate(27.684 17.208)" fill="none" stroke="#000" stroke-miterlimit="10" stroke-width="3"/>
    </g>
    <g id="Group_85" data-name="Group 85" transform="translate(98.096 111.176)">
      <rect id="Rectangle_138" data-name="Rectangle 138" width="21.265" height="21.265" transform="translate(0 0)" fill="#ccc"/>
      <line id="Line_51" data-name="Line 51" x2="44.268" transform="translate(27.684 3.076)" fill="none" stroke="#000" stroke-miterlimit="10" stroke-width="3"/>
      <line id="Line_52" data-name="Line 52" x2="44.268" transform="translate(27.684 10.12)" fill="none" stroke="#000" stroke-miterlimit="10" stroke-width="3"/>
      <line id="Line_53" data-name="Line 53" x2="44.268" transform="translate(27.684 17.163)" fill="none" stroke="#000" stroke-miterlimit="10" stroke-width="3"/>
    </g>
    <g id="Group_86" data-name="Group 86" transform="translate(98.096 138.415)">
      <rect id="Rectangle_139" data-name="Rectangle 139" width="21.265" height="21.265" fill="#ccc"/>
      <line id="Line_54" data-name="Line 54" x2="44.268" transform="translate(27.684 3.076)" fill="none" stroke="#000" stroke-miterlimit="10" stroke-width="3"/>
      <line id="Line_55" data-name="Line 55" x2="44.268" transform="translate(27.684 10.12)" fill="none" stroke="#000" stroke-miterlimit="10" stroke-width="3"/>
      <line id="Line_56" data-name="Line 56" x2="44.268" transform="translate(27.684 17.208)" fill="none" stroke="#000" stroke-miterlimit="10" stroke-width="3"/>
    </g>
    <g id="Group_87" data-name="Group 87" transform="translate(186.231 83.893)">
      <rect id="Rectangle_140" data-name="Rectangle 140" width="21.265" height="21.265" transform="translate(0 0)" fill="#ccc"/>
      <line id="Line_57" data-name="Line 57" x2="44.268" transform="translate(27.64 3.076)" fill="none" stroke="#000" stroke-miterlimit="10" stroke-width="3"/>
      <line id="Line_58" data-name="Line 58" x2="44.268" transform="translate(27.64 10.12)" fill="none" stroke="#000" stroke-miterlimit="10" stroke-width="3"/>
      <line id="Line_59" data-name="Line 59" x2="44.268" transform="translate(27.64 17.208)" fill="none" stroke="#000" stroke-miterlimit="10" stroke-width="3"/>
    </g>
    <g id="Group_88" data-name="Group 88" transform="translate(186.231 111.176)">
      <rect id="Rectangle_141" data-name="Rectangle 141" width="21.265" height="21.265" transform="translate(0 0)" fill="#ccc"/>
      <line id="Line_60" data-name="Line 60" x2="44.268" transform="translate(27.64 3.076)" fill="none" stroke="#000" stroke-miterlimit="10" stroke-width="3"/>
      <line id="Line_61" data-name="Line 61" x2="44.268" transform="translate(27.64 10.12)" fill="none" stroke="#000" stroke-miterlimit="10" stroke-width="3"/>
      <line id="Line_62" data-name="Line 62" x2="44.268" transform="translate(27.64 17.163)" fill="none" stroke="#000" stroke-miterlimit="10" stroke-width="3"/>
    </g>
    <g id="Group_89" data-name="Group 89" transform="translate(186.231 138.415)">
      <rect id="Rectangle_142" data-name="Rectangle 142" width="21.265" height="21.265" transform="translate(0)" fill="#ccc"/>
      <line id="Line_63" data-name="Line 63" x2="44.268" transform="translate(27.64 3.076)" fill="none" stroke="#000" stroke-miterlimit="10" stroke-width="3"/>
      <line id="Line_64" data-name="Line 64" x2="44.268" transform="translate(27.64 10.12)" fill="none" stroke="#000" stroke-miterlimit="10" stroke-width="3"/>
      <line id="Line_65" data-name="Line 65" x2="44.268" transform="translate(27.64 17.208)" fill="none" stroke="#000" stroke-miterlimit="10" stroke-width="3"/>
    </g>
    <g id="Group_96" data-name="Group 96" transform="translate(95.154 49.7)">
      <g id="Group_90" data-name="Group 90">
        <rect id="Rectangle_143" data-name="Rectangle 143" width="97.899" height="80.111" fill="#fff" stroke="#000" stroke-miterlimit="10" stroke-width="3"/>
        <rect id="Rectangle_144" data-name="Rectangle 144" width="97.899" height="17.074" fill="#ccc" stroke="#000" stroke-miterlimit="10" stroke-width="3"/>
        <circle id="Ellipse_71" data-name="Ellipse 71" cx="3.344" cy="3.344" r="3.344" transform="translate(6.821 5.171)" fill="#fff"/>
        <circle id="Ellipse_72" data-name="Ellipse 72" cx="3.344" cy="3.344" r="3.344" transform="translate(16.406 5.171)" fill="#fff"/>
        <circle id="Ellipse_73" data-name="Ellipse 73" cx="3.344" cy="3.344" r="3.344" transform="translate(25.946 5.171)" fill="#fff"/>
      </g>
      <g id="Group_95" data-name="Group 95" transform="translate(9.54 26.392)">
        <rect id="Rectangle_145" data-name="Rectangle 145" width="24.296" height="43.109" transform="translate(3.968)" fill="#009dff"/>
        <g id="Group_91" data-name="Group 91" transform="translate(8.337 5.439)">
          <rect id="Rectangle_146" data-name="Rectangle 146" width="6.509" height="6.509" fill="#fff"/>
          <rect id="Rectangle_147" data-name="Rectangle 147" width="6.509" height="6.509" transform="translate(9.005)" fill="#fff"/>
        </g>
        <g id="Group_92" data-name="Group 92" transform="translate(8.337 14.355)">
          <rect id="Rectangle_148" data-name="Rectangle 148" width="6.509" height="6.509" fill="#fff"/>
          <rect id="Rectangle_149" data-name="Rectangle 149" width="6.509" height="6.509" transform="translate(9.005)" fill="#fff"/>
        </g>
        <g id="Group_93" data-name="Group 93" transform="translate(8.337 23.226)">
          <rect id="Rectangle_150" data-name="Rectangle 150" width="6.509" height="6.509" fill="#fff"/>
          <rect id="Rectangle_151" data-name="Rectangle 151" width="6.509" height="6.509" transform="translate(9.005)" fill="#fff"/>
        </g>
        <g id="Group_94" data-name="Group 94" transform="translate(8.337 32.098)">
          <rect id="Rectangle_152" data-name="Rectangle 152" width="6.509" height="6.509" fill="#fff"/>
          <rect id="Rectangle_153" data-name="Rectangle 153" width="6.509" height="6.509" transform="translate(9.005)" fill="#fff"/>
        </g>
        <line id="Line_66" data-name="Line 66" x2="32.187" transform="translate(0 43.109)" fill="none" stroke="#009dff" stroke-miterlimit="10" stroke-width="3"/>
      </g>
      <path id="Icon_feather-thumbs-up" d="M252.691,165.276V161.4a2.892,2.892,0,0,0-2.9-2.9l-3.879,8.693v10.655h10.922a1.926,1.926,0,0,0,1.917-1.649l1.337-8.693a1.892,1.892,0,0,0-1.6-2.184c-.089,0-.223-.045-.312,0h-5.483Zm-6.776,12.572h-2.9a1.9,1.9,0,0,1-1.917-1.917v-6.776a1.9,1.9,0,0,1,1.917-1.917h2.9" transform="translate(-181.719 -109.996)" fill="#009dff" stroke="#000" stroke-linecap="round" stroke-linejoin="round" stroke-width="3"/>
      <line id="Line_67" data-name="Line 67" x2="35.27" transform="translate(51.282 27.394)" fill="none" stroke="#000" stroke-width="3"/>
      <line id="Line_68" data-name="Line 68" x2="35.219" transform="translate(51.268 34.193)" fill="none" stroke="#000" stroke-width="3"/>
      <line id="Line_69" data-name="Line 69" x2="35.219" transform="translate(51.268 40.747)" fill="none" stroke="#000" stroke-width="3"/>
    </g>
    <g id="Group_97" data-name="Group 97" transform="translate(156.585 103.241)">
      <rect id="Rectangle_154" data-name="Rectangle 154" width="5.127" height="10.744" transform="translate(56.335 59.956) rotate(-45)" fill="#ccc" stroke="#000" stroke-linecap="round" stroke-linejoin="round" stroke-width="3"/>
      <circle id="Ellipse_74" data-name="Ellipse 74" cx="34.907" cy="34.907" r="34.907" transform="translate(0 0)" fill="#fff" stroke="#000" stroke-width="3"/>
      <circle id="Ellipse_75" data-name="Ellipse 75" cx="26.347" cy="26.347" r="26.347" transform="translate(8.559 8.559)" fill="#fff" stroke="#000" stroke-width="3"/>
      <rect id="Rectangle_155" data-name="Rectangle 155" width="13.82" height="62.056" transform="translate(60.91 70.559) rotate(-45)" fill="#fff" stroke="#000" stroke-linecap="round" stroke-linejoin="round" stroke-width="3"/>
      <rect id="Rectangle_156" data-name="Rectangle 156" width="13.82" height="14.979" transform="translate(94.209 103.812) rotate(-45)" fill="#009dff" stroke="#000" stroke-linecap="round" stroke-linejoin="round" stroke-width="3"/>
    </g>
    <g id="Group_99" data-name="Group 99" transform="translate(165.145 111.801)">
      <g id="Group_98" data-name="Group 98" transform="translate(0 0)" clip-path="url(#clip-path)">
        <path id="Icon_feather-thumbs-up_1_" d="M282.836,183.785v-7.579a5.717,5.717,0,0,0-5.706-5.706l-7.579,17.074v20.864h21.4a3.8,3.8,0,0,0,3.789-3.21l2.63-17.074a3.813,3.813,0,0,0-3.165-4.324,2.944,2.944,0,0,0-.624-.045ZM269.6,208.438h-5.706a3.786,3.786,0,0,1-3.789-3.789V191.364a3.786,3.786,0,0,1,3.789-3.789H269.6" transform="translate(-262.24 -178.747)" fill="#009dff" stroke="#000" stroke-linecap="round" stroke-linejoin="round" stroke-width="3"/>
      </g>
    </g>
    <circle id="Ellipse_77" data-name="Ellipse 77" cx="26.347" cy="26.347" r="26.347" transform="translate(165.145 111.801)" fill="none" stroke="#000" stroke-width="3"/>
  </g>
</svg>
