<?xml version="1.0" encoding="utf-8"?>
<!-- Generator: Adobe Illustrator 25.2.1, SVG Export Plug-In . SVG Version: 6.00 Build 0)  -->
<svg version="1.1" xmlns="http://www.w3.org/2000/svg" xmlns:xlink="http://www.w3.org/1999/xlink" x="0px" y="0px"
	 viewBox="0 0 600.9 547.7" style="enable-background:new 0 0 600.9 547.7;" xml:space="preserve">
<style type="text/css">
	.st0{clip-path:url(#SVGID_2_);}
	.st1{fill:none;stroke:#009DFF;stroke-miterlimit:10;}
	.st2{fill:none;stroke:#979797;stroke-width:3;stroke-miterlimit:10;}
	.st3{fill:#FFFFFF;}
	.st4{fill:#009DFF;}
	.st5{clip-path:url(#SVGID_4_);}
	.st6{fill:none;stroke:#4599F8;stroke-miterlimit:10;}
	.st7{clip-path:url(#SVGID_6_);}
	.st8{clip-path:url(#SVGID_10_);fill:#009DFF;}
	.st9{fill:none;stroke:#979797;stroke-miterlimit:10;}
	.st10{fill:#F2F2F2;}
	.st11{clip-path:url(#SVGID_12_);fill:none;stroke:#0A4C86;stroke-width:5;stroke-miterlimit:10;}
	.st12{fill:#0A4C86;}
	.st13{clip-path:url(#SVGID_14_);fill:none;stroke:#FFFFFF;stroke-width:5;stroke-miterlimit:10;}
	.st14{fill:none;stroke:#111B1E;stroke-width:3;stroke-miterlimit:10;}
	.st15{fill:#979797;}
	.st16{clip-path:url(#Rectangle_2_1_);}
	.st17{fill:none;}
	.st18{fill:#E6E6E6;}
	.st19{fill:url(#);}
	.st20{fill:#FFFFFF;stroke:#000000;stroke-width:5;stroke-miterlimit:10;}
	.st21{fill:none;stroke:#000000;stroke-width:5;stroke-miterlimit:10;}
	.st22{fill:#FFFFFF;stroke:#000000;stroke-width:5;stroke-linecap:round;stroke-linejoin:round;stroke-miterlimit:10;}
	.st23{fill:#009DFF;stroke:#000000;stroke-width:5;stroke-linecap:round;stroke-linejoin:round;stroke-miterlimit:10;}
	.st24{fill:none;stroke:#000000;stroke-width:5;stroke-linecap:round;stroke-linejoin:round;stroke-miterlimit:10;}
	.st25{fill:#CCCCCC;stroke:#000000;stroke-width:5;stroke-linecap:round;stroke-linejoin:round;stroke-miterlimit:10;}
	.st26{fill:#009DFF;stroke:#000000;stroke-width:5;stroke-miterlimit:10;}
	.st27{fill:none;stroke:#000000;stroke-width:5;stroke-miterlimit:10;stroke-dasharray:9.7056,9.7056;}
	.st28{fill:none;stroke:#000000;stroke-width:5;stroke-miterlimit:10;stroke-dasharray:9.371,9.371;}
	.st29{fill:#CCCCCC;stroke:#000000;stroke-width:5;stroke-miterlimit:10;}
	.st30{fill:#CCCCCC;}
	.st31{fill:none;stroke:#CCCCCC;stroke-width:5;stroke-miterlimit:10;}
	.st32{fill:none;stroke:#009DFF;stroke-width:5;stroke-miterlimit:10;}
	.st33{fill:#009DFF;stroke:#000000;stroke-width:3;stroke-linecap:round;stroke-linejoin:round;}
	.st34{fill:none;stroke:#000000;stroke-width:5;}
	.st35{fill:#CCCCCC;stroke:#000000;stroke-width:5;stroke-linecap:round;stroke-linejoin:round;}
	.st36{fill:#FFFFFF;stroke:#000000;stroke-width:5;}
	.st37{fill:#FFFFFF;stroke:#000000;stroke-width:5;stroke-linecap:round;stroke-linejoin:round;}
	.st38{fill:#009DFF;stroke:#000000;stroke-width:5;stroke-linecap:round;stroke-linejoin:round;}
	.st39{clip-path:url(#SVGID_16_);fill:#009DFF;stroke:#000000;stroke-width:3;stroke-linecap:round;stroke-linejoin:round;}
	.st40{clip-path:url(#SVGID_18_);fill:#009DFF;stroke:#000000;stroke-width:3;stroke-linecap:round;stroke-linejoin:round;}
	.st41{fill:#009DFF;stroke:#000000;stroke-width:5;}
	.st42{fill:none;stroke:#FFFFFF;stroke-width:5;}
	.st43{fill:#4599F8;}
</style>
<g id="Layer_1">
</g>
<g id="Layer_2">
</g>
<g id="Layer_3">
	<g>
		<polygon class="st1" points="46.1,299.8 265.5,504 498,241.7 		"/>
		<circle class="st4" cx="46.1" cy="299.8" r="8"/>
		<circle class="st4" cx="265.5" cy="504" r="16"/>
		<circle class="st4" cx="498" cy="241.7" r="8"/>
	</g>
	<g>
		<polygon class="st9" points="77.5,144.3 390.5,34.5 327.2,433.2 		"/>
		<circle class="st15" cx="77.5" cy="144.3" r="8"/>
		<circle class="st15" cx="390.5" cy="34.5" r="16"/>
	</g>
	<g>
		<rect x="175.8" y="96.3" class="st22" width="221.6" height="366.2"/>
		<line class="st24" x1="110.4" y1="462.8" x2="462.8" y2="462.8"/>
		<rect x="175.8" y="148.7" class="st22" width="52.8" height="58.7"/>
		<rect x="228.6" y="148.7" class="st25" width="52.8" height="58.7"/>
		<rect x="281.3" y="148.7" class="st22" width="52.8" height="58.7"/>
		<rect x="239.1" y="250.2" class="st22" width="52.8" height="58.7"/>
		<rect x="291.9" y="250.2" class="st23" width="52.8" height="58.7"/>
		<rect x="291.9" y="357.9" class="st22" width="52.8" height="58.7"/>
		<rect x="344.7" y="357.9" class="st25" width="52.8" height="58.7"/>
		<rect x="344.7" y="250.2" class="st22" width="52.8" height="58.7"/>
		<rect x="164.1" y="82" class="st25" width="245.1" height="14.3"/>
		<rect x="202.2" y="357.9" class="st23" width="63.3" height="103.2"/>
	</g>
	<polyline class="st22" points="462.8,268.2 318.3,273.8 375.7,416 	"/>
	<circle class="st25" cx="462.8" cy="367.7" r="99.6"/>
	<g>
		<path class="st22" d="M490.1,309.9h-54.5c-13.6,0-24.7,11-24.7,24.7v36h103.9v-36C514.8,320.9,503.8,309.9,490.1,309.9z"/>
		<rect x="410.5" y="367.8" class="st22" width="19.2" height="57.8"/>
		<rect x="495.6" y="367.8" class="st22" width="19.2" height="57.8"/>
		<rect x="429.7" y="370.5" class="st23" width="65.9" height="37.9"/>
		<rect x="429.7" y="408.5" class="st25" width="65.9" height="17.1"/>
		<rect x="405.9" y="358.7" class="st22" width="28.9" height="18.2"/>
		<rect x="490.8" y="358.7" class="st22" width="28.9" height="18.2"/>
	</g>
	<polygon class="st23" points="416.9,82.4 255,178.1 438,221.3 	"/>
	<circle class="st22" cx="462.9" cy="146.5" r="78.8"/>
	<g>
		<rect x="416.9" y="110.6" class="st22" width="92" height="12.4"/>
		<rect x="488.6" y="123" class="st25" width="9.4" height="59.3"/>
		<rect x="428.6" y="123" class="st25" width="9.4" height="59.3"/>
	</g>
	<g>
		<path class="st36" d="M219.5,342.7H95.4c-5.5,0-10-4.5-10-10v-48.8c0-5.5,4.5-10,10-10h69.7l28.6-20.9l-0.5,20.9h26.3
			c5.5,0,10,4.5,10,10v48.8C229.5,338.3,225,342.7,219.5,342.7z"/>
		<line class="st34" x1="103.8" y1="295" x2="210.8" y2="295"/>
		<line class="st34" x1="103.8" y1="307.4" x2="210.8" y2="307.4"/>
		<line class="st34" x1="103.8" y1="319.9" x2="210.8" y2="319.9"/>
	</g>
	<g>
		<path class="st41" d="M154.1,169.7H30c-5.5,0-10,4.5-10,10v48.8c0,5.5,4.5,10,10,10h69.7l28.6,20.9l-0.5-20.9h26.3
			c5.5,0,10-4.5,10-10v-48.8C164.1,174.2,159.6,169.7,154.1,169.7z"/>
		<line class="st42" x1="38.4" y1="217.5" x2="145.4" y2="217.5"/>
		<line class="st42" x1="38.4" y1="205" x2="145.4" y2="205"/>
		<line class="st42" x1="38.4" y1="192.6" x2="145.4" y2="192.6"/>
	</g>
</g>
</svg>
