<svg xmlns="http://www.w3.org/2000/svg" width="32" height="32" viewBox="0 0 32 32">
  <path id="Icon_metro-cross" data-name="Icon metro-cross" d="M34.279,27.636h0l-9.708-9.708L34.279,8.22h0a1,1,0,0,0,0-1.414L29.693,2.22a1,1,0,0,0-1.414,0h0l-9.708,9.708L8.863,2.22h0a1,1,0,0,0-1.414,0L2.863,6.806a1,1,0,0,0,0,1.414h0l9.708,9.708L2.863,27.636h0a1,1,0,0,0,0,1.414l4.586,4.586a1,1,0,0,0,1.414,0h0l9.708-9.708,9.708,9.708h0a1,1,0,0,0,1.414,0l4.586-4.586a1,1,0,0,0,0-1.414Z" transform="translate(-2.571 -1.928)" fill="#979797"/>
</svg>
