<svg xmlns="http://www.w3.org/2000/svg" width="799" height="830" viewBox="0 0 799 830">
  <g id="main_graphic" data-name="main graphic" transform="translate(-1009 -168)">
    <g id="Group_103" data-name="Group 103">
      <path id="Path_144" data-name="Path 144" d="M20493.375-4718.5l-162.727,201.925,571.279,95.213Z" transform="translate(-19236 5195)" fill="none" stroke="#cfcfcf" stroke-width="1"/>
      <circle id="Ellipse_14" data-name="Ellipse 14" cx="8" cy="8" r="8" transform="translate(1249 469)" fill="#cfcfcf"/>
      <circle id="Ellipse_15" data-name="Ellipse 15" cx="8" cy="8" r="8" transform="translate(1658 766)" fill="#cfcfcf"/>
      <circle id="Ellipse_16" data-name="Ellipse 16" cx="16" cy="16" r="16" transform="translate(1083 662)" fill="#cfcfcf"/>
    </g>
    <g id="Group_104" data-name="Group 104">
      <path id="Path_143" data-name="Path 143" d="M20251-4403l547.059,159.947,228.512-266.6Z" transform="translate(-19236 5195)" fill="none" stroke="#cfcfcf" stroke-width="1"/>
      <circle id="Ellipse_17" data-name="Ellipse 17" cx="16" cy="16" r="16" transform="translate(1776 672)" fill="#cfcfcf"/>
      <circle id="Ellipse_18" data-name="Ellipse 18" cx="16" cy="16" r="16" transform="translate(1546 934)" fill="#cfcfcf"/>
      <circle id="Ellipse_19" data-name="Ellipse 19" cx="8" cy="8" r="8" transform="translate(1009 784)" fill="#cfcfcf"/>
    </g>
    <g id="Group_102" data-name="Group 102">
      <path id="Path_142" data-name="Path 142" d="M20326-4913.009l368.189,708.041,309.877-815.373Z" transform="translate(-19236 5195)" fill="none" stroke="#cfcfcf" stroke-width="1"/>
      <circle id="Ellipse_5" data-name="Ellipse 5" cx="8" cy="8" r="8" transform="translate(1082 274)" fill="#cfcfcf"/>
      <circle id="Ellipse_6" data-name="Ellipse 6" cx="8" cy="8" r="8" transform="translate(1760 168)" fill="#cfcfcf"/>
      <circle id="Ellipse_7" data-name="Ellipse 7" cx="8" cy="8" r="8" transform="translate(1450 982)" fill="#cfcfcf"/>
    </g>
    <g id="Group_100" data-name="Group 100">
      <path id="Path_145" data-name="Path 145" d="M20901.928-4933.783,20266.6-4230.935l649.182-334.112Z" transform="translate(-19236 5195)" fill="none" stroke="#009dff" stroke-width="1"/>
      <circle id="Ellipse_11" data-name="Ellipse 11" cx="16" cy="16" r="16" transform="translate(1648 254)" fill="#009dff"/>
      <circle id="Ellipse_12" data-name="Ellipse 12" cx="8" cy="8" r="8" transform="translate(1024 955)" fill="#009dff"/>
      <circle id="Ellipse_13" data-name="Ellipse 13" cx="8" cy="8" r="8" transform="translate(1672 621)" fill="#009dff"/>
    </g>
    <g id="Group_101" data-name="Group 101">
      <path id="Path_141" data-name="Path 141" d="M20491.645-4888.773l-143.686,296.027,656.107-53.666Z" transform="translate(-19236 5195)" fill="none" stroke="#009dff" stroke-width="1"/>
      <circle id="Ellipse_9" data-name="Ellipse 9" cx="8" cy="8" r="8" transform="translate(1104 594)" fill="#009dff"/>
      <circle id="Ellipse_10" data-name="Ellipse 10" cx="8" cy="8" r="8" transform="translate(1760 540)" fill="#009dff"/>
      <circle id="Ellipse_8" data-name="Ellipse 8" cx="16" cy="16" r="16" transform="translate(1243 294)" fill="#009dff"/>
    </g>
  </g>
</svg>
