<?xml version="1.0" encoding="utf-8"?>
<!-- Generator: Adobe Illustrator 25.2.1, SVG Export Plug-In . SVG Version: 6.00 Build 0)  -->
<svg version="1.1" xmlns="http://www.w3.org/2000/svg" xmlns:xlink="http://www.w3.org/1999/xlink" x="0px" y="0px"
	 viewBox="0 0 600.9 547.7" style="enable-background:new 0 0 600.9 547.7;" xml:space="preserve">
<style type="text/css">
	.st0{clip-path:url(#SVGID_2_);}
	.st1{fill:none;stroke:#009DFF;stroke-miterlimit:10;}
	.st2{fill:none;stroke:#979797;stroke-width:3;stroke-miterlimit:10;}
	.st3{fill:#FFFFFF;}
	.st4{fill:#009DFF;}
	.st5{clip-path:url(#SVGID_4_);}
	.st6{fill:none;stroke:#4599F8;stroke-miterlimit:10;}
	.st7{clip-path:url(#SVGID_6_);}
	.st8{clip-path:url(#SVGID_10_);fill:#009DFF;}
	.st9{fill:none;stroke:#979797;stroke-miterlimit:10;}
	.st10{fill:#F2F2F2;}
	.st11{clip-path:url(#SVGID_12_);fill:none;stroke:#0A4C86;stroke-width:5;stroke-miterlimit:10;}
	.st12{fill:#0A4C86;}
	.st13{clip-path:url(#SVGID_14_);fill:none;stroke:#FFFFFF;stroke-width:5;stroke-miterlimit:10;}
	.st14{fill:none;stroke:#111B1E;stroke-width:3;stroke-miterlimit:10;}
	.st15{clip-path:url(#Rectangle_2_1_);}
	.st16{fill:none;}
	.st17{fill:#E6E6E6;}
	.st18{fill:url(#);}
	.st19{fill:#FFFFFF;stroke:#000000;stroke-width:5;stroke-miterlimit:10;}
	.st20{fill:none;stroke:#000000;stroke-width:5;stroke-miterlimit:10;}
	.st21{fill:#FFFFFF;stroke:#000000;stroke-width:5;stroke-linecap:round;stroke-linejoin:round;stroke-miterlimit:10;}
	.st22{fill:#009DFF;stroke:#000000;stroke-width:5;stroke-linecap:round;stroke-linejoin:round;stroke-miterlimit:10;}
	.st23{fill:none;stroke:#000000;stroke-width:5;stroke-linecap:round;stroke-linejoin:round;stroke-miterlimit:10;}
	.st24{fill:#CCCCCC;stroke:#000000;stroke-width:5;stroke-linecap:round;stroke-linejoin:round;stroke-miterlimit:10;}
	.st25{fill:#009DFF;stroke:#000000;stroke-width:5;stroke-miterlimit:10;}
	.st26{fill:none;stroke:#000000;stroke-width:5;stroke-miterlimit:10;stroke-dasharray:9.7056,9.7056;}
	.st27{fill:none;stroke:#000000;stroke-width:5;stroke-miterlimit:10;stroke-dasharray:9.371,9.371;}
</style>
<g id="Layer_1">
</g>
<g id="Layer_2">
</g>
<g id="Layer_3">
	<rect x="60.1" y="57.4" class="st21" width="441.2" height="362.3"/>
	<rect x="94.9" y="147.8" class="st16" width="53.1" height="58.8"/>
	<rect x="148" y="147.8" class="st21" width="53.1" height="58.8"/>
	<rect x="201" y="147.8" class="st21" width="53.1" height="58.8"/>
	<rect x="254.1" y="147.8" class="st21" width="53.1" height="58.8"/>
	<rect x="307.2" y="147.8" class="st21" width="53.1" height="58.8"/>
	<rect x="360.3" y="147.8" class="st24" width="53.1" height="58.8"/>
	<rect x="413.3" y="147.8" class="st24" width="53.1" height="58.8"/>
	<rect x="94.9" y="206.6" class="st21" width="53.1" height="58.8"/>
	<rect x="148" y="206.6" class="st22" width="53.1" height="58.8"/>
	<rect x="201" y="206.6" class="st21" width="53.1" height="58.8"/>
	<rect x="254.1" y="206.6" class="st21" width="53.1" height="58.8"/>
	<rect x="307.2" y="206.6" class="st21" width="53.1" height="58.8"/>
	<rect x="360.3" y="206.6" class="st24" width="53.1" height="58.8"/>
	<rect x="413.3" y="206.6" class="st24" width="53.1" height="58.8"/>
	<rect x="94.9" y="265.4" class="st21" width="53.1" height="58.8"/>
	<rect x="148" y="265.4" class="st21" width="53.1" height="58.8"/>
	<rect x="201" y="265.4" class="st21" width="53.1" height="58.8"/>
	<rect x="254.1" y="265.4" class="st21" width="53.1" height="58.8"/>
	<rect x="307.2" y="265.4" class="st21" width="53.1" height="58.8"/>
	<rect x="360.3" y="265.4" class="st24" width="53.1" height="58.8"/>
	<rect x="413.3" y="265.4" class="st24" width="53.1" height="58.8"/>
	<rect x="94.9" y="324.2" class="st21" width="53.1" height="58.8"/>
	<rect x="148" y="324.2" class="st21" width="53.1" height="58.8"/>
	<rect x="201" y="324.2" class="st21" width="53.1" height="58.8"/>
	<rect x="254.1" y="324.2" class="st21" width="53.1" height="58.8"/>
	<rect x="307.2" y="324.2" class="st21" width="53.1" height="58.8"/>
	<rect x="360.3" y="324.2" class="st16" width="53.1" height="58.8"/>
	<rect x="413.3" y="324.2" class="st16" width="53.1" height="58.8"/>
	<rect x="60.1" y="57.4" class="st24" width="441.2" height="56.7"/>
	<rect x="94.9" y="35.2" class="st21" width="34.1" height="46"/>
	<rect x="263.6" y="35.2" class="st21" width="34.1" height="46"/>
	<rect x="432.3" y="35.2" class="st21" width="34.1" height="46"/>
	<g>
		<path class="st19" d="M431.6,394.6c0,0,14-8.6,30.6-8.6c16.6,0,35.5,14.9,35.5,14.9l11-5.4l29.2,58.1c0,0-80.6,49.5-89.2,55.8
			c-8.6,6.3-21.4-4.8-17.9-10.4c-10.3,3.9-19.8-3.5-20-11.3c-8.6,6.2-22.2-2.1-20.1-11.4c-15.4,5.4-20.5-11.2-17.5-14.2l3-4.9
			L431.6,394.6z"/>
		<path class="st19" d="M380.9,389.2l23.8,8.4c0,0,21.7-11.7,36.2-11.7s23.9,5.5,28.5,11.7c4,5.3,6.9,15.3,10.5,24.5
			c-4.7,9.7-20.6,6.4-27.4-13.2c-13.5,4.9-49.4,21.9-49.4,21.9l-26.9,26.4l-17-5.1L380.9,389.2z"/>
		
			<rect x="331.3" y="367.7" transform="matrix(0.9249 0.3801 -0.3801 0.9249 184.4129 -103.6571)" class="st25" width="46.7" height="94.8"/>
		
			<rect x="517.3" y="367.7" transform="matrix(0.9007 -0.4344 0.4344 0.9007 -126.6644 276.0896)" class="st25" width="46.7" height="94.8"/>
		<line class="st20" x1="390.7" y1="476.3" x2="413.9" y2="453.2"/>
		<line class="st20" x1="410.8" y1="487.8" x2="430" y2="468.6"/>
		<line class="st20" x1="430.8" y1="499.1" x2="443.8" y2="485.4"/>
		<path class="st19" d="M476.1,502.4L476.1,502.4c-3.2,2.3-7.7,1.5-10-1.7l-3.6-5c-2.3-3.2-1.5-7.7,1.7-10l0,0
			c3.2-2.3,7.7-1.5,10,1.7l3.6,5C480,495.6,479.3,500.1,476.1,502.4z"/>
		<path class="st19" d="M490.3,497.8L490.3,497.8c-3.2,2.3-7.7,1.5-10-1.7l-8.9-12.4c-2.3-3.2-1.5-7.7,1.7-10l0,0
			c3.2-2.3,7.7-1.5,10,1.7l8.9,12.4C494.3,491,493.5,495.5,490.3,497.8z"/>
		<path class="st19" d="M502.8,490.1L502.8,490.1c-3.2,2.3-7.7,1.5-10-1.7l-5.8-8.2c-2.3-3.2-1.5-7.7,1.7-10l0,0
			c3.2-2.3,7.7-1.5,10,1.7l5.8,8.2C506.8,483.3,506,487.8,502.8,490.1z"/>
		<path class="st19" d="M512.4,478.8L512.4,478.8c-3.2,2.3-7.7,1.5-10-1.7l-1.6-2.3c-2.3-3.2-1.5-7.7,1.7-10h0
			c3.2-2.3,7.7-1.5,10,1.7l1.6,2.3C516.4,472,515.6,476.5,512.4,478.8z"/>
	</g>
	<g>
		<g>
			<line class="st20" x1="174.5" y1="238.6" x2="174.5" y2="243.6"/>
			<line class="st26" x1="174.5" y1="253.3" x2="174.5" y2="462"/>
			<polyline class="st20" points="174.5,466.8 174.5,471.8 179.5,471.8 			"/>
			<line class="st27" x1="188.9" y1="471.8" x2="315.4" y2="471.8"/>
			<line class="st20" x1="320.1" y1="471.8" x2="325.1" y2="471.8"/>
		</g>
	</g>
</g>
</svg>
