<?xml version="1.0" encoding="utf-8"?>
<!-- Generator: Adobe Illustrator 25.2.1, SVG Export Plug-In . SVG Version: 6.00 Build 0)  -->
<svg version="1.1" xmlns="http://www.w3.org/2000/svg" xmlns:xlink="http://www.w3.org/1999/xlink" x="0px" y="0px"
	 viewBox="0 0 600.9 547.7" style="enable-background:new 0 0 600.9 547.7;" xml:space="preserve">
<style type="text/css">
	.st0{clip-path:url(#SVGID_2_);}
	.st1{fill:none;stroke:#009DFF;stroke-miterlimit:10;}
	.st2{fill:none;stroke:#979797;stroke-width:3;stroke-miterlimit:10;}
	.st3{fill:#FFFFFF;}
	.st4{fill:#009DFF;}
	.st5{clip-path:url(#SVGID_4_);}
	.st6{fill:none;stroke:#4599F8;stroke-miterlimit:10;}
	.st7{clip-path:url(#SVGID_6_);}
	.st8{clip-path:url(#SVGID_10_);fill:#009DFF;}
	.st9{fill:none;stroke:#979797;stroke-miterlimit:10;}
	.st10{fill:#F2F2F2;}
	.st11{clip-path:url(#SVGID_12_);fill:none;stroke:#0A4C86;stroke-width:5;stroke-miterlimit:10;}
	.st12{fill:#0A4C86;}
	.st13{clip-path:url(#SVGID_14_);fill:none;stroke:#FFFFFF;stroke-width:5;stroke-miterlimit:10;}
	.st14{fill:none;stroke:#111B1E;stroke-width:3;stroke-miterlimit:10;}
	.st15{fill:#979797;}
	.st16{clip-path:url(#Rectangle_2_1_);}
	.st17{fill:none;}
	.st18{fill:#E6E6E6;}
	.st19{fill:url(#);}
	.st20{fill:#FFFFFF;stroke:#000000;stroke-width:5;stroke-miterlimit:10;}
	.st21{fill:none;stroke:#000000;stroke-width:5;stroke-miterlimit:10;}
	.st22{fill:#FFFFFF;stroke:#000000;stroke-width:5;stroke-linecap:round;stroke-linejoin:round;stroke-miterlimit:10;}
	.st23{fill:#009DFF;stroke:#000000;stroke-width:5;stroke-linecap:round;stroke-linejoin:round;stroke-miterlimit:10;}
	.st24{fill:none;stroke:#000000;stroke-width:5;stroke-linecap:round;stroke-linejoin:round;stroke-miterlimit:10;}
	.st25{fill:#CCCCCC;stroke:#000000;stroke-width:5;stroke-linecap:round;stroke-linejoin:round;stroke-miterlimit:10;}
	.st26{fill:#009DFF;stroke:#000000;stroke-width:5;stroke-miterlimit:10;}
	.st27{fill:none;stroke:#000000;stroke-width:5;stroke-miterlimit:10;stroke-dasharray:9.7056,9.7056;}
	.st28{fill:none;stroke:#000000;stroke-width:5;stroke-miterlimit:10;stroke-dasharray:9.371,9.371;}
	.st29{fill:#CCCCCC;stroke:#000000;stroke-width:5;stroke-miterlimit:10;}
	.st30{fill:#CCCCCC;}
	.st31{fill:none;stroke:#CCCCCC;stroke-width:5;stroke-miterlimit:10;}
	.st32{fill:none;stroke:#009DFF;stroke-width:5;stroke-miterlimit:10;}
	.st33{fill:#009DFF;stroke:#000000;stroke-width:3;stroke-linecap:round;stroke-linejoin:round;}
	.st34{fill:none;stroke:#000000;stroke-width:5;}
	.st35{fill:#CCCCCC;stroke:#000000;stroke-width:5;stroke-linecap:round;stroke-linejoin:round;}
	.st36{fill:#FFFFFF;stroke:#000000;stroke-width:5;}
	.st37{fill:#FFFFFF;stroke:#000000;stroke-width:5;stroke-linecap:round;stroke-linejoin:round;}
	.st38{fill:#009DFF;stroke:#000000;stroke-width:5;stroke-linecap:round;stroke-linejoin:round;}
	.st39{clip-path:url(#SVGID_16_);fill:#009DFF;stroke:#000000;stroke-width:3;stroke-linecap:round;stroke-linejoin:round;}
	.st40{clip-path:url(#SVGID_18_);fill:#009DFF;stroke:#000000;stroke-width:3;stroke-linecap:round;stroke-linejoin:round;}
	.st41{fill:#009DFF;stroke:#000000;stroke-width:5;}
	.st42{fill:none;stroke:#FFFFFF;stroke-width:5;}
</style>
<g id="Layer_1">
</g>
<g id="Layer_2">
</g>
<g id="Layer_3">
	<g>
		<polygon class="st1" points="139.4,309 470.2,42.9 415.9,484.1 		"/>
		<circle class="st4" cx="470.2" cy="42.9" r="16"/>
		<circle class="st4" cx="416.1" cy="484.1" r="8"/>
	</g>
	<g>
		<polygon class="st9" points="79.8,65.9 547.8,282.7 189.9,493.8 		"/>
		<circle class="st15" cx="79.8" cy="65.9" r="8"/>
		<circle class="st15" cx="547.8" cy="282.7" r="8"/>
		<circle class="st15" cx="189.9" cy="493.8" r="16"/>
	</g>
	<rect x="79.8" y="424.3" class="st20" width="441.2" height="20.4"/>
	<rect x="104.9" y="147.2" class="st29" width="391.1" height="277.1"/>
	<rect x="123.9" y="167.1" class="st3" width="353.1" height="237.4"/>
	<rect x="269.5" y="427.1" class="st30" width="61.8" height="7.4"/>
	<g>
		<g>
			<rect x="161.2" y="98.2" class="st20" width="219.6" height="179.7"/>
			<rect x="161.2" y="98.2" class="st29" width="219.6" height="38.3"/>
			<circle class="st3" cx="184" cy="117.4" r="7.5"/>
			<circle class="st3" cx="205.4" cy="117.4" r="7.5"/>
			<circle class="st3" cx="226.9" cy="117.4" r="7.5"/>
		</g>
		<g>
			<rect x="191.5" y="157.4" class="st4" width="54.5" height="96.7"/>
			<g>
				<rect x="201.3" y="169.7" class="st3" width="14.6" height="14.6"/>
				<rect x="221.5" y="169.7" class="st3" width="14.6" height="14.6"/>
			</g>
			<g>
				<rect x="201.3" y="189.6" class="st3" width="14.6" height="14.6"/>
				<rect x="221.5" y="189.6" class="st3" width="14.6" height="14.6"/>
			</g>
			<g>
				<rect x="201.3" y="209.5" class="st3" width="14.6" height="14.6"/>
				<rect x="221.5" y="209.5" class="st3" width="14.6" height="14.6"/>
			</g>
			<g>
				<rect x="201.3" y="229.4" class="st3" width="14.6" height="14.6"/>
				<rect x="221.5" y="229.4" class="st3" width="14.6" height="14.6"/>
			</g>
			<line class="st32" x1="182.6" y1="254.1" x2="254.8" y2="254.1"/>
		</g>
		<path id="Icon_feather-thumbs-up_6_" class="st33" d="M320.4,222.2v-8.7c0-3.6-2.9-6.5-6.5-6.5l-8.7,19.5v23.9h24.5
			c2.2,0,4-1.6,4.3-3.7l3-19.5c0.4-2.4-1.3-4.6-3.6-4.9c-0.2,0-0.5-0.1-0.7,0H320.4z M305.2,250.4h-6.5c-2.4,0-4.3-1.9-4.3-4.3
			v-15.2c0-2.4,1.9-4.3,4.3-4.3h6.5"/>
		<line class="st34" x1="276.2" y1="160.2" x2="355.2" y2="160.2"/>
		<line class="st34" x1="276.2" y1="174.9" x2="355.2" y2="174.9"/>
		<line class="st34" x1="276.2" y1="189.6" x2="355.2" y2="189.6"/>
	</g>
	<g>
		<g>
			<rect x="189.9" y="156.8" class="st20" width="219.6" height="240"/>
			<rect x="189.9" y="156.8" class="st26" width="219.6" height="38.3"/>
			<circle class="st3" cx="212.7" cy="176" r="7.5"/>
			<circle class="st3" cx="234.2" cy="176" r="7.5"/>
			<circle class="st3" cx="255.6" cy="176" r="7.5"/>
		</g>
		<g>
			<rect x="220.2" y="216" class="st4" width="54.5" height="96.7"/>
			<g>
				<rect x="230" y="228.3" class="st3" width="14.6" height="14.6"/>
				<rect x="250.3" y="228.3" class="st3" width="14.6" height="14.6"/>
			</g>
			<g>
				<rect x="230" y="248.2" class="st3" width="14.6" height="14.6"/>
				<rect x="250.3" y="248.2" class="st3" width="14.6" height="14.6"/>
			</g>
			<g>
				<rect x="230" y="268.1" class="st3" width="14.6" height="14.6"/>
				<rect x="250.3" y="268.1" class="st3" width="14.6" height="14.6"/>
			</g>
			<g>
				<rect x="230" y="288" class="st3" width="14.6" height="14.6"/>
				<rect x="250.3" y="288" class="st3" width="14.6" height="14.6"/>
			</g>
			<line class="st32" x1="211.4" y1="312.7" x2="283.6" y2="312.7"/>
		</g>
		<path id="Icon_feather-thumbs-up_7_" class="st33" d="M349.2,280.8v-8.7c0-3.6-2.9-6.5-6.5-6.5l-8.7,19.5V309h24.5
			c2.2,0,4-1.6,4.3-3.7l3-19.5c0.4-2.4-1.3-4.6-3.6-4.9c-0.2,0-0.5-0.1-0.7,0H349.2z M334,309h-6.5c-2.4,0-4.3-1.9-4.3-4.3v-15.2
			c0-2.4,1.9-4.3,4.3-4.3h6.5"/>
		<line class="st34" x1="305" y1="218.8" x2="384" y2="218.8"/>
		<line class="st34" x1="305" y1="233.5" x2="384" y2="233.5"/>
		<line class="st34" x1="305" y1="248.2" x2="384" y2="248.2"/>
		<rect x="211.4" y="328.9" class="st30" width="72.2" height="49.5"/>
		<rect x="305" y="328.9" class="st30" width="49.5" height="49.5"/>
		<rect x="359" y="328.9" class="st30" width="25" height="49.5"/>
	</g>
	<g>
		
			<rect x="446.8" y="395.3" transform="matrix(0.7071 -0.7071 0.7071 0.7071 -155.5149 439.313)" class="st35" width="11.5" height="24.1"/>
		<circle class="st36" cx="391.9" cy="346.7" r="78.3"/>
		<circle class="st36" cx="391.9" cy="346.7" r="59.1"/>
		
			<rect x="494.9" y="395.4" transform="matrix(0.7071 -0.7071 0.7071 0.7071 -179.2643 497.1084)" class="st37" width="31" height="139.2"/>
		
			<rect x="532.3" y="485.5" transform="matrix(0.7071 -0.7071 0.7071 0.7071 -194.7259 534.4359)" class="st38" width="31" height="33.6"/>
	</g>
	<g>
		<defs>
			<circle id="SVGID_17_" cx="391.9" cy="346.7" r="59.1"/>
		</defs>
		<clipPath id="SVGID_2_">
			<use xlink:href="#SVGID_17_"  style="overflow:visible;"/>
		</clipPath>
		
			<path id="Icon_feather-thumbs-up_2_" style="clip-path:url(#SVGID_2_);fill:#009DFF;stroke:#000000;stroke-width:3;stroke-linecap:round;stroke-linejoin:round;" d="
			M379,299v-17c0-7-5.7-12.8-12.8-12.8l-17,38.3v46.8h48c4.2,0,7.9-3,8.5-7.2l5.9-38.3c0.7-4.6-2.5-9-7.1-9.7
			c-0.5-0.1-0.9-0.1-1.4-0.1H379z M349.3,354.3h-12.8c-4.7,0-8.5-3.8-8.5-8.5V316c0-4.7,3.8-8.5,8.5-8.5h12.8"/>
	</g>
	<circle class="st34" cx="391.9" cy="346.7" r="59.1"/>
	<rect x="423.1" y="174.3" class="st30" width="20.5" height="20.5"/>
	<rect x="449.8" y="174.3" class="st4" width="20.5" height="20.5"/>
	<rect x="449.8" y="201" class="st30" width="20.5" height="20.5"/>
	<g>
		<path class="st36" d="M191.3,407.4H67.2c-5.5,0-10-4.5-10-10v-48.8c0-5.5,4.5-10,10-10h69.7l28.6-20.9l-0.5,20.9h26.3
			c5.5,0,10,4.5,10,10v48.8C201.3,402.9,196.8,407.4,191.3,407.4z"/>
		<line class="st34" x1="75.6" y1="359.6" x2="182.6" y2="359.6"/>
		<line class="st34" x1="75.6" y1="372.1" x2="182.6" y2="372.1"/>
		<line class="st34" x1="75.6" y1="384.5" x2="182.6" y2="384.5"/>
	</g>
	<g>
		<path class="st41" d="M158,210.9H34c-5.5,0-10,4.5-10,10v48.8c0,5.5,4.5,10,10,10h69.7l28.6,20.9l-0.5-20.9H158
			c5.5,0,10-4.5,10-10v-48.8C168,215.4,163.6,210.9,158,210.9z"/>
		<line class="st42" x1="42.4" y1="258.7" x2="149.4" y2="258.7"/>
		<line class="st42" x1="42.4" y1="246.2" x2="149.4" y2="246.2"/>
		<line class="st42" x1="42.4" y1="233.8" x2="149.4" y2="233.8"/>
	</g>
</g>
</svg>
