<?xml version="1.0" encoding="utf-8"?>
<!-- Generator: Adobe Illustrator 25.2.1, SVG Export Plug-In . SVG Version: 6.00 Build 0)  -->
<svg version="1.1" xmlns="http://www.w3.org/2000/svg" xmlns:xlink="http://www.w3.org/1999/xlink" x="0px" y="0px"
	 viewBox="0 0 600.9 547.7" style="enable-background:new 0 0 600.9 547.7;" xml:space="preserve">
<style type="text/css">
	.st0{clip-path:url(#SVGID_2_);}
	.st1{fill:none;stroke:#009DFF;stroke-miterlimit:10;}
	.st2{fill:none;stroke:#979797;stroke-width:3;stroke-miterlimit:10;}
	.st3{fill:#FFFFFF;}
	.st4{fill:#009DFF;}
	.st5{clip-path:url(#SVGID_4_);}
	.st6{fill:none;stroke:#4599F8;stroke-miterlimit:10;}
	.st7{clip-path:url(#SVGID_6_);}
	.st8{clip-path:url(#SVGID_10_);fill:#009DFF;}
	.st9{fill:none;stroke:#979797;stroke-miterlimit:10;}
	.st10{fill:#F2F2F2;}
	.st11{clip-path:url(#SVGID_12_);fill:none;stroke:#0A4C86;stroke-width:5;stroke-miterlimit:10;}
	.st12{fill:#0A4C86;}
	.st13{clip-path:url(#SVGID_14_);fill:none;stroke:#FFFFFF;stroke-width:5;stroke-miterlimit:10;}
	.st14{fill:none;stroke:#111B1E;stroke-width:3;stroke-miterlimit:10;}
	.st15{fill:#979797;}
	.st16{clip-path:url(#Rectangle_2_1_);}
	.st17{fill:none;}
	.st18{fill:#E6E6E6;}
	.st19{fill:url(#);}
	.st20{fill:#FFFFFF;stroke:#000000;stroke-width:5;stroke-miterlimit:10;}
	.st21{fill:none;stroke:#000000;stroke-width:5;stroke-miterlimit:10;}
	.st22{fill:#FFFFFF;stroke:#000000;stroke-width:5;stroke-linecap:round;stroke-linejoin:round;stroke-miterlimit:10;}
	.st23{fill:#009DFF;stroke:#000000;stroke-width:5;stroke-linecap:round;stroke-linejoin:round;stroke-miterlimit:10;}
	.st24{fill:none;stroke:#000000;stroke-width:5;stroke-linecap:round;stroke-linejoin:round;stroke-miterlimit:10;}
	.st25{fill:#CCCCCC;stroke:#000000;stroke-width:5;stroke-linecap:round;stroke-linejoin:round;stroke-miterlimit:10;}
	.st26{fill:#009DFF;stroke:#000000;stroke-width:5;stroke-miterlimit:10;}
	.st27{fill:none;stroke:#000000;stroke-width:5;stroke-miterlimit:10;stroke-dasharray:9.7056,9.7056;}
	.st28{fill:none;stroke:#000000;stroke-width:5;stroke-miterlimit:10;stroke-dasharray:9.371,9.371;}
	.st29{fill:#CCCCCC;stroke:#000000;stroke-width:5;stroke-miterlimit:10;}
	.st30{fill:#CCCCCC;}
	.st31{fill:none;stroke:#CCCCCC;stroke-width:5;stroke-miterlimit:10;}
	.st32{fill:none;stroke:#009DFF;stroke-width:5;stroke-miterlimit:10;}
	.st33{fill:#009DFF;stroke:#000000;stroke-width:3;stroke-linecap:round;stroke-linejoin:round;}
	.st34{fill:none;stroke:#000000;stroke-width:5;}
	.st35{fill:#CCCCCC;stroke:#000000;stroke-width:5;stroke-linecap:round;stroke-linejoin:round;}
	.st36{fill:#FFFFFF;stroke:#000000;stroke-width:5;}
	.st37{fill:#FFFFFF;stroke:#000000;stroke-width:5;stroke-linecap:round;stroke-linejoin:round;}
	.st38{fill:#009DFF;stroke:#000000;stroke-width:5;stroke-linecap:round;stroke-linejoin:round;}
	.st39{clip-path:url(#SVGID_16_);fill:#009DFF;stroke:#000000;stroke-width:3;stroke-linecap:round;stroke-linejoin:round;}
	.st40{clip-path:url(#SVGID_18_);fill:#009DFF;stroke:#000000;stroke-width:3;stroke-linecap:round;stroke-linejoin:round;}
	.st41{fill:#009DFF;stroke:#000000;stroke-width:5;}
	.st42{fill:none;stroke:#FFFFFF;stroke-width:5;}
	.st43{fill:#4599F8;}
</style>
<g id="Layer_1">
</g>
<g id="Layer_2">
</g>
<g id="Layer_3">
	<g>
		<polygon class="st1" points="200.1,26.9 481.5,73.9 31.4,346.5 		"/>
		<circle class="st4" cx="200.1" cy="26.9" r="8"/>
		<circle class="st4" cx="31.4" cy="346.5" r="8"/>
		<circle class="st4" cx="481.5" cy="73.8" r="16"/>
	</g>
	<g>
		<polygon class="st9" points="47.4,81.8 295.2,508.4 568.9,188.1 		"/>
		<circle class="st15" cx="47.4" cy="81.8" r="16"/>
		<circle class="st15" cx="568.9" cy="187.7" r="8"/>
		<circle class="st15" cx="295.2" cy="508.4" r="8"/>
	</g>
	<g>
		<rect x="104.5" y="101.5" class="st20" width="414.3" height="363.5"/>
		<rect x="104.5" y="101.5" class="st29" width="414.3" height="37.4"/>
		<circle class="st3" cx="126.7" cy="120.2" r="7"/>
		<circle class="st3" cx="146.6" cy="120.2" r="7"/>
		<circle class="st3" cx="166.6" cy="120.2" r="7"/>
		<g>
			<polyline class="st21" points="437.2,159.1 451,159.1 457.6,177.6 482.3,177.6 489,159.1 			"/>
			<circle cx="463.1" cy="187.7" r="3.7"/>
			<circle cx="477.8" cy="187.7" r="3.7"/>
		</g>
		<rect x="125" y="159.1" class="st21" width="298.7" height="28.6"/>
		<rect x="125" y="213.8" class="st43" width="132.6" height="132.6"/>
		<rect x="270.2" y="213.8" class="st30" width="37" height="37"/>
		<rect x="270.2" y="261.6" class="st30" width="37" height="37"/>
		<rect x="270.2" y="309.4" class="st30" width="37" height="37"/>
		<line class="st21" x1="334.5" y1="227.5" x2="489" y2="227.5"/>
		<line class="st21" x1="334.5" y1="245.4" x2="489" y2="245.4"/>
		<line class="st21" x1="334.5" y1="263.3" x2="489" y2="263.3"/>
		<line class="st21" x1="334.5" y1="281.2" x2="489" y2="281.2"/>
		<line class="st21" x1="334.5" y1="299" x2="489" y2="299"/>
		<line class="st21" x1="334.5" y1="316.9" x2="489" y2="316.9"/>
		<line class="st21" x1="334.5" y1="334.8" x2="489" y2="334.8"/>
	</g>
	<g>
		<path class="st36" d="M190.1,441.6H66c-5.5,0-10-4.5-10-10v-48.8c0-5.5,4.5-10,10-10h69.7l28.6-20.9l-0.5,20.9h26.3
			c5.5,0,10,4.5,10,10v48.8C200.1,437.2,195.6,441.6,190.1,441.6z"/>
		<line class="st34" x1="74.4" y1="393.9" x2="181.4" y2="393.9"/>
		<line class="st34" x1="74.4" y1="406.3" x2="181.4" y2="406.3"/>
		<line class="st34" x1="74.4" y1="418.8" x2="181.4" y2="418.8"/>
	</g>
	<g>
		<path class="st41" d="M179.5,410.5h124.1c5.5,0,10,4.5,10,10v48.8c0,5.5-4.5,10-10,10h-69.7l-28.6,20.9l0.5-20.9h-26.3
			c-5.5,0-10-4.5-10-10v-48.8C169.5,415,174,410.5,179.5,410.5z"/>
		<line class="st42" x1="295.2" y1="458.3" x2="188.1" y2="458.3"/>
		<line class="st42" x1="295.2" y1="445.9" x2="188.1" y2="445.9"/>
		<line class="st42" x1="295.2" y1="433.4" x2="188.1" y2="433.4"/>
	</g>
	<g>
		<path class="st22" d="M539.4,508.4H423.6c-5.5,0-10-4.5-10-10V248.4c0-5.5,4.5-10,10-10h115.8c5.5,0,10,4.5,10,10v249.9
			C549.4,503.9,545,508.4,539.4,508.4z"/>
		<path class="st29" d="M549.4,270.8H413.6v-22.3c0-5.5,4.5-10,10-10h115.8c5.5,0,10,4.5,10,10V270.8z"/>
		<path class="st29" d="M413.6,476h135.8v22.3c0,5.5-4.5,10-10,10H423.6c-5.5,0-10-4.5-10-10V476z"/>
		<circle class="st3" cx="481.5" cy="492.2" r="10"/>
		<path class="st3" d="M498.5,258.1h-33.9c-1.7,0-3.1-1.4-3.1-3.1v-0.3c0-1.7,1.4-3.1,3.1-3.1h33.9c1.7,0,3.1,1.4,3.1,3.1v0.3
			C501.6,256.7,500.2,258.1,498.5,258.1z"/>
		<rect x="429.4" y="285.3" class="st4" width="84" height="54.3"/>
		<line class="st31" x1="429.4" y1="353.5" x2="533.7" y2="353.5"/>
		<line class="st31" x1="429.4" y1="363.7" x2="533.7" y2="363.7"/>
		<line class="st31" x1="429.4" y1="373.9" x2="533.7" y2="373.9"/>
		<line class="st31" x1="429.4" y1="384" x2="533.7" y2="384"/>
		<rect x="519.3" y="286.1" class="st4" width="14.4" height="14.4"/>
		<rect x="519.3" y="325.2" class="st4" width="14.4" height="14.4"/>
		<rect x="519.3" y="305.6" class="st4" width="14.4" height="14.4"/>
	</g>
</g>
</svg>
