<svg xmlns="http://www.w3.org/2000/svg" xmlns:xlink="http://www.w3.org/1999/xlink" width="1920" height="330" viewBox="0 0 1920 330">
  <defs>
    <clipPath id="clip-path">
      <rect id="Rectangle_2" data-name="Rectangle 2" width="1920" height="330" transform="translate(-1864.851 -558.691)" fill="none"/>
    </clipPath>
  </defs>
  <g id="wave_cta_pad" transform="translate(1864.851 558.691)">
    <g id="Group_8" data-name="Group 8" clip-path="url(#clip-path)">
      <g id="Group_7" data-name="Group 7" transform="translate(-837.448 -875) rotate(180)">
        <path id="Path_72" data-name="Path 72" d="M-2584.422-659.138c0-359.985,129.273-682.607,566.379-682.607s155.234,445.277,669.958,445.277,939.574-694.468,1405.276-694.468S-200.17-614.6,404.426-614.6s1446.127-477.957,1446.127-477.957" fill="none" stroke="#e6e6e6" stroke-miterlimit="10" stroke-width="1"/>
        <path id="Path_73" data-name="Path 73" d="M-2585.992-641.752c3.747-354.53,131.909-670.009,563.846-668.6,213.553.639,254.051,108.358,302.358,216.782,49.224,110.815,105.893,222.159,362.948,221.164,509.037-2.537,929.257-690.986,1392.616-690.986,465.207,0-242.879,969.78,360.665,969.78S1836.5-1073.551,1836.5-1073.551" fill="none" stroke="#e6e6e6" stroke-miterlimit="10" stroke-width="1"/>
        <path id="Path_74" data-name="Path 74" d="M-2587.561-624.365c7.493-349.076,134.544-657.412,561.311-654.6,210.938,1.278,251.608,107.811,300.428,214.567,49.6,109.11,106.286,218.038,360.227,216.047,503.35-5.074,918.94-687.5,1379.955-687.5,464.712,0-228.4,963.218,374.1,963.218s1434-481.918,1434-481.918" fill="none" stroke="#e6e6e6" stroke-miterlimit="10" stroke-width="1"/>
        <path id="Path_75" data-name="Path 75" d="M-2589.13-606.978c11.239-343.622,137.179-644.815,558.776-640.591,208.322,1.916,249.166,107.264,298.5,212.352,49.976,107.405,106.679,213.916,357.507,210.931,497.662-7.611,908.622-684.02,1367.293-684.02,464.217,0-213.911,956.658,387.528,956.658s1427.93-483.9,1427.93-483.9" fill="none" stroke="#e6e6e6" stroke-miterlimit="10" stroke-width="1"/>
        <path id="Path_76" data-name="Path 76" d="M-2590.7-589.592c14.986-338.167,139.814-632.217,556.242-626.585,205.706,2.555,246.959,106.6,296.568,210.137,50.592,105.585,107.081,210.36,354.786,205.815,492-9.027,898.3-680.537,1354.632-680.537,463.722,0-199.427,950.1,400.959,950.1s1421.865-485.88,1421.865-485.88" fill="none" stroke="#e6e6e6" stroke-miterlimit="10" stroke-width="1"/>
        <path id="Path_77" data-name="Path 77" d="M-2592.269-572.205c18.732-332.713,142.449-619.62,553.707-612.581,203.091,3.2,244.572,106.027,294.638,207.923,51.025,103.85,107.48,206.376,352.065,200.7,486.323-11.289,887.987-677.054,1341.971-677.054,463.226,0-184.944,943.536,414.391,943.536S1780.3-997.544,1780.3-997.544" fill="none" stroke="#e6e6e6" stroke-miterlimit="10" stroke-width="1"/>
        <path id="Path_78" data-name="Path 78" d="M-2593.838-554.818c22.478-327.259,145.084-607.022,551.172-598.576,200.475,3.834,242.185,105.449,292.708,205.708,51.457,102.113,107.88,202.391,349.344,195.582,480.652-13.554,877.67-673.571,1329.31-673.571,462.731,0-170.46,936.975,427.822,936.975S1766.251-978.542,1766.251-978.542" fill="none" stroke="#e6e6e6" stroke-miterlimit="10" stroke-width="1"/>
        <path id="Path_79" data-name="Path 79" d="M-2595.408-537.432c26.226-321.8,147.72-594.424,548.638-584.57,197.859,4.472,239.8,104.87,290.778,203.493,51.887,100.376,108.281,198.4,346.624,190.466,474.982-15.821,867.352-670.089,1316.648-670.089,462.236,0-155.976,930.414,441.254,930.414S1752.2-959.54,1752.2-959.54" fill="none" stroke="#e6e6e6" stroke-miterlimit="10" stroke-width="1"/>
        <path id="Path_80" data-name="Path 80" d="M-2596.977-520.045c29.972-316.35,150.355-581.827,546.1-570.565,195.243,5.111,237.406,104.289,288.848,201.278,52.316,98.638,108.683,194.416,343.9,185.349,469.317-18.09,857.034-666.605,1303.988-666.605,461.74,0-141.494,923.853,454.684,923.853s1397.6-493.8,1397.6-493.8" fill="none" stroke="#e6e6e6" stroke-miterlimit="10" stroke-width="1"/>
        <path id="Path_81" data-name="Path 81" d="M-2598.546-502.658c33.718-310.9,152.99-569.23,543.568-556.56,192.628,5.75,235.014,103.708,286.918,199.063,52.744,96.9,109.087,190.426,341.182,180.233,463.655-20.362,846.717-663.122,1291.327-663.122,461.245,0-127.01,917.292,468.116,917.292S1724.1-921.536,1724.1-921.536" fill="none" stroke="#e6e6e6" stroke-miterlimit="10" stroke-width="1"/>
        <path id="Path_82" data-name="Path 82" d="M-2600.116-485.272c37.465-305.441,155.626-556.632,541.034-542.555,190.012,6.39,232.621,103.127,284.988,196.849,53.17,95.159,109.492,186.434,338.461,175.117,458-22.638,836.4-659.64,1278.666-659.64,460.75,0-112.526,910.731,481.547,910.731S1710.05-902.534,1710.05-902.534" fill="none" stroke="#e6e6e6" stroke-miterlimit="10" stroke-width="1"/>
        <path id="Path_83" data-name="Path 83" d="M-2601.685-467.885c41.211-299.987,158.26-544.035,538.5-528.55,187.4,7.028,230.225,102.544,283.057,194.634,53.594,93.419,109.9,182.441,335.741,170,452.341-24.917,826.082-656.157,1266-656.157,460.255,0-98.043,904.17,494.979,904.17S1696-883.532,1696-883.532" fill="none" stroke="#e6e6e6" stroke-miterlimit="10" stroke-width="1"/>
        <path id="Path_84" data-name="Path 84" d="M-2603.255-450.5c44.958-294.533,160.9-531.438,535.966-514.545,184.779,7.667,227.828,101.96,281.127,192.419,54.016,91.678,110.307,178.445,333.02,164.884,446.689-27.2,815.764-652.674,1253.343-652.674,459.76,0-83.559,897.609,508.41,897.609S1681.95-864.53,1681.95-864.53" fill="none" stroke="#e6e6e6" stroke-miterlimit="10" stroke-width="1"/>
        <path id="Path_85" data-name="Path 85" d="M-2604.824-433.112c48.7-289.078,163.531-518.84,533.431-500.539,182.164,8.306,225.43,101.376,279.2,190.2,54.437,89.936,110.718,174.447,330.3,159.768,441.04-29.483,805.447-649.191,1240.682-649.191,459.265,0-69.075,891.048,521.842,891.048S1667.9-845.528,1667.9-845.528" fill="none" stroke="#e6e6e6" stroke-miterlimit="10" stroke-width="1"/>
        <path id="Path_86" data-name="Path 86" d="M-2606.393-415.725c52.45-283.624,166.125-505.476,530.9-486.534,179.529,9.322,223.03,100.79,277.266,187.989,54.856,88.194,111.129,170.447,327.579,154.652,435.4-31.772,795.13-645.709,1228.021-645.709,458.77,0-54.591,884.488,535.273,884.488S1653.849-826.526,1653.849-826.526" fill="none" stroke="#e6e6e6" stroke-miterlimit="10" stroke-width="1"/>
        <path id="Path_87" data-name="Path 87" d="M-2607.963-398.338c56.2-278.17,168.755-492.828,528.362-472.53,176.91,9.987,220.627,100.2,275.336,185.775,55.272,86.451,111.542,166.444,324.859,149.535,429.753-34.065,784.812-642.225,1215.36-642.225,458.274,0-40.109,877.926,548.7,877.926S1639.8-807.524,1639.8-807.524" fill="none" stroke="#e6e6e6" stroke-miterlimit="10" stroke-width="1"/>
        <path id="Path_88" data-name="Path 88" d="M-2609.532-380.951c59.944-272.716,171.383-480.182,525.827-458.525,174.291,10.65,218.223,99.619,273.406,183.56,55.687,84.707,111.956,162.439,322.138,144.419,424.115-36.362,774.494-638.743,1202.7-638.743,457.779,0-25.625,871.366,562.135,871.366S1625.749-788.522,1625.749-788.522" fill="none" stroke="#e6e6e6" stroke-miterlimit="10" stroke-width="1"/>
        <path id="Path_89" data-name="Path 89" d="M-2611.1-363.565c63.69-267.261,174.01-467.535,523.292-444.519,171.672,11.312,215.817,99.031,271.476,181.345,56.1,82.963,112.372,158.431,319.417,139.3C-1078.435-526.1-732.739-1122.7-306.878-1122.7c457.284,0-11.141,864.8,575.567,864.8S1611.7-769.52,1611.7-769.52" fill="none" stroke="#e6e6e6" stroke-miterlimit="10" stroke-width="1"/>
        <path id="Path_90" data-name="Path 90" d="M-2612.671-346.178c67.437-261.807,176.638-454.889,520.758-430.514,169.052,11.974,213.408,98.444,269.546,179.13,56.508,81.219,112.79,154.421,316.7,134.186,412.851-40.969,753.86-631.777,1177.377-631.777,456.789,0,3.342,858.244,589,858.244S1597.648-750.518,1597.648-750.518" fill="none" stroke="#e6e6e6" stroke-miterlimit="10" stroke-width="1"/>
        <path id="Path_91" data-name="Path 91" d="M-2614.24-328.791c71.183-256.353,179.264-442.245,518.223-416.509,166.432,12.636,211,97.855,267.616,176.915,56.916,79.474,113.209,150.408,313.976,129.07C-1107.2-482.6-770.883-1067.609-349.71-1067.609c456.294,0,17.826,851.683,602.43,851.683S1583.6-731.516,1583.6-731.516" fill="none" stroke="#e6e6e6" stroke-miterlimit="10" stroke-width="1"/>
        <path id="Path_92" data-name="Path 92" d="M-2615.809-311.4c74.929-250.9,181.89-429.6,515.689-402.5,163.811,13.3,208.583,97.268,265.685,174.7,57.32,77.729,113.629,146.391,311.255,123.954,401.6-45.6,733.224-624.812,1152.054-624.812,455.8,0,32.31,845.122,615.861,845.122S1569.547-712.515,1569.547-712.515" fill="none" stroke="#e6e6e6" stroke-miterlimit="10" stroke-width="1"/>
        <path id="Path_93" data-name="Path 93" d="M-2617.379-294.018c78.676-245.444,184.516-416.958,513.155-388.5,161.191,13.959,206.167,96.679,263.755,172.486,57.722,75.984,114.052,142.372,308.534,118.838,395.982-47.918,722.907-621.329,1139.393-621.329,455.3,0,46.793,838.561,629.292,838.561S1555.5-693.513,1555.5-693.513" fill="none" stroke="#e6e6e6" stroke-miterlimit="10" stroke-width="1"/>
        <path id="Path_94" data-name="Path 94" d="M-2618.948-276.631c82.422-239.99,187.14-404.317,510.62-374.494,158.57,14.619,203.748,96.09,261.825,170.271,58.122,74.239,114.476,138.349,305.813,113.721,390.367-50.245,712.59-617.846,1126.733-617.846,454.808,0,61.276,832,642.723,832S1541.447-674.511,1541.447-674.511" fill="none" stroke="#e6e6e6" stroke-miterlimit="10" stroke-width="1"/>
        <path id="Path_95" data-name="Path 95" d="M-2620.518-259.245c86.17-234.535,189.765-391.675,508.086-360.488,155.949,15.279,201.327,95.5,259.895,168.057,58.518,72.494,114.9,134.321,303.092,108.6,384.756-52.578,702.273-614.363,1114.072-614.363C18.94-957.435-359.613-132,220.781-132S1527.4-655.509,1527.4-655.509" fill="none" stroke="#e6e6e6" stroke-miterlimit="10" stroke-width="1"/>
        <path id="Path_96" data-name="Path 96" d="M-2622.087-241.858c89.916-229.081,192.388-379.036,505.551-346.483,153.328,15.938,198.9,94.912,257.965,165.842,58.912,70.749,115.329,130.291,300.372,103.488,379.148-54.919,691.954-610.881,1101.41-610.881,453.818,0,90.244,818.878,669.586,818.878S1513.346-636.507,1513.346-636.507" fill="none" stroke="#e6e6e6" stroke-miterlimit="10" stroke-width="1"/>
        <path id="Path_97" data-name="Path 97" d="M-2623.656-224.471c93.662-223.627,195.01-366.4,503.016-332.478,150.707,16.6,196.476,94.323,256.035,163.627,59.3,69.005,115.758,126.256,297.651,98.371,373.544-57.265,681.637-607.4,1088.749-607.4,453.323,0,104.727,812.317,683.017,812.317S1499.3-617.505,1499.3-617.505" fill="none" stroke="#e6e6e6" stroke-miterlimit="10" stroke-width="1"/>
        <path id="Path_98" data-name="Path 98" d="M-2625.226-207.085c97.409-218.172,197.633-353.761,500.482-318.473,148.085,17.255,194.046,93.735,254.1,161.413,59.69,67.261,116.188,122.218,294.93,93.255C-1207.764-330.51-904.389-874.8-499.621-874.8c452.828,0,119.211,805.757,696.449,805.757S1485.246-598.5,1485.246-598.5" fill="none" stroke="#e6e6e6" stroke-miterlimit="10" stroke-width="1"/>
        <path id="Path_99" data-name="Path 99" d="M-2626.795-189.7c101.155-212.718,200.254-341.125,497.947-304.468,145.463,17.912,191.613,93.147,252.175,159.2,60.074,65.518,116.62,118.174,292.209,88.139,362.35-61.983,661-600.432,1063.427-600.432,452.333,0,133.695,799.195,709.88,799.195S1471.195-579.5,1471.195-579.5" fill="none" stroke="#e6e6e6" stroke-miterlimit="10" stroke-width="1"/>
        <path id="Path_100" data-name="Path 100" d="M-2628.364-172.311c104.9-207.264,202.875-328.491,495.412-290.463,142.84,18.568,189.177,92.56,250.245,156.983,60.455,63.776,117.054,114.127,289.489,83.022,356.757-64.353,650.684-596.949,1050.765-596.949,451.838,0,148.178,792.635,723.312,792.635S1457.145-560.5,1457.145-560.5" fill="none" stroke="#e6e6e6" stroke-miterlimit="10" stroke-width="1"/>
        <path id="Path_101" data-name="Path 101" d="M-2629.934-154.925c108.648-201.809,205.5-315.858,492.878-276.457,140.218,19.224,186.738,91.974,248.315,154.768,60.833,62.035,117.489,110.074,286.768,77.906C-1250.8-265.441-961.606-792.174-563.868-792.174-112.526-792.174-401.207-6.1,172.874-6.1S1443.095-541.5,1443.095-541.5" fill="none" stroke="#e6e6e6" stroke-miterlimit="10" stroke-width="1"/>
        <path id="Path_102" data-name="Path 102" d="M-2631.5-137.538c112.394-196.355,208.115-303.227,490.344-262.452,137.594,19.878,184.294,91.389,246.384,152.553,61.208,60.295,117.926,106.016,284.047,72.79,345.585-69.122,630.05-589.984,1025.444-589.984,450.847,0,177.145,779.513,750.174,779.513S1429.044-522.495,1429.044-522.495" fill="none" stroke="#e6e6e6" stroke-miterlimit="10" stroke-width="1"/>
        <path id="Path_103" data-name="Path 103" d="M-2633.072-120.151c116.14-190.9,210.734-290.6,487.809-248.448,134.97,20.533,181.848,90.806,244.454,150.339,61.579,58.557,118.363,101.953,281.326,67.673,340-71.52,619.733-586.5,1012.783-586.5,450.352,0,191.628,772.952,763.605,772.952S1414.994-503.493,1414.994-503.493" fill="none" stroke="#e6e6e6" stroke-miterlimit="10" stroke-width="1"/>
        <path id="Path_104" data-name="Path 104" d="M-2634.642-102.764c119.888-185.447,213.353-277.972,485.275-234.443,132.347,21.186,179.4,90.224,242.524,148.124,61.947,56.82,118.8,97.884,278.606,62.557,334.425-73.93,609.414-583.018,1000.121-583.018,449.857,0,206.112,766.391,777.037,766.391S1400.944-484.491,1400.944-484.491" fill="none" stroke="#e6e6e6" stroke-miterlimit="10" stroke-width="1"/>
        <path id="Path_105" data-name="Path 105" d="M-2636.211-85.378c123.634-179.992,215.97-265.345,482.74-220.437,129.723,21.838,176.947,89.643,240.594,145.909,62.312,55.085,119.243,93.809,275.885,57.441C-1308.141-178.816-1037.9-682-649.532-682c449.362,0,220.6,759.83,790.468,759.83S1386.894-465.489,1386.894-465.489" fill="none" stroke="#e6e6e6" stroke-miterlimit="10" stroke-width="1"/>
        <path id="Path_106" data-name="Path 106" d="M-2637.78-67.991c127.38-174.538,218.587-252.723,480.205-206.432,127.1,22.488,174.491,89.065,238.664,143.694C-1856.238-77.376-1799.227-41-1645.747-78.4c323.279-78.783,588.78-576.052,974.8-576.052,448.867,0,235.08,753.268,803.9,753.268s1239.891-545.3,1239.891-545.3" fill="none" stroke="#e6e6e6" stroke-miterlimit="10" stroke-width="1"/>
        <path id="Path_107" data-name="Path 107" d="M-2639.35-50.6c131.127-169.084,221.2-240.1,477.671-192.427,124.474,23.138,172.032,88.488,236.734,141.479,63.031,51.622,120.126,85.64,270.443,47.208,317.71-81.228,578.463-572.569,962.138-572.569,448.372,0,249.563,746.708,817.331,746.708s1233.826-547.28,1233.826-547.28" fill="none" stroke="#e6e6e6" stroke-miterlimit="10" stroke-width="1"/>
        <path id="Path_108" data-name="Path 108" d="M-2640.919-33.218C-2506.046-196.847-2417.1-260.7-2165.783-211.64c121.849,23.787,169.57,87.916,234.8,139.265,63.386,49.9,120.569,81.545,267.723,42.092,312.142-83.686,568.144-569.086,949.477-569.086,447.876,0,264.046,740.147,830.762,740.147s1227.76-549.262,1227.76-549.262" fill="none" stroke="#e6e6e6" stroke-miterlimit="10" stroke-width="1"/>
        <path id="Path_109" data-name="Path 109" d="M-2642.489-15.831c138.62-158.175,226.435-214.867,472.6-164.417,119.224,24.434,167.1,87.345,232.874,137.05,63.738,48.17,121.012,77.442,265,36.976,306.576-86.159,557.827-565.6,936.816-565.6,447.381,0,278.53,733.586,844.193,733.586S1330.692-389.482,1330.692-389.482" fill="none" stroke="#e6e6e6" stroke-miterlimit="10" stroke-width="1"/>
        <path id="Path_110" data-name="Path 110" d="M-2644.058,1.556c142.366-152.721,229.05-202.254,470.067-150.412,116.6,25.08,164.636,86.777,230.944,134.835,64.087,46.448,121.455,73.332,262.281,31.859,301.012-88.646,547.51-562.12,924.155-562.12,446.886,0,293.013,727.025,857.625,727.025S1316.642-370.48,1316.642-370.48" fill="none" stroke="#e6e6e6" stroke-miterlimit="10" stroke-width="1"/>
        <path id="Path_111" data-name="Path 111" d="M-2645.627,18.942c146.112-147.266,231.664-189.643,467.532-136.406,113.974,25.724,162.164,86.213,229.014,132.62,64.432,44.729,121.9,69.214,259.56,26.743,295.448-91.15,537.193-558.638,911.494-558.638,446.391,0,307.5,720.464,871.056,720.464s1209.563-555.2,1209.563-555.2" fill="none" stroke="#e6e6e6" stroke-miterlimit="10" stroke-width="1"/>
        <path id="Path_112" data-name="Path 112" d="M-2647.2,36.329c149.86-141.812,234.279-177.036,465-122.4,111.347,26.367,159.689,85.652,227.083,130.4,64.775,43.014,122.342,65.087,256.84,21.627C-1408.392-27.71-1171.4-489.2-799.443-489.2c445.9,0,321.981,713.9,884.487,713.9s1203.5-557.184,1203.5-557.184" fill="none" stroke="#e6e6e6" stroke-miterlimit="10" stroke-width="1"/>
        <path id="Path_113" data-name="Path 113" d="M-2648.766,53.716c153.606-136.358,236.892-164.432,462.464-108.4,108.722,27.009,157.212,85.1,225.153,128.191,65.116,41.3,122.784,60.952,254.119,16.51,284.319-96.207,516.557-551.672,886.171-551.672,445.4,0,336.464,707.343,897.919,707.343S1274.491-313.474,1274.491-313.474" fill="none" stroke="#e6e6e6" stroke-miterlimit="10" stroke-width="1"/>
        <path id="Path_114" data-name="Path 114" d="M-2650.335,71.1c157.352-130.9,239.506-151.831,459.929-94.391,106.1,27.648,154.732,84.544,223.223,125.976,65.454,39.6,123.225,56.807,251.4,11.394,278.753-98.764,506.24-548.189,873.51-548.189,444.906,0,350.948,700.781,911.35,700.781S1260.441-294.472,1260.441-294.472" fill="none" stroke="#e6e6e6" stroke-miterlimit="10" stroke-width="1"/>
        <path id="Path_115" data-name="Path 115" d="M-2651.905,88.489c161.1-125.449,242.12-139.235,457.4-80.386,103.471,28.285,152.251,84,221.293,123.761,65.79,37.893,123.665,52.653,248.677,6.278C-1451.356,36.8-1228.617-406.565-863.691-406.565c444.411,0,365.432,694.221,924.782,694.221s1185.3-563.126,1185.3-563.126" fill="none" stroke="#e6e6e6" stroke-miterlimit="10" stroke-width="1"/>
        <path id="Path_116" data-name="Path 116" d="M-2653.474,105.876c164.845-119.995,244.733-126.642,454.86-66.381,100.845,28.921,149.767,83.452,219.363,121.546,66.124,36.194,124.1,48.488,245.957,1.162,267.61-103.938,485.6-541.224,848.188-541.224,443.915,0,379.915,687.659,938.212,687.659S1232.34-256.468,1232.34-256.468" fill="none" stroke="#e6e6e6" stroke-miterlimit="10" stroke-width="1"/>
        <path id="Path_117" data-name="Path 117" d="M-2655.043,123.263C-2486.452,8.722-2407.7,9.209-2202.718,70.887c98.22,29.554,147.282,82.914,217.433,119.331,66.457,34.5,124.538,44.314,243.236-3.955,262.032-106.556,475.287-537.741,835.527-537.741,443.419,0,394.4,681.1,951.644,681.1S1218.29-237.466,1218.29-237.466" fill="none" stroke="#e6e6e6" stroke-miterlimit="10" stroke-width="1"/>
        <path id="Path_118" data-name="Path 118" d="M-2656.613,140.649c172.338-109.086,249.962-101.47,449.791-38.371,95.594,30.186,144.795,82.381,215.5,117.117,66.788,32.811,124.97,40.129,240.515-9.071,256.448-109.2,464.97-534.258,822.866-534.258,442.924,0,408.882,674.537,965.075,674.537s1167.1-569.067,1167.1-569.067" fill="none" stroke="#e6e6e6" stroke-miterlimit="10" stroke-width="1"/>
        <path id="Path_119" data-name="Path 119" d="M-2658.182,158.036C-2482.1,54.4-2405.6,69.145-2210.926,133.67c92.97,30.815,142.307,81.853,213.573,114.9,67.118,31.126,125.4,35.932,237.794-14.187,250.855-111.863,454.653-530.776,810.2-530.776,442.429,0,423.366,667.977,978.507,667.977S1190.19-199.462,1190.19-199.462" fill="none" stroke="#e6e6e6" stroke-miterlimit="10" stroke-width="1"/>
        <path id="Path_120" data-name="Path 120" d="M-2659.752,175.423c179.832-98.178,255.194-76.318,444.722-10.361,90.345,31.441,139.818,81.33,211.643,112.687,67.447,29.447,125.823,31.725,235.074-19.3,245.252-114.552,444.335-527.292,797.543-527.292,441.934,0,437.849,661.416,991.938,661.416S1176.139-180.46,1176.139-180.46" fill="none" stroke="#e6e6e6" stroke-miterlimit="10" stroke-width="1"/>
        <path id="Path_121" data-name="Path 121" d="M-2661.321,192.809c183.578-92.723,257.811-63.749,442.188,3.645,87.721,32.064,137.327,80.813,209.711,110.473,67.778,27.771,126.242,27.505,232.354-24.421,239.637-117.268,434.017-523.81,784.882-523.81,441.439,0,452.333,654.855,1005.37,654.855s1148.9-575.009,1148.9-575.009" fill="none" stroke="#e6e6e6" stroke-miterlimit="10" stroke-width="1"/>
        <path id="Path_122" data-name="Path 122" d="M-2662.89,210.2c187.324-87.269,260.43-51.187,439.653,17.65,85.1,32.685,134.838,80.3,207.781,108.258,68.107,26.1,126.655,23.275,229.633-29.537,234.009-120.01,423.7-520.327,772.221-520.327,440.944,0,466.817,648.294,1018.8,648.294s1142.84-576.99,1142.84-576.99" fill="none" stroke="#e6e6e6" stroke-miterlimit="10" stroke-width="1"/>
        <path id="Path_123" data-name="Path 123" d="M-2664.46,227.583c191.071-81.815,263.052-38.631,437.119,31.655,82.476,33.3,132.349,79.8,205.851,106.043,68.437,24.437,127.06,19.032,226.912-34.654,228.364-122.779,413.383-516.844,759.561-516.844,440.448,0,481.3,641.733,1032.232,641.733S1133.988-123.455,1133.988-123.455" fill="none" stroke="#e6e6e6" stroke-miterlimit="10" stroke-width="1"/>
        <path id="Path_124" data-name="Path 124" d="M-2666.029,244.969c194.817-76.36,265.676-26.081,434.584,45.66,79.855,33.918,129.86,79.3,203.921,103.829,68.767,22.778,127.457,14.778,224.192-39.77,222.7-125.578,403.065-513.361,746.9-513.361C-616.48-158.673-560.65,476.5-10.77,476.5S1119.938-104.453,1119.938-104.453" fill="none" stroke="#e6e6e6" stroke-miterlimit="10" stroke-width="1"/>
        <path id="Path_125" data-name="Path 125" d="M-2667.6,262.356c198.563-70.906,268.3-13.539,432.049,59.665,77.236,34.529,127.373,78.8,201.991,101.614,69.1,21.124,127.844,10.512,221.471-44.886,217.011-128.4,392.747-509.879,734.238-509.879,439.458,0,510.267,628.612,1059.095,628.612S1105.888-85.451,1105.888-85.451" fill="none" stroke="#e6e6e6" stroke-miterlimit="10" stroke-width="1"/>
        <path id="Path_126" data-name="Path 126" d="M-2669.168,279.743c202.31-65.452,270.934-1,429.515,73.67,74.619,35.137,124.887,78.313,200.061,99.4,69.432,19.474,128.222,6.234,218.75-50,211.3-131.26,382.43-506.395,721.577-506.395,438.963,0,524.75,622.05,1072.526,622.05S1091.838-66.449,1091.838-66.449" fill="none" stroke="#e6e6e6" stroke-miterlimit="10" stroke-width="1"/>
        <path id="Path_127" data-name="Path 127" d="M-2670.737,297.129c206.056-60,273.57,11.525,426.98,87.676,72,35.742,122.4,77.83,198.131,97.184,69.767,17.83,128.587,1.946,216.029-55.119,205.558-134.145,372.113-502.913,708.916-502.913,438.468,0,539.234,615.49,1085.958,615.49S1077.787-47.447,1077.787-47.447" fill="none" stroke="#e6e6e6" stroke-miterlimit="10" stroke-width="1"/>
        <path id="Path_128" data-name="Path 128" d="M-2672.306,314.516c209.8-54.543,276.211,24.044,424.445,101.681,69.391,36.342,119.92,77.352,196.2,94.969,70.1,16.19,128.939-2.354,213.309-60.235C-1638.568,313.872-1476.556-48.5-1142.1-48.5c437.973,0,553.718,608.928,1099.389,608.928S1063.737-28.445,1063.737-28.445" fill="none" stroke="#e6e6e6" stroke-miterlimit="10" stroke-width="1"/>
        <path id="Path_129" data-name="Path 129" d="M-2673.876,331.9c213.55-49.089,278.859,36.556,421.911,115.685,66.782,36.941,117.441,76.88,194.271,92.755,70.444,14.555,129.277-6.665,210.588-65.351,193.973-140,351.477-495.948,683.593-495.948,437.478,0,568.2,602.368,1112.821,602.368S1049.687-9.443,1049.687-9.443" fill="none" stroke="#e6e6e6" stroke-miterlimit="10" stroke-width="1"/>
        <path id="Path_130" data-name="Path 130" d="M-2675.445,349.289c217.3-43.634,281.514,49.06,419.376,129.691,64.176,37.534,114.964,76.413,192.341,90.54,70.786,12.924,129.6-10.984,207.867-70.468C-1667.738,356.08-1514.7,6.588-1184.928,6.588-747.946,6.588-602.244,602.4-58.677,602.4S1035.636,9.559,1035.636,9.559" fill="none" stroke="#e6e6e6" stroke-miterlimit="10" stroke-width="1"/>
        <path id="Path_131" data-name="Path 131" d="M-2677.014,366.676c221.042-38.18,284.178,61.555,416.842,143.7,61.573,38.124,112.489,75.95,190.41,88.325,71.132,11.3,129.9-15.312,205.146-75.584,182.229-145.968,330.843-488.981,658.272-488.981,436.487,0,597.168,589.245,1139.682,589.245S1021.586,28.561,1021.586,28.561" fill="none" stroke="#e6e6e6" stroke-miterlimit="10" stroke-width="1"/>
        <path id="Path_132" data-name="Path 132" d="M-2678.584,384.063c224.789-32.726,286.852,74.042,414.308,157.7,58.975,38.71,110.019,75.491,188.48,86.11,71.481,9.674,130.188-19.648,202.426-80.7,176.285-148.989,320.525-485.5,645.61-485.5,435.992,0,611.652,582.685,1153.114,582.685s1082.182-596.8,1082.182-596.8" fill="none" stroke="#e6e6e6" stroke-miterlimit="10" stroke-width="1"/>
        <path id="Path_133" data-name="Path 133" d="M-2680.153,401.45c228.535-27.272,289.538,86.521,411.773,171.706,56.383,39.293,107.553,75.037,186.55,83.9,71.834,8.054,130.453-23.99,199.705-85.817C-1711.837,419.2-1571.918,89.219-1249.176,89.219c435.5,0,626.135,576.123,1166.545,576.123S993.485,66.565,993.485,66.565" fill="none" stroke="#e6e6e6" stroke-miterlimit="10" stroke-width="1"/>
        <path id="Path_134" data-name="Path 134" d="M-2681.723,418.836c232.282-21.817,292.237,98.993,409.239,185.711,53.8,39.873,105.091,74.588,184.62,81.681,72.19,6.438,130.7-28.336,196.984-90.933,164.236-155.093,299.89-478.533,620.288-478.533,435,0,640.619,569.563,1179.977,569.563S979.435,85.567,979.435,85.567" fill="none" stroke="#e6e6e6" stroke-miterlimit="10" stroke-width="1"/>
        <path id="Path_135" data-name="Path 135" d="M-2683.292,436.223c236.028-16.363,294.95,111.457,406.7,199.716,51.217,40.45,102.632,74.142,182.69,79.466,72.551,4.825,130.917-32.684,194.263-96.049,158.122-158.169,289.573-475.05,607.627-475.05,434.507,0,655.1,563,1193.408,563S965.385,104.569,965.385,104.569" fill="none" stroke="#e6e6e6" stroke-miterlimit="10" stroke-width="1"/>
        <path id="Path_136" data-name="Path 136" d="M-2684.861,453.61c239.774-10.909,297.68,123.915,404.169,213.721,48.645,41.024,100.178,73.7,180.76,77.251,72.916,3.214,131.113-37.032,191.542-101.166,151.943-161.256,279.256-471.567,594.966-471.567,434.012,0,669.586,556.441,1206.84,556.441S951.335,123.571,951.335,123.571" fill="none" stroke="#e6e6e6" stroke-miterlimit="10" stroke-width="1"/>
        <path id="Path_137" data-name="Path 137" d="M-2686.431,471c243.522-5.454,300.563,136.221,401.635,227.727,46.141,41.529,97.727,73.368,178.83,75.036,73.283,1.705,131.284-41.378,188.822-106.282,145.7-164.349,268.937-468.084,582.305-468.084,433.516,0,684.069,549.88,1220.27,549.88s1051.853-606.7,1051.853-606.7" fill="none" stroke="#e6e6e6" stroke-miterlimit="10" stroke-width="1"/>
        <path id="Path_138" data-name="Path 138" d="M-2688,488.383c359.489,0,314.553,314.553,576,314.553s322.723-576,755.745-576S-657.7,770.255-122.553,770.255,923.234,161.574,923.234,161.574" fill="none" stroke="#e6e6e6" stroke-miterlimit="10" stroke-width="1"/>
      </g>
    </g>
  </g>
</svg>
