<svg xmlns="http://www.w3.org/2000/svg" xmlns:xlink="http://www.w3.org/1999/xlink" width="1228" height="805" viewBox="0 0 1228 805">
  <defs>
    <clipPath id="clip-path">
      <rect id="Rectangle_2" data-name="Rectangle 2" width="1228" height="805" transform="translate(-2140.851 -828.691)" fill="none"/>
    </clipPath>
  </defs>
  <g id="wave_different" transform="translate(2140.851 828.691)" clip-path="url(#clip-path)">
    <g id="Group_39" data-name="Group 39" transform="translate(436.831 359)">
      <path id="Path_219" data-name="Path 219" d="M-2584.422-1128.578c0-178.625,57.839-338.71,253.409-338.71s69.455,220.946,299.752,220.946,420.383-344.595,628.747-344.595-115.148,484.46,155.359,484.46,647.025-237.162,647.025-237.162" transform="translate(-57.235)" fill="none" stroke="#e6e6e6" stroke-miterlimit="10" stroke-width="1"/>
      <path id="Path_220" data-name="Path 220" d="M-2585.992-1106.075c1.677-175.918,59.019-332.458,252.275-331.76,95.548.317,113.667,53.767,135.281,107.567,22.024,54.986,47.378,110.235,162.39,109.742,227.753-1.259,415.767-342.867,623.083-342.867,208.142,0-108.669,481.2,161.368,481.2s644.311-238.145,644.311-238.145" transform="translate(-56.368 -13.876)" fill="none" stroke="#e6e6e6" stroke-miterlimit="10" stroke-width="1"/>
      <path id="Path_221" data-name="Path 221" d="M-2587.561-1083.571c3.353-173.212,60.2-326.208,251.141-324.811,94.378.634,112.574,53.5,134.417,106.468,22.192,54.141,47.554,108.191,161.172,107.2,225.208-2.518,411.151-341.139,617.418-341.139,207.921,0-102.188,477.949,167.378,477.949s641.6-239.128,641.6-239.128" transform="translate(-55.501 -27.753)" fill="none" stroke="#e6e6e6" stroke-miterlimit="10" stroke-width="1"/>
      <path id="Path_222" data-name="Path 222" d="M-2589.13-1061.067c5.028-170.505,61.376-319.957,250.007-317.861,93.207.951,111.482,53.224,133.554,105.369,22.36,53.294,47.73,106.145,159.956,104.664,222.663-3.777,406.535-339.411,611.753-339.411,207.7,0-95.708,474.694,173.387,474.694s638.883-240.111,638.883-240.111" transform="translate(-54.634 -41.629)" fill="none" stroke="#e6e6e6" stroke-miterlimit="10" stroke-width="1"/>
      <path id="Path_223" data-name="Path 223" d="M-2590.7-1038.563c6.7-167.8,62.555-313.706,248.873-310.911,92.037,1.268,110.494,52.9,132.69,104.27,22.636,52.391,47.91,104.381,158.738,102.125,220.129-4.479,401.918-337.682,606.088-337.682,207.478,0-89.227,471.438,179.4,471.438s636.169-241.094,636.169-241.094" transform="translate(-53.766 -55.506)" fill="none" stroke="#e6e6e6" stroke-miterlimit="10" stroke-width="1"/>
      <path id="Path_224" data-name="Path 224" d="M-2592.269-1016.06c8.381-165.092,63.734-307.455,247.739-303.963,90.867,1.585,109.426,52.611,131.827,103.172,22.83,51.53,48.089,102.4,157.521,99.586,217.59-5.6,397.3-335.954,600.423-335.954,207.256,0-82.748,468.183,185.406,468.183S-635.9-1227.113-635.9-1227.113" transform="translate(-52.899 -69.382)" fill="none" stroke="#e6e6e6" stroke-miterlimit="10" stroke-width="1"/>
      <path id="Path_225" data-name="Path 225" d="M-2593.838-993.556c10.057-162.386,64.913-301.2,246.6-297.013,89.7,1.9,108.358,52.324,130.963,102.072,23.023,50.668,48.268,100.426,156.3,97.048,215.053-6.725,392.686-334.226,594.759-334.226,207.035,0-76.267,464.927,191.416,464.927s630.741-243.06,630.741-243.06" transform="translate(-52.032 -83.258)" fill="none" stroke="#e6e6e6" stroke-miterlimit="10" stroke-width="1"/>
      <path id="Path_226" data-name="Path 226" d="M-2595.408-971.053c11.734-159.679,66.093-294.953,245.471-290.064,88.526,2.219,107.289,52.036,130.1,100.973,23.215,49.807,48.447,98.448,155.086,94.509,212.516-7.85,388.07-332.5,589.093-332.5,206.813,0-69.787,461.671,197.425,461.671S-650.205-1180.5-650.205-1180.5" transform="translate(-51.165 -97.135)" fill="none" stroke="#e6e6e6" stroke-miterlimit="10" stroke-width="1"/>
      <path id="Path_227" data-name="Path 227" d="M-2596.977-948.549c13.41-156.973,67.271-288.7,244.337-283.114,87.355,2.536,106.22,51.748,129.236,99.874,23.407,48.944,48.627,96.469,153.869,91.97,209.981-8.976,383.453-330.769,583.429-330.769,206.591,0-63.307,458.416,203.434,458.416S-657.358-1157.2-657.358-1157.2" transform="translate(-50.298 -111.011)" fill="none" stroke="#e6e6e6" stroke-miterlimit="10" stroke-width="1"/>
      <path id="Path_228" data-name="Path 228" d="M-2598.546-926.044c15.086-154.267,68.451-282.452,243.2-276.165,86.185,2.853,105.15,51.46,128.373,98.775,23.6,48.081,48.808,94.49,152.651,89.432,207.448-10.1,378.837-329.041,577.764-329.041,206.37,0-56.827,455.16,209.444,455.16s622.6-246.008,622.6-246.008" transform="translate(-49.431 -124.888)" fill="none" stroke="#e6e6e6" stroke-miterlimit="10" stroke-width="1"/>
      <path id="Path_229" data-name="Path 229" d="M-2600.116-903.541c16.762-151.56,69.63-276.2,242.069-269.216,85.015,3.171,104.079,51.172,127.509,97.677,23.789,47.218,48.989,92.509,151.434,86.893,204.917-11.233,374.221-327.313,572.1-327.313,206.148,0-50.346,451.9,215.453,451.9s619.886-246.991,619.886-246.991" transform="translate(-48.563 -138.764)" fill="none" stroke="#e6e6e6" stroke-miterlimit="10" stroke-width="1"/>
      <path id="Path_230" data-name="Path 230" d="M-2601.685-881.037c18.438-148.854,70.809-269.95,240.935-262.267,83.844,3.487,103.007,50.882,126.645,96.577,23.979,46.354,49.171,90.527,150.217,84.354,202.386-12.364,369.6-325.585,566.434-325.585,205.927,0-43.866,448.649,221.463,448.649s617.172-247.974,617.172-247.974" transform="translate(-47.696 -152.641)" fill="none" stroke="#e6e6e6" stroke-miterlimit="10" stroke-width="1"/>
      <path id="Path_231" data-name="Path 231" d="M-2603.255-858.534c20.115-146.147,71.988-263.7,239.8-255.317,82.674,3.8,101.935,50.593,125.782,95.478,24.168,45.491,49.353,88.544,149,81.815,199.857-13.5,364.988-323.857,560.769-323.857,205.705,0-37.386,445.394,227.472,445.394s614.458-248.956,614.458-248.956" transform="translate(-46.829 -166.517)" fill="none" stroke="#e6e6e6" stroke-miterlimit="10" stroke-width="1"/>
      <path id="Path_232" data-name="Path 232" d="M-2604.824-836.03c21.791-143.441,73.167-257.448,238.667-248.367,81.5,4.121,100.862,50.3,124.917,94.379,24.356,44.626,49.537,86.561,147.782,79.277,197.33-14.629,360.372-322.129,555.1-322.129,205.484,0-30.905,442.138,233.482,442.138s611.744-249.939,611.744-249.939" transform="translate(-45.961 -180.394)" fill="none" stroke="#e6e6e6" stroke-miterlimit="10" stroke-width="1"/>
      <path id="Path_233" data-name="Path 233" d="M-2606.393-813.526c23.467-140.734,74.327-250.817,237.533-241.418,80.325,4.625,99.788,50.012,124.054,93.28,24.544,43.762,49.721,84.576,146.565,76.738,194.8-15.765,355.756-320.4,549.44-320.4,205.262,0-24.425,438.883,239.491,438.883s609.03-250.922,609.03-250.922" transform="translate(-45.094 -194.27)" fill="none" stroke="#e6e6e6" stroke-miterlimit="10" stroke-width="1"/>
      <path id="Path_234" data-name="Path 234" d="M-2607.963-791.022c25.144-138.028,75.5-244.541,236.4-234.469,79.153,4.956,98.713,49.722,123.191,92.182,24.729,42.9,49.906,82.59,145.348,74.2,192.28-16.9,351.14-318.672,543.775-318.672,205.04,0-17.946,435.627,245.5,435.627s606.316-251.9,606.316-251.9" transform="translate(-44.227 -208.147)" fill="none" stroke="#e6e6e6" stroke-miterlimit="10" stroke-width="1"/>
      <path id="Path_235" data-name="Path 235" d="M-2609.532-768.519c26.82-135.322,76.68-238.266,235.265-227.52,77.981,5.285,97.637,49.431,122.327,91.083,24.915,42.032,50.091,80.6,144.131,71.661,189.757-18.043,346.523-316.944,538.11-316.944,204.819,0-11.465,432.372,251.51,432.372s603.6-252.887,603.6-252.887" transform="translate(-43.36 -222.023)" fill="none" stroke="#e6e6e6" stroke-miterlimit="10" stroke-width="1"/>
      <path id="Path_236" data-name="Path 236" d="M-2611.1-746.015c28.5-132.615,77.855-231.991,234.131-220.57,76.809,5.613,96.561,49.139,121.463,89.983,25.1,41.166,50.277,78.613,142.913,69.122,187.236-19.185,341.907-315.216,532.446-315.216,204.6,0-4.985,429.116,257.52,429.116s600.888-253.87,600.888-253.87" transform="translate(-42.493 -235.899)" fill="none" stroke="#e6e6e6" stroke-miterlimit="10" stroke-width="1"/>
      <path id="Path_237" data-name="Path 237" d="M-2612.671-723.512c30.173-129.909,79.031-225.716,233-213.621,75.637,5.941,95.483,48.848,120.6,88.884,25.283,40.3,50.464,76.624,141.7,66.583,184.718-20.329,337.291-313.488,526.781-313.488,204.376,0,1.5,425.861,263.529,425.861s598.174-254.853,598.174-254.853" transform="translate(-41.625 -249.776)" fill="none" stroke="#e6e6e6" stroke-miterlimit="10" stroke-width="1"/>
      <path id="Path_238" data-name="Path 238" d="M-2614.24-701.007c31.849-127.2,80.206-219.442,231.863-206.672,74.465,6.27,94.4,48.556,119.737,87.785,25.465,39.435,50.652,74.632,140.479,64.045,182.2-21.476,332.675-311.76,521.116-311.76,204.155,0,7.976,422.605,269.539,422.605s595.46-255.836,595.46-255.836" transform="translate(-40.758 -263.652)" fill="none" stroke="#e6e6e6" stroke-miterlimit="10" stroke-width="1"/>
      <path id="Path_239" data-name="Path 239" d="M-2615.809-678.5c33.525-124.5,81.381-213.168,230.729-199.723,73.292,6.6,93.324,48.264,118.873,86.687,25.646,38.569,50.84,72.639,139.261,61.506,179.683-22.625,328.058-310.032,515.451-310.032,203.933,0,14.456,419.35,275.548,419.35S-743.2-877.535-743.2-877.535" transform="translate(-39.891 -277.528)" fill="none" stroke="#e6e6e6" stroke-miterlimit="10" stroke-width="1"/>
      <path id="Path_240" data-name="Path 240" d="M-2617.379-656c35.2-121.789,82.556-206.895,229.6-192.773,72.12,6.927,92.243,47.972,118.009,85.588,25.826,37.7,51.029,70.645,138.044,58.967,177.17-23.777,323.442-308.3,509.786-308.3,203.712,0,20.936,416.094,281.557,416.094s590.033-257.8,590.033-257.8" transform="translate(-39.024 -291.405)" fill="none" stroke="#e6e6e6" stroke-miterlimit="10" stroke-width="1"/>
      <path id="Path_241" data-name="Path 241" d="M-2618.948-633.5c36.877-119.083,83.73-200.622,228.461-185.824,70.947,7.254,91.161,47.68,117.145,84.489,26.005,36.837,51.219,68.649,136.827,56.428,174.658-24.932,318.826-306.575,504.122-306.575,203.49,0,27.416,412.838,287.567,412.838s587.318-258.784,587.318-258.784" transform="translate(-38.157 -305.281)" fill="none" stroke="#e6e6e6" stroke-miterlimit="10" stroke-width="1"/>
      <path id="Path_242" data-name="Path 242" d="M-2620.518-610.993c38.554-116.376,84.9-194.349,227.327-178.874,69.774,7.581,90.077,47.388,116.282,83.39,26.182,35.972,51.409,66.65,135.609,53.889,172.147-26.089,314.21-304.847,498.457-304.847,203.268,0,33.9,409.583,293.576,409.583s584.6-259.767,584.6-259.767" transform="translate(-37.289 -319.158)" fill="none" stroke="#e6e6e6" stroke-miterlimit="10" stroke-width="1"/>
      <path id="Path_243" data-name="Path 243" d="M-2622.087-588.49c40.23-113.67,86.078-188.078,226.193-171.925,68.6,7.908,88.993,47.1,115.418,82.291,26.358,35.106,51.6,64.65,134.392,51.351,169.638-27.251,309.593-303.119,492.792-303.119,203.047,0,40.377,406.327,299.586,406.327s581.89-260.75,581.89-260.75" transform="translate(-36.422 -333.034)" fill="none" stroke="#e6e6e6" stroke-miterlimit="10" stroke-width="1"/>
      <path id="Path_244" data-name="Path 244" d="M-2623.656-565.985c41.906-110.964,87.251-181.807,225.059-164.976,67.429,8.235,87.907,46.8,114.555,81.192,26.533,34.24,51.792,62.648,133.175,48.812,167.131-28.415,304.977-301.39,487.127-301.39,202.825,0,46.857,403.072,305.595,403.072s579.177-261.733,579.177-261.733" transform="translate(-35.555 -346.911)" fill="none" stroke="#e6e6e6" stroke-miterlimit="10" stroke-width="1"/>
      <path id="Path_245" data-name="Path 245" d="M-2625.226-543.482c43.583-108.257,88.425-175.536,223.925-158.026,66.256,8.562,86.82,46.511,113.691,80.093,26.706,33.375,51.985,60.645,131.957,46.273C-1991.027-604.726-1855.291-874.8-1674.19-874.8c202.6,0,53.337,399.817,311.6,399.817S-786.123-737.7-786.123-737.7" transform="translate(-34.688 -360.787)" fill="none" stroke="#e6e6e6" stroke-miterlimit="10" stroke-width="1"/>
      <path id="Path_246" data-name="Path 246" d="M-2626.795-520.978c45.259-105.551,89.6-169.266,222.791-151.077,65.083,8.888,85.731,46.22,112.828,78.994,26.878,32.51,52.178,58.638,130.74,43.735,162.122-30.756,295.745-297.934,475.8-297.934,202.382,0,59.818,396.561,317.614,396.561s573.749-263.7,573.749-263.7" transform="translate(-33.821 -374.663)" fill="none" stroke="#e6e6e6" stroke-miterlimit="10" stroke-width="1"/>
      <path id="Path_247" data-name="Path 247" d="M-2628.364-498.475c46.935-102.844,90.77-163,221.657-144.128,63.909,9.213,84.641,45.928,111.964,77.9,27.049,31.646,52.372,56.63,129.523,41.2,159.62-31.932,291.129-296.206,470.132-296.206,202.161,0,66.3,393.305,323.624,393.305S-800.43-691.094-800.43-691.094" transform="translate(-32.953 -388.54)" fill="none" stroke="#e6e6e6" stroke-miterlimit="10" stroke-width="1"/>
      <path id="Path_248" data-name="Path 248" d="M-2629.934-475.971c48.611-100.138,91.943-156.729,220.523-137.178,62.736,9.539,83.55,45.638,111.1,76.8,27.218,30.782,52.567,54.619,128.305,38.657,157.12-33.113,286.512-294.478,464.468-294.478,201.939,0,72.778,390.049,329.632,390.049s568.321-265.664,568.321-265.664" transform="translate(-32.086 -402.416)" fill="none" stroke="#e6e6e6" stroke-miterlimit="10" stroke-width="1"/>
      <path id="Path_249" data-name="Path 249" d="M-2631.5-453.467c50.287-97.431,93.115-150.461,219.389-130.229,61.562,9.863,82.457,45.347,110.237,75.7,27.386,29.918,52.762,52.605,127.088,36.118,154.621-34.3,281.9-292.75,458.8-292.75,201.718,0,79.258,386.794,335.642,386.794s565.607-266.646,565.607-266.646" transform="translate(-31.219 -416.292)" fill="none" stroke="#e6e6e6" stroke-miterlimit="10" stroke-width="1"/>
      <path id="Path_250" data-name="Path 250" d="M-2633.072-430.963c51.963-94.725,94.287-144.2,218.255-123.28,60.388,10.188,81.362,45.058,109.373,74.6,27.552,29.056,52.958,50.589,125.87,33.579,152.124-35.488,277.281-291.021,453.139-291.021,201.5,0,85.738,383.539,341.651,383.539S-821.89-621.178-821.89-621.178" transform="translate(-30.352 -430.169)" fill="none" stroke="#e6e6e6" stroke-miterlimit="10" stroke-width="1"/>
      <path id="Path_251" data-name="Path 251" d="M-2634.642-408.46c53.64-92.019,95.458-137.93,217.121-116.331,59.215,10.513,80.266,44.769,108.51,73.5,27.716,28.194,53.154,48.57,124.654,31.041,149.628-36.684,272.663-289.294,447.473-289.294,201.275,0,92.219,380.283,347.661,380.283s560.179-268.612,560.179-268.612" transform="translate(-29.485 -444.045)" fill="none" stroke="#e6e6e6" stroke-miterlimit="10" stroke-width="1"/>
      <path id="Path_252" data-name="Path 252" d="M-2636.211-385.956c55.316-89.312,96.629-131.664,215.987-109.381,58.04,10.836,79.169,44.481,107.646,72.4,27.88,27.333,53.352,46.548,123.436,28.5C-2042.007-432.32-1921.094-682-1747.333-682c201.053,0,98.7,377.028,353.67,377.028S-836.2-574.567-836.2-574.567" transform="translate(-28.618 -457.922)" fill="none" stroke="#e6e6e6" stroke-miterlimit="10" stroke-width="1"/>
      <path id="Path_253" data-name="Path 253" d="M-2637.78-363.452c56.992-86.606,97.8-125.4,214.853-102.432,56.866,11.159,78.071,44.194,106.783,71.3,28.041,26.474,53.549,44.523,122.219,25.964,144.641-39.092,263.431-285.837,436.144-285.837,200.832,0,105.179,373.772,359.68,373.772s554.751-270.577,554.751-270.577" transform="translate(-27.75 -471.799)" fill="none" stroke="#e6e6e6" stroke-miterlimit="10" stroke-width="1"/>
      <path id="Path_254" data-name="Path 254" d="M-2639.35-340.948c58.669-83.9,98.971-119.139,213.719-95.482,55.692,11.481,76.97,43.908,105.919,70.2,28.2,25.615,53.747,42.495,121,23.425,142.15-40.305,258.815-284.109,430.479-284.109,200.61,0,111.659,370.517,365.689,370.517S-850.5-527.957-850.5-527.957" transform="translate(-26.883 -485.675)" fill="none" stroke="#e6e6e6" stroke-miterlimit="10" stroke-width="1"/>
      <path id="Path_255" data-name="Path 255" d="M-2640.919-318.445c60.345-81.193,100.141-112.877,212.585-88.533,54.518,11.8,75.869,43.624,105.056,69.1,28.36,24.758,53.945,40.463,119.784,20.886,139.658-41.525,254.2-282.38,424.814-282.38,200.388,0,118.139,367.261,371.7,367.261s549.323-272.544,549.323-272.544" transform="translate(-26.016 -499.551)" fill="none" stroke="#e6e6e6" stroke-miterlimit="10" stroke-width="1"/>
      <path id="Path_256" data-name="Path 256" d="M-2642.489-295.941c62.021-78.486,101.311-106.617,211.451-81.584,53.343,12.124,74.765,43.341,104.192,68,28.518,23.9,54.143,38.427,118.567,18.348,137.168-42.752,249.583-280.653,419.149-280.653,200.167,0,124.62,364.005,377.708,364.005s546.609-273.526,546.609-273.526" transform="translate(-25.149 -513.428)" fill="none" stroke="#e6e6e6" stroke-miterlimit="10" stroke-width="1"/>
      <path id="Path_257" data-name="Path 257" d="M-2644.058-273.437c63.7-75.78,102.481-100.358,210.317-74.634,52.168,12.445,73.661,43.059,103.329,66.905,28.674,23.047,54.341,36.387,117.35,15.808,134.678-43.986,244.966-278.924,413.485-278.924,199.945,0,131.1,360.75,383.718,360.75s543.9-274.509,543.9-274.509" transform="translate(-24.281 -527.304)" fill="none" stroke="#e6e6e6" stroke-miterlimit="10" stroke-width="1"/>
      <path id="Path_258" data-name="Path 258" d="M-2645.627-250.934c65.373-73.073,103.651-94.1,209.183-67.685,50.994,12.764,72.555,42.779,102.465,65.806,28.828,22.195,54.539,34.344,116.132,13.27,132.189-45.229,240.35-277.2,407.82-277.2,199.724,0,137.58,357.494,389.727,357.494s541.182-275.492,541.182-275.492" transform="translate(-23.415 -541.18)" fill="none" stroke="#e6e6e6" stroke-miterlimit="10" stroke-width="1"/>
      <path id="Path_259" data-name="Path 259" d="M-2647.2-228.43c67.05-70.367,104.821-87.845,208.049-60.735,49.819,13.083,71.448,42.5,101.6,64.707,28.981,21.344,54.738,32.3,114.915,10.731,129.7-46.479,235.734-275.468,402.155-275.468,199.5,0,144.06,354.239,395.736,354.239s538.468-276.475,538.468-276.475" transform="translate(-22.547 -555.057)" fill="none" stroke="#e6e6e6" stroke-miterlimit="10" stroke-width="1"/>
      <path id="Path_260" data-name="Path 260" d="M-2648.766-205.926c68.726-67.661,105.99-81.591,206.915-53.787,48.645,13.4,70.34,42.225,100.738,63.608,29.134,20.495,54.936,30.244,113.7,8.192,127.21-47.738,231.117-273.74,396.49-273.74,199.281,0,150.54,350.984,401.746,350.984s535.753-277.458,535.753-277.458" transform="translate(-21.68 -568.933)" fill="none" stroke="#e6e6e6" stroke-miterlimit="10" stroke-width="1"/>
      <path id="Path_261" data-name="Path 261" d="M-2650.335-183.423c70.4-64.954,107.159-75.339,205.781-46.837,47.469,13.719,69.23,41.951,99.874,62.509,29.285,19.648,55.133,28.188,112.48,5.654,124.719-49.007,226.5-272.011,390.825-272.011,199.059,0,157.021,347.728,407.755,347.728s533.04-278.44,533.04-278.44" transform="translate(-20.813 -582.81)" fill="none" stroke="#e6e6e6" stroke-miterlimit="10" stroke-width="1"/>
      <path id="Path_262" data-name="Path 262" d="M-2651.905-160.919c72.079-62.248,108.329-69.088,204.647-39.888,46.295,14.035,68.12,41.679,99.011,61.41,29.436,18.8,55.33,26.126,111.263,3.115,122.228-50.285,221.885-270.284,385.16-270.284,198.838,0,163.5,344.472,413.765,344.472s530.326-279.423,530.326-279.423" transform="translate(-19.945 -596.686)" fill="none" stroke="#e6e6e6" stroke-miterlimit="10" stroke-width="1"/>
      <path id="Path_263" data-name="Path 263" d="M-2653.474-138.415c73.755-59.542,109.5-62.84,203.513-32.938,45.12,14.351,67.009,41.409,98.147,60.311,29.585,17.959,55.526,24.06,110.046.577,119.734-51.574,217.269-268.555,379.5-268.555,198.616,0,169.981,341.216,419.774,341.216S-914.887-318.21-914.887-318.21" transform="translate(-19.078 -610.563)" fill="none" stroke="#e6e6e6" stroke-miterlimit="10" stroke-width="1"/>
      <path id="Path_264" data-name="Path 264" d="M-2655.043-115.912c75.431-56.835,110.668-56.594,202.379-25.989,43.945,14.665,65.9,41.142,97.284,59.212,29.734,17.119,55.721,21.989,108.828-1.962,117.238-52.873,212.652-266.827,373.831-266.827,198.394,0,176.461,337.961,425.784,337.961s524.9-281.389,524.9-281.389" transform="translate(-18.211 -624.439)" fill="none" stroke="#e6e6e6" stroke-miterlimit="10" stroke-width="1"/>
      <path id="Path_265" data-name="Path 265" d="M-2656.613-93.408c77.107-54.128,111.838-50.349,201.245-19.04,42.771,14.978,64.784,40.877,96.42,58.113,29.882,16.281,55.914,19.912,107.611-4.5,114.74-54.184,208.036-265.1,368.166-265.1,198.173,0,182.942,334.705,431.793,334.705S-929.194-271.6-929.194-271.6" transform="translate(-17.344 -638.316)" fill="none" stroke="#e6e6e6" stroke-miterlimit="10" stroke-width="1"/>
      <path id="Path_266" data-name="Path 266" d="M-2658.182-70.9c78.783-51.422,113.008-44.108,200.111-12.09,41.6,15.29,63.671,40.615,95.557,57.014,30.03,15.445,56.106,17.829,106.394-7.04,112.237-55.506,203.42-263.371,362.5-263.371,197.951,0,189.422,331.45,437.8,331.45s519.47-283.354,519.47-283.354" transform="translate(-16.477 -652.192)" fill="none" stroke="#e6e6e6" stroke-miterlimit="10" stroke-width="1"/>
      <path id="Path_267" data-name="Path 267" d="M-2659.752-48.4c80.46-48.716,114.179-37.869,198.977-5.141,40.422,15.6,62.557,40.356,94.693,55.915,30.177,14.612,56.3,15.742,105.177-9.579,109.73-56.841,198.8-261.642,356.836-261.642,197.73,0,195.9,328.195,443.812,328.195S-943.5-224.989-943.5-224.989" transform="translate(-15.609 -666.068)" fill="none" stroke="#e6e6e6" stroke-miterlimit="10" stroke-width="1"/>
      <path id="Path_268" data-name="Path 268" d="M-2661.321-25.9c82.136-46.009,115.35-31.632,197.844,1.809,39.248,15.91,61.443,40.1,93.829,54.817,30.325,13.78,56.483,13.648,103.959-12.118C-2158.471-39.578-2071.5-241.3-1914.518-241.3c197.508,0,202.382,324.939,449.822,324.939s514.042-285.319,514.042-285.319" transform="translate(-14.742 -679.945)" fill="none" stroke="#e6e6e6" stroke-miterlimit="10" stroke-width="1"/>
      <path id="Path_269" data-name="Path 269" d="M-2662.89-3.393c83.812-43.3,116.521-25.4,196.709,8.758,38.074,16.218,60.329,39.845,92.965,53.718,30.472,12.952,56.668,11.549,102.742-14.656,104.7-59.549,189.571-258.186,345.506-258.186,197.287,0,208.863,321.683,455.831,321.683s511.328-286.3,511.328-286.3" transform="translate(-13.875 -693.821)" fill="none" stroke="#e6e6e6" stroke-miterlimit="10" stroke-width="1"/>
      <path id="Path_270" data-name="Path 270" d="M-2664.46,19.111c85.489-40.6,117.694-19.169,195.575,15.707,36.9,16.524,59.216,39.595,92.1,52.619,30.62,12.126,56.849,9.444,101.525-17.2,102.174-60.923,184.956-256.458,339.842-256.458,197.065,0,215.342,318.428,461.84,318.428s508.614-287.285,508.614-287.285" transform="translate(-13.008 -707.697)" fill="none" stroke="#e6e6e6" stroke-miterlimit="10" stroke-width="1"/>
      <path id="Path_271" data-name="Path 271" d="M-2666.029,41.614c87.165-37.89,118.869-12.941,194.441,22.656,35.729,16.83,58.1,39.347,91.238,51.52,30.768,11.3,57.027,7.333,100.308-19.734,99.639-62.312,180.339-254.73,334.177-254.73,196.843,0,221.823,315.172,467.849,315.172s505.9-288.268,505.9-288.268" transform="translate(-12.14 -721.574)" fill="none" stroke="#e6e6e6" stroke-miterlimit="10" stroke-width="1"/>
      <path id="Path_272" data-name="Path 272" d="M-2667.6,64.118c88.841-35.184,120.044-6.718,193.307,29.606,34.557,17.133,56.989,39.1,90.375,50.421,30.917,10.482,57.2,5.216,99.09-22.272,97.095-63.715,175.723-253,328.512-253,196.622,0,228.3,311.917,473.859,311.917s503.186-289.251,503.186-289.251" transform="translate(-11.274 -735.45)" fill="none" stroke="#e6e6e6" stroke-miterlimit="10" stroke-width="1"/>
      <path id="Path_273" data-name="Path 273" d="M-2669.168,86.622c90.517-32.477,121.221-.5,192.173,36.555,33.386,17.435,55.877,38.859,89.511,49.322,31.065,9.663,57.369,3.093,97.873-24.812,94.539-65.131,171.106-251.273,322.847-251.273,196.4,0,234.783,308.661,479.869,308.661S-986.422-85.159-986.422-85.159" transform="translate(-10.406 -749.327)" fill="none" stroke="#e6e6e6" stroke-miterlimit="10" stroke-width="1"/>
      <path id="Path_274" data-name="Path 274" d="M-2670.737,109.125c92.194-29.771,122.4,5.719,191.039,43.5,32.216,17.735,54.765,38.619,88.648,48.223,31.215,8.847,57.532.966,96.656-27.35,91.97-66.563,166.49-249.545,317.182-249.545,196.179,0,241.264,305.406,485.878,305.406S-993.576-61.854-993.576-61.854" transform="translate(-9.539 -763.203)" fill="none" stroke="#e6e6e6" stroke-miterlimit="10" stroke-width="1"/>
      <path id="Path_275" data-name="Path 275" d="M-2672.306,131.629c93.87-27.064,123.582,11.931,189.9,50.454,31.047,18.033,53.655,38.382,87.784,47.124,31.366,8.033,57.69-1.168,95.438-29.889C-2209.792,131.309-2137.3-48.5-1987.661-48.5c195.958,0,247.744,302.15,491.888,302.15s495.045-292.2,495.045-292.2" transform="translate(-8.672 -777.08)" fill="none" stroke="#e6e6e6" stroke-miterlimit="10" stroke-width="1"/>
      <path id="Path_276" data-name="Path 276" d="M-2673.876,154.133c95.546-24.358,124.767,18.139,188.771,57.4,29.879,18.33,52.545,38.148,86.92,46.025,31.518,7.222,57.841-3.307,94.221-32.427,86.787-69.469,157.257-246.089,305.853-246.089,195.736,0,254.224,298.9,497.9,298.9s492.33-293.182,492.33-293.182" transform="translate(-7.805 -790.956)" fill="none" stroke="#e6e6e6" stroke-miterlimit="10" stroke-width="1"/>
      <path id="Path_277" data-name="Path 277" d="M-2675.445,176.636c97.223-21.651,125.955,24.344,187.637,64.353,28.714,18.624,51.437,37.916,86.057,44.926,31.671,6.413,57.985-5.45,93-34.966,84.17-70.943,152.641-244.361,300.188-244.361,195.514,0,260.7,295.639,503.906,295.639S-1015.037,8.062-1015.037,8.062" transform="translate(-6.937 -804.833)" fill="none" stroke="#e6e6e6" stroke-miterlimit="10" stroke-width="1"/>
      <path id="Path_278" data-name="Path 278" d="M-2677.014,196.334c98.9-18.945,127.147,30.544,186.5,71.3,27.549,18.917,50.33,37.686,85.193,43.827,31.826,5.606,58.121-7.6,91.786-37.5C-2232,201.528-2165.506,31.325-2019.008,31.325c195.293,0,267.184,292.383,509.916,292.383s486.9-295.148,486.9-295.148" transform="translate(-6.071 -815.902)" fill="none" stroke="#e6e6e6" stroke-miterlimit="10" stroke-width="1"/>
      <path id="Path_279" data-name="Path 279" d="M-2678.584,214.534c100.575-16.239,128.343,36.74,185.369,78.251,26.387,19.208,49.225,37.459,84.33,42.728,31.982,4.8,58.249-9.749,90.569-40.043,78.873-73.928,143.409-240.9,288.858-240.9,195.071,0,273.665,289.128,515.925,289.128s484.189-296.131,484.189-296.131" transform="translate(-5.203 -825.476)" fill="none" stroke="#e6e6e6" stroke-miterlimit="10" stroke-width="1"/>
      <path id="Path_280" data-name="Path 280" d="M-2680.153,232.735c102.251-13.532,129.545,42.932,184.235,85.2,25.227,19.5,48.121,37.233,83.466,41.629,32.14,4,58.367-11.9,89.352-42.582,76.19-75.438,138.792-239.176,283.193-239.176,194.85,0,280.145,285.872,521.934,285.872S-1036.5,66.565-1036.5,66.565" transform="translate(-4.336 -835.049)" fill="none" stroke="#e6e6e6" stroke-miterlimit="10" stroke-width="1"/>
      <path id="Path_281" data-name="Path 281" d="M-2681.723,250.935c103.928-10.826,130.752,49.12,183.1,92.15,24.07,19.785,47.02,37.011,82.6,40.53,32.3,3.195,58.476-14.06,88.135-45.121,73.482-76.957,134.177-237.448,277.529-237.448,194.628,0,286.625,282.617,527.944,282.617s478.761-298.1,478.761-298.1" transform="translate(-3.468 -844.622)" fill="none" stroke="#e6e6e6" stroke-miterlimit="10" stroke-width="1"/>
      <path id="Path_282" data-name="Path 282" d="M-2683.292,269.136c105.6-8.119,131.966,55.3,181.967,99.1,22.915,20.071,45.919,36.789,81.739,39.431,32.461,2.394,58.575-16.218,86.917-47.66,70.747-78.483,129.56-235.72,271.864-235.72,194.407,0,293.106,279.362,533.953,279.362S-1050.8,104.569-1050.8,104.569" transform="translate(-2.602 -854.195)" fill="none" stroke="#e6e6e6" stroke-miterlimit="10" stroke-width="1"/>
      <path id="Path_283" data-name="Path 283" d="M-2684.861,287.336c107.28-5.413,133.188,61.487,180.833,106.048,21.765,20.356,44.822,36.569,80.875,38.332,32.624,1.595,58.662-18.375,85.7-50.2,67.982-80.015,124.944-233.992,266.2-233.992,194.185,0,299.585,276.106,539.963,276.106s473.333-300.062,473.333-300.062" transform="translate(-1.735 -863.769)" fill="none" stroke="#e6e6e6" stroke-miterlimit="10" stroke-width="1"/>
      <path id="Path_284" data-name="Path 284" d="M-2686.431,305.536c108.957-2.706,134.478,67.593,179.7,113,20.645,20.607,43.725,36.405,80.012,37.233,32.788.846,58.739-20.532,84.483-52.737,65.188-81.55,120.327-232.263,260.534-232.263,193.963,0,306.066,272.85,545.972,272.85s470.619-301.045,470.619-301.045" transform="translate(-0.867 -873.342)" fill="none" stroke="#e6e6e6" stroke-miterlimit="10" stroke-width="1"/>
      <path id="Path_285" data-name="Path 285" d="M-2688,323.737c160.842,0,140.737,156.081,257.713,156.081s144.393-285.811,338.135-285.811S-1779.606,463.6-1540.17,463.6s467.905-302.028,467.905-302.028" transform="translate(0 -882.915)" fill="none" stroke="#e6e6e6" stroke-miterlimit="10" stroke-width="1"/>
    </g>
  </g>
</svg>
