<svg xmlns="http://www.w3.org/2000/svg" xmlns:xlink="http://www.w3.org/1999/xlink" width="892" height="892" viewBox="0 0 892 892">
  <defs>
    <clipPath id="clip-path">
      <circle id="Ellipse_170" data-name="Ellipse 170" cx="446" cy="446" r="446" transform="translate(735.5 4844.189)" fill="#e6e6e6"/>
    </clipPath>
    <clipPath id="clip-path-2">
      <rect id="Rectangle_2" data-name="Rectangle 2" width="2433" height="1141" transform="translate(0.107 0.13)" fill="none"/>
    </clipPath>
  </defs>
  <g id="wave_circle_faq_2" transform="translate(-735.5 -4844.189)" clip-path="url(#clip-path)">
    <g id="wave_you" transform="translate(-202.606 4794.06)" clip-path="url(#clip-path-2)">
      <g id="Group_373" data-name="Group 373" transform="translate(2652.059 1555.028) rotate(180)">
        <path id="Path_988" data-name="Path 988" d="M0,43.79C0,397.7,114.6,714.874,502.078,714.874s137.611-437.76,593.9-437.76,832.9,682.745,1245.735,682.745S2113.567,0,2649.523,0,3931.471,469.889,3931.471,469.889" transform="translate(91.819 1393.603)" fill="none" stroke="#009dff" stroke-miterlimit="10" stroke-width="1"/>
        <path id="Path_989" data-name="Path 989" d="M0,47.326c3.322,348.545,116.933,658.7,499.832,657.314,189.308-.628,225.208-106.529,268.031-213.122C811.5,382.574,861.734,273.11,1089.606,274.088c451.245,2.494,823.758,679.322,1234.512,679.322C2736.51,953.409,2108.813,0,2643.837,0S3920.408,471.836,3920.408,471.836" transform="translate(90.427 1372.974)" fill="none" stroke="#009dff" stroke-miterlimit="10" stroke-width="1"/>
        <path id="Path_990" data-name="Path 990" d="M0,50.861C6.642,394.044,119.269,697.175,497.585,694.407c186.99-1.256,223.043-105.991,266.32-210.945,43.969-107.268,94.219-214.358,319.33-212.4,446.2,4.989,814.613,675.9,1223.288,675.9C2718.477,946.958,2104.059,0,2638.149,0S3909.344,473.783,3909.344,473.783" transform="translate(89.036 1352.346)" fill="none" stroke="#009dff" stroke-miterlimit="10" stroke-width="1"/>
        <path id="Path_991" data-name="Path 991" d="M0,54.4c9.963,337.821,121.6,633.93,495.338,629.777,184.671-1.884,220.878-105.453,264.61-208.767,44.3-105.592,94.568-210.3,316.919-207.371,441.162,7.483,805.466,672.474,1212.064,672.474C2700.445,940.509,2099.3,0,2632.462,0S3898.279,475.731,3898.279,475.731" transform="translate(87.645 1331.717)" fill="none" stroke="#009dff" stroke-miterlimit="10" stroke-width="1"/>
        <path id="Path_992" data-name="Path 992" d="M0,57.932C13.284,390.391,123.941,679.477,493.092,673.94c182.352-2.512,218.922-104.8,262.9-206.59,44.849-103.8,94.924-206.809,314.508-202.341,436.14,8.874,796.319,669.049,1200.84,669.049C2682.413,934.059,2094.552,0,2626.775,0s1260.44,477.678,1260.44,477.678" transform="translate(86.254 1311.089)" fill="none" stroke="#009dff" stroke-miterlimit="10" stroke-width="1"/>
        <path id="Path_993" data-name="Path 993" d="M0,61.467c16.6,327.1,126.277,609.16,490.844,602.24C670.879,660.566,707.65,559.47,752.032,459.294c45.232-102.1,95.278-202.892,312.095-197.31,431.111,11.1,787.174,665.625,1189.617,665.625C2664.38,927.608,2089.8,0,2621.089,0S3876.152,479.626,3876.152,479.626" transform="translate(84.863 1290.461)" fill="none" stroke="#009dff" stroke-miterlimit="10" stroke-width="1"/>
        <path id="Path_994" data-name="Path 994" d="M0,65C19.926,386.736,128.613,661.777,488.6,653.474,666.312,649.7,703.287,549.8,748.074,451.238c45.615-100.389,95.632-198.974,309.683-192.28,426.083,13.325,778.028,662.2,1178.393,662.2C2646.347,921.158,2085.042,0,2615.4,0S3865.087,481.573,3865.087,481.573" transform="translate(83.472 1269.832)" fill="none" stroke="#009dff" stroke-miterlimit="10" stroke-width="1"/>
        <path id="Path_995" data-name="Path 995" d="M0,68.537c23.249,316.372,130.949,584.39,486.351,574.7,175.4-4.4,212.572-103.1,257.766-200.058,46-98.682,95.988-195.055,307.272-187.251,421.057,15.554,768.881,658.778,1167.169,658.778C2628.315,914.708,2080.289,0,2609.715,0S3854.024,483.52,3854.024,483.52" transform="translate(82.08 1249.204)" fill="none" stroke="#009dff" stroke-miterlimit="10" stroke-width="1"/>
        <path id="Path_996" data-name="Path 996" d="M0,72.072c26.569,311.01,133.285,572.005,484.1,560.933,173.077-5.025,210.453-102.528,256.055-197.88,46.377-96.973,96.344-191.134,304.859-182.22,416.036,17.785,759.735,655.352,1155.946,655.352C2610.283,908.258,2075.534,0,2604.028,0S3842.959,485.467,3842.959,485.467" transform="translate(80.689 1228.576)" fill="none" stroke="#009dff" stroke-miterlimit="10" stroke-width="1"/>
        <path id="Path_997" data-name="Path 997" d="M0,75.608C29.89,381.256,135.621,635.229,481.857,622.772,652.615,617.12,690.189,520.815,736.2,427.07c46.756-95.264,96.7-187.212,302.448-177.191C1449.664,269.9,1789.237,901.807,2183.37,901.807,2592.25,901.807,2070.78,0,2598.341,0S3831.9,487.415,3831.9,487.415" transform="translate(79.298 1207.947)" fill="none" stroke="#009dff" stroke-miterlimit="10" stroke-width="1"/>
        <path id="Path_998" data-name="Path 998" d="M0,79.143c33.211,300.285,137.958,547.236,479.61,533.4,168.44-6.282,206.212-101.386,252.633-193.526,47.134-93.553,97.061-183.287,300.035-172.161,406,22.256,741.444,648.5,1133.5,648.5C2574.219,895.357,2066.027,0,2592.654,0S3820.832,489.361,3820.832,489.361" transform="translate(77.907 1187.319)" fill="none" stroke="#009dff" stroke-miterlimit="10" stroke-width="1"/>
        <path id="Path_999" data-name="Path 999" d="M0,82.678C36.532,377.6,140.293,617.53,477.364,602.306c166.12-6.909,204.088-100.813,250.921-191.348,47.509-91.842,97.422-179.361,297.625-167.131,400.987,24.5,732.3,645.081,1122.274,645.081,408,0-86.912-888.907,438.784-888.907s1222.8,491.309,1222.8,491.309" transform="translate(76.516 1166.69)" fill="none" stroke="#009dff" stroke-miterlimit="10" stroke-width="1"/>
        <path id="Path_1000" data-name="Path 1000" d="M0,86.213C39.854,375.774,142.629,608.68,475.117,592.072c163.8-7.537,201.963-100.239,249.211-189.171,47.883-90.13,97.783-175.433,295.212-162.1,395.976,26.739,723.15,641.656,1111.05,641.656C2538.154,882.457,2056.518,0,2581.281,0S3798.7,493.256,3798.7,493.256" transform="translate(75.124 1146.063)" fill="none" stroke="#009dff" stroke-miterlimit="10" stroke-width="1"/>
        <path id="Path_1001" data-name="Path 1001" d="M0,89.749c43.174,284.2,144.965,510.082,472.871,492.09,161.482-8.166,199.837-99.665,247.5-186.993,48.257-88.418,98.148-171.5,292.8-157.071,390.969,28.985,714,638.232,1099.827,638.232C2520.122,876.007,2051.764,0,2575.594,0S3787.639,495.2,3787.639,495.2" transform="translate(73.733 1125.434)" fill="none" stroke="#009dff" stroke-miterlimit="10" stroke-width="1"/>
        <path id="Path_1002" data-name="Path 1002" d="M0,93.284C46.5,372.121,147.265,590.227,470.623,571.605c159.147-9.164,197.709-99.089,245.788-184.815,48.628-86.705,98.512-167.57,290.389-152.042,385.964,31.236,704.859,634.809,1088.6,634.809C2502.089,869.557,2047.01,0,2569.907,0S3776.576,497.151,3776.576,497.151" transform="translate(72.342 1104.805)" fill="none" stroke="#009dff" stroke-miterlimit="10" stroke-width="1"/>
        <path id="Path_1003" data-name="Path 1003" d="M0,96.819C49.818,370.293,149.6,581.327,468.377,561.372c156.825-9.818,195.579-98.514,244.077-182.639,49-84.992,98.878-163.634,287.977-147.011,380.963,33.49,695.712,631.384,1077.38,631.384C2484.057,863.106,2042.256,0,2564.221,0S3765.512,499.1,3765.512,499.1" transform="translate(70.95 1084.177)" fill="none" stroke="#009dff" stroke-miterlimit="10" stroke-width="1"/>
        <path id="Path_1004" data-name="Path 1004" d="M0,100.354C53.139,368.466,151.926,572.43,466.13,551.139c154.5-10.47,193.448-97.937,242.366-180.461C757.86,287.4,807.742,210.98,994.061,228.7c375.965,35.748,686.565,627.961,1066.156,627.961C2466.025,856.657,2037.5,0,2558.533,0S3754.448,501.045,3754.448,501.045" transform="translate(69.56 1063.548)" fill="none" stroke="#009dff" stroke-miterlimit="10" stroke-width="1"/>
        <path id="Path_1005" data-name="Path 1005" d="M0,103.889C56.459,366.639,154.255,563.532,463.883,540.9,616.065,529.783,655.2,443.545,704.538,362.621c49.73-81.563,99.614-155.757,283.154-136.952,370.971,38.01,677.42,624.536,1054.933,624.536C2447.992,850.206,2032.748,0,2552.847,0S3743.384,502.991,3743.384,502.991" transform="translate(68.169 1042.92)" fill="none" stroke="#009dff" stroke-miterlimit="10" stroke-width="1"/>
        <path id="Path_1006" data-name="Path 1006" d="M0,107.425c59.781,257.387,156.584,447.21,461.636,423.247C611.5,518.9,650.816,433.889,700.58,354.565c50.093-79.848,99.985-151.814,280.741-131.921C1347.3,262.921,1649.6,843.756,2025.031,843.756,2429.961,843.756,2027.993,0,2547.16,0S3732.32,504.939,3732.32,504.939" transform="translate(66.777 1022.292)" fill="none" stroke="#009dff" stroke-miterlimit="10" stroke-width="1"/>
        <path id="Path_1007" data-name="Path 1007" d="M0,110.96c63.1,252.026,158.912,434.78,459.389,409.478,147.537-12.423,187.042-96.2,237.234-173.929,50.454-78.132,100.356-147.869,278.33-126.891,360.991,42.549,659.127,617.688,1032.485,617.688C2411.928,837.306,2023.239,0,2541.473,0S3721.256,506.886,3721.256,506.886" transform="translate(65.386 1001.663)" fill="none" stroke="#009dff" stroke-miterlimit="10" stroke-width="1"/>
        <path id="Path_1008" data-name="Path 1008" d="M0,114.5C66.422,361.158,161.24,536.844,457.143,510.2c145.214-13.074,184.9-95.626,235.522-171.752,50.812-76.417,100.729-143.92,275.918-121.862,356.006,44.826,649.981,614.265,1021.261,614.265C2393.9,830.856,2018.485,0,2535.786,0S3710.191,508.834,3710.191,508.834" transform="translate(63.995 981.035)" fill="none" stroke="#009dff" stroke-miterlimit="10" stroke-width="1"/>
        <path id="Path_1009" data-name="Path 1009" d="M0,118.03c69.744,241.3,163.568,409.92,454.9,381.941C597.787,486.248,637.657,404.924,688.707,330.4c51.169-74.7,101.1-139.969,273.506-116.832,351.026,47.109,640.835,610.841,1010.038,610.841C2375.864,824.406,2013.731,0,2530.1,0S3699.128,510.782,3699.128,510.782" transform="translate(62.603 960.406)" fill="none" stroke="#009dff" stroke-miterlimit="10" stroke-width="1"/>
        <path id="Path_1010" data-name="Path 1010" d="M0,121.565C73.065,357.5,165.893,519.057,452.649,489.737c140.567-14.372,180.616-94.468,232.1-167.4,51.524-72.986,101.479-136.014,271.094-111.8,346.048,49.4,631.69,607.416,998.815,607.416C2357.831,817.955,2008.977,0,2524.412,0S3688.064,512.728,3688.064,512.728" transform="translate(61.213 939.779)" fill="none" stroke="#009dff" stroke-miterlimit="10" stroke-width="1"/>
        <path id="Path_1011" data-name="Path 1011" d="M0,125.1C76.387,355.677,168.221,510.164,450.4,479.5c138.244-15.021,178.47-93.889,230.389-165.22,51.875-71.27,101.857-132.054,268.682-106.771,341.075,51.69,622.544,603.992,987.591,603.992C2339.8,811.505,2004.224,0,2518.726,0S3677,514.676,3677,514.676" transform="translate(59.821 919.15)" fill="none" stroke="#009dff" stroke-miterlimit="10" stroke-width="1"/>
        <path id="Path_1012" data-name="Path 1012" d="M0,128.635C79.708,353.849,170.546,501.273,448.156,469.269,584.076,453.6,624.477,375.96,676.833,306.227,729.057,236.672,779.069,178.135,943.1,204.486c336.1,53.992,613.4,600.569,976.367,600.569,402.3,0,80-805.055,593.568-805.055s1152.9,516.622,1152.9,516.622" transform="translate(58.43 898.522)" fill="none" stroke="#009dff" stroke-miterlimit="10" stroke-width="1"/>
        <path id="Path_1013" data-name="Path 1013" d="M0,132.171C83.028,352.023,172.871,492.384,445.908,459.036c133.6-16.316,174.17-92.731,226.967-160.865,52.57-67.84,102.616-124.125,263.859-96.71,331.135,56.3,604.25,597.144,965.143,597.144C2303.734,798.6,1994.714,0,2507.351,0S3654.872,518.57,3654.872,518.57" transform="translate(57.039 877.893)" fill="none" stroke="#009dff" stroke-miterlimit="10" stroke-width="1"/>
        <path id="Path_1014" data-name="Path 1014" d="M0,135.707C86.35,350.2,175.2,483.5,443.662,448.8c131.273-16.964,172.016-92.153,225.256-158.688,52.913-66.126,103-120.155,261.446-91.681,326.172,58.614,595.1,593.72,953.919,593.72C2285.7,792.155,1989.962,0,2501.666,0S3643.809,520.518,3643.809,520.518" transform="translate(55.647 857.264)" fill="none" stroke="#009dff" stroke-miterlimit="10" stroke-width="1"/>
        <path id="Path_1015" data-name="Path 1015" d="M0,139.241C89.671,348.368,177.519,474.608,441.415,438.57c128.948-17.61,169.859-91.575,223.545-156.511,53.254-64.412,103.38-116.179,259.035-86.651,321.212,60.937,585.959,590.3,942.7,590.3C2267.67,785.7,1985.207,0,2495.978,0S3632.744,522.464,3632.744,522.464" transform="translate(54.256 836.636)" fill="none" stroke="#009dff" stroke-miterlimit="10" stroke-width="1"/>
        <path id="Path_1016" data-name="Path 1016" d="M0,142.776c92.992,203.765,179.843,322.946,439.168,285.56C565.791,410.082,606.868,337.339,661,274c53.591-62.7,103.765-112.2,256.623-81.62,316.255,63.267,576.812,586.872,931.472,586.872C2249.638,779.255,1980.453,0,2490.292,0S3621.68,524.412,3621.68,524.412" transform="translate(52.865 816.008)" fill="none" stroke="#009dff" stroke-miterlimit="10" stroke-width="1"/>
        <path id="Path_1017" data-name="Path 1017" d="M0,146.312c96.313,198.4,182.166,310.526,436.921,271.79,124.3-18.9,165.538-90.422,220.124-152.155,53.927-60.988,104.151-108.216,254.211-76.591,311.3,65.607,567.666,583.448,920.249,583.448C2231.606,772.8,1975.7,0,2484.6,0S3610.617,526.358,3610.617,526.358" transform="translate(51.474 795.38)" fill="none" stroke="#009dff" stroke-miterlimit="10" stroke-width="1"/>
        <path id="Path_1018" data-name="Path 1018" d="M0,149.847c99.634,193.04,184.487,298.108,434.675,258.022,121.973-19.542,163.371-89.846,218.412-149.978,54.259-59.277,104.538-104.226,251.8-71.561,306.351,67.955,558.52,580.025,909.025,580.025C2213.573,766.354,1970.945,0,2478.917,0S3599.552,528.306,3599.552,528.306" transform="translate(50.083 774.751)" fill="none" stroke="#009dff" stroke-miterlimit="10" stroke-width="1"/>
        <path id="Path_1019" data-name="Path 1019" d="M0,153.382C102.955,341.061,186.81,439.076,432.429,397.636c119.646-20.186,161.2-89.273,216.7-147.8C703.717,192.267,754.055,149.6,898.516,183.3c301.4,70.313,549.375,576.6,897.8,576.6C2195.541,759.9,1966.19,0,2473.23,0S3588.489,530.253,3588.489,530.253" transform="translate(48.692 754.122)" fill="none" stroke="#009dff" stroke-miterlimit="10" stroke-width="1"/>
        <path id="Path_1020" data-name="Path 1020" d="M0,156.917C106.277,339.233,189.131,430.2,430.182,387.4c117.322-20.828,159.031-88.7,214.99-145.624,54.914-55.861,105.314-96.232,246.976-61.5,296.458,72.682,540.227,573.176,886.577,573.176C2177.509,753.454,1961.437,0,2467.544,0S3577.425,532.2,3577.425,532.2" transform="translate(47.3 733.494)" fill="none" stroke="#009dff" stroke-miterlimit="10" stroke-width="1"/>
        <path id="Path_1021" data-name="Path 1021" d="M0,160.453C109.6,337.407,191.451,421.319,427.934,377.169c115-21.469,156.858-88.13,213.279-143.446,55.238-54.155,105.705-92.225,244.564-56.471C1177.294,252.314,1416.859,747,1761.131,747c398.346,0,195.552-747,700.726-747s1104.5,534.147,1104.5,534.147" transform="translate(45.909 712.866)" fill="none" stroke="#009dff" stroke-miterlimit="10" stroke-width="1"/>
        <path id="Path_1022" data-name="Path 1022" d="M0,163.987C112.919,335.579,193.771,412.444,425.688,366.935c112.669-22.108,154.681-87.562,211.568-141.268,55.558-52.452,106.1-88.213,242.152-51.442,286.577,77.453,521.936,566.328,864.13,566.328C2141.444,740.552,1951.929,0,2456.17,0S3555.3,536.094,3555.3,536.094" transform="translate(44.518 692.238)" fill="none" stroke="#009dff" stroke-miterlimit="10" stroke-width="1"/>
        <path id="Path_1023" data-name="Path 1023" d="M0,167.523C116.24,333.752,196.09,403.572,423.441,356.7c110.342-22.747,152.5-86.994,209.857-139.091,55.875-50.751,106.488-84.194,239.739-46.411,281.641,79.857,512.79,562.9,852.906,562.9C2123.412,734.1,1947.174,0,2450.483,0S3544.233,538.042,3544.233,538.042" transform="translate(43.127 671.609)" fill="none" stroke="#009dff" stroke-miterlimit="10" stroke-width="1"/>
        <path id="Path_1024" data-name="Path 1024" d="M0,171.059C119.561,331.926,198.408,394.7,421.193,346.469c108.015-23.385,150.319-86.432,208.147-136.914,56.19-49.053,106.881-80.168,237.328-41.381,276.7,82.273,503.643,559.48,841.683,559.48C2105.38,727.653,1942.42,0,2444.8,0S3533.169,539.99,3533.169,539.99" transform="translate(41.736 650.98)" fill="none" stroke="#009dff" stroke-miterlimit="10" stroke-width="1"/>
        <path id="Path_1025" data-name="Path 1025" d="M0,174.593c122.882,155.5,200.728,211.24,418.947,161.642C524.636,312.213,567.08,250.364,625.383,201.5c56.5-47.357,107.273-76.135,234.916-36.352,271.77,84.7,494.5,556.056,830.459,556.056C2087.348,721.2,1937.667,0,2439.11,0S3522.1,541.937,3522.1,541.937" transform="translate(40.344 630.352)" fill="none" stroke="#009dff" stroke-miterlimit="10" stroke-width="1"/>
        <path id="Path_1026" data-name="Path 1026" d="M0,178.128C126.2,328.271,203.046,376.968,416.7,326c103.361-24.657,145.945-85.312,204.725-132.559,56.811-45.664,107.666-72.094,232.5-31.321,266.838,87.15,485.351,552.631,819.236,552.631C2069.315,714.752,1932.912,0,2433.423,0S3511.041,543.884,3511.041,543.884" transform="translate(38.953 609.724)" fill="none" stroke="#009dff" stroke-miterlimit="10" stroke-width="1"/>
        <path id="Path_1027" data-name="Path 1027" d="M0,181.664c129.524,144.78,205.363,186.442,414.453,134.1,101.035-25.29,143.753-84.758,203.014-130.381,57.117-43.974,108.059-68.046,230.092-26.292C1109.465,248.706,1323.764,708.3,1655.571,708.3,2051.283,708.3,1928.158,0,2427.735,0S3499.977,545.831,3499.977,545.831" transform="translate(37.562 589.096)" fill="none" stroke="#009dff" stroke-miterlimit="10" stroke-width="1"/>
        <path id="Path_1028" data-name="Path 1028" d="M0,185.2C132.846,324.617,207.682,359.247,412.207,305.534c98.706-25.922,141.56-84.206,201.3-128.2,57.421-42.288,108.453-63.988,227.681-21.262,256.973,92.089,467.059,545.784,796.787,545.784C2033.251,701.852,1923.4,0,2422.049,0S3488.914,547.778,3488.914,547.778" transform="translate(36.171 568.467)" fill="none" stroke="#009dff" stroke-miterlimit="10" stroke-width="1"/>
        <path id="Path_1029" data-name="Path 1029" d="M0,188.734C136.167,322.791,210,350.391,409.96,295.3c96.379-26.553,139.364-83.661,199.591-126.027,57.724-40.606,108.845-59.923,225.269-16.231,252.04,94.583,457.912,542.359,785.564,542.359C2015.219,695.4,1918.649,0,2416.362,0S3477.849,549.726,3477.849,549.726" transform="translate(34.78 547.838)" fill="none" stroke="#009dff" stroke-miterlimit="10" stroke-width="1"/>
        <path id="Path_1030" data-name="Path 1030" d="M0,192.27c139.488,128.693,212.315,149.268,407.713,92.8,94.051-27.181,137.166-83.117,197.881-123.849,58.023-38.928,109.235-55.848,222.857-11.2,247.106,97.1,448.767,538.935,774.34,538.935C1997.186,688.951,1913.9,0,2410.675,0s1056.11,551.673,1056.11,551.673" transform="translate(33.389 527.21)" fill="none" stroke="#009dff" stroke-miterlimit="10" stroke-width="1"/>
        <path id="Path_1031" data-name="Path 1031" d="M0,195.8C142.81,319.136,214.632,332.69,405.467,274.834c91.724-27.808,134.966-82.578,196.17-121.672,58.321-37.253,109.625-51.764,220.444-6.172C1064.25,246.62,1261.7,682.5,1585.2,682.5,1979.154,682.5,1909.142,0,2404.989,0S3455.721,553.62,3455.721,553.62" transform="translate(31.997 506.582)" fill="none" stroke="#009dff" stroke-miterlimit="10" stroke-width="1"/>
        <path id="Path_1032" data-name="Path 1032" d="M0,199.339c146.13,117.969,216.948,124.5,403.219,65.26,89.4-28.433,132.764-82.043,194.459-119.494,58.617-35.583,110.014-47.67,218.034-1.142C1052.94,246.147,1246.186,676.051,1567.6,676.051,1961.122,676.051,1904.388,0,2399.3,0S3444.656,555.567,3444.656,555.567" transform="translate(30.606 485.954)" fill="none" stroke="#009dff" stroke-miterlimit="10" stroke-width="1"/>
        <path id="Path_1033" data-name="Path 1033" d="M0,202.875C149.451,315.482,219.266,315,400.973,254.366c87.069-29.055,130.561-81.514,192.748-117.317,58.912-33.918,110.4-43.566,215.621,3.888C1041.625,245.7,1230.669,669.6,1550.011,669.6c393.078,0,349.622-669.6,843.6-669.6S3433.593,557.514,3433.593,557.514" transform="translate(29.215 465.325)" fill="none" stroke="#009dff" stroke-miterlimit="10" stroke-width="1"/>
        <path id="Path_1034" data-name="Path 1034" d="M0,206.41c152.772,107.245,221.584,99.757,398.726,37.723,84.742-29.676,128.357-80.99,191.037-115.14,59.205-32.257,110.782-39.452,213.209,8.918,227.333,107.354,412.182,525.239,729.446,525.239C1925.057,663.15,1894.879,0,2387.928,0s1034.6,559.461,1034.6,559.461" transform="translate(27.824 444.697)" fill="none" stroke="#009dff" stroke-miterlimit="10" stroke-width="1"/>
        <path id="Path_1035" data-name="Path 1035" d="M0,209.945c156.093,101.883,223.9,87.39,396.479,23.955C478.894,203.605,522.63,153.429,585.8,120.937c59.5-30.6,111.163-35.325,210.8,13.948C1018.977,244.86,1199.638,656.7,1514.825,656.7c392.2,0,375.3-656.7,867.417-656.7S3411.466,561.408,3411.466,561.408" transform="translate(26.433 424.068)" fill="none" stroke="#009dff" stroke-miterlimit="10" stroke-width="1"/>
        <path id="Path_1036" data-name="Path 1036" d="M0,213.48C159.416,310,226.222,288.51,394.233,223.667c80.088-30.91,123.944-79.957,187.615-110.785,59.79-28.95,111.538-31.189,208.386,18.978,217.409,112.618,393.89,518.391,707,518.391C1888.992,650.251,1885.371,0,2376.554,0S3400.4,563.356,3400.4,563.356" transform="translate(25.041 403.44)" fill="none" stroke="#009dff" stroke-miterlimit="10" stroke-width="1"/>
        <path id="Path_1037" data-name="Path 1037" d="M0,217.016c162.737,91.158,228.542,62.673,391.987-3.583,77.762-31.523,121.736-79.449,185.9-108.608,60.083-27.3,111.909-27.041,205.975,24.009C996.3,244.121,1168.607,643.8,1479.638,643.8,1870.96,643.8,1880.618,0,2370.868,0S3389.337,565.3,3389.337,565.3" transform="translate(23.65 382.812)" fill="none" stroke="#009dff" stroke-miterlimit="10" stroke-width="1"/>
        <path id="Path_1038" data-name="Path 1038" d="M0,220.551c166.057,85.8,230.863,50.323,389.739-17.352,75.437-32.133,119.53-78.945,184.192-106.431,60.375-25.661,112.276-22.882,203.563,29.038,207.442,117.984,375.6,511.543,684.551,511.543C1852.927,637.35,1875.863,0,2365.18,0S3378.273,567.25,3378.273,567.25" transform="translate(22.259 362.183)" fill="none" stroke="#009dff" stroke-miterlimit="10" stroke-width="1"/>
        <path id="Path_1039" data-name="Path 1039" d="M0,224.085c169.379,80.434,233.187,37.979,387.492-31.121,73.113-32.74,117.324-78.449,182.481-104.253C630.641,64.687,682.608,70,771.124,122.781,973.562,243.487,1137.576,630.9,1444.452,630.9,1834.9,630.9,1871.109,0,2359.494,0S3367.209,569.2,3367.209,569.2" transform="translate(20.868 341.555)" fill="none" stroke="#009dff" stroke-miterlimit="10" stroke-width="1"/>
        <path id="Path_1040" data-name="Path 1040" d="M0,227.622c172.7,75.071,235.514,25.641,385.246-44.889,70.789-33.345,115.117-77.957,180.77-102.076,60.96-22.393,112.987-14.529,198.74,39.1,197.415,123.458,357.3,504.7,662.1,504.7C1816.864,624.45,1866.355,0,2353.807,0S3356.146,571.145,3356.146,571.145" transform="translate(19.477 320.926)" fill="none" stroke="#009dff" stroke-miterlimit="10" stroke-width="1"/>
        <path id="Path_1041" data-name="Path 1041" d="M0,231.157c176.021,69.709,237.842,13.31,383-58.658,68.467-33.946,112.913-77.472,179.059-99.9,61.255-20.767,113.33-10.335,196.327,44.128C950.758,242.966,1106.543,618,1409.264,618,1798.831,618,1861.6,0,2348.12,0s996.961,573.093,996.961,573.093" transform="translate(18.086 300.298)" fill="none" stroke="#009dff" stroke-miterlimit="10" stroke-width="1"/>
        <path id="Path_1042" data-name="Path 1042" d="M0,234.691c179.342,64.347,240.175.987,380.752-72.426C446.9,127.721,491.46,85.274,558.1,64.544,619.65,45.4,671.765,58.415,752.015,113.7c187.31,129.044,339.013,497.847,639.656,497.847C1780.8,611.549,1856.846,0,2342.433,0s991.585,575.039,991.585,575.039" transform="translate(16.694 279.67)" fill="none" stroke="#009dff" stroke-miterlimit="10" stroke-width="1"/>
        <path id="Path_1043" data-name="Path 1043" d="M0,238.228c182.663,58.984,242.512-11.33,378.505-86.2,63.83-35.139,108.506-76.516,175.637-95.544,61.846-17.529,113.988-1.913,191.5,54.189C927.866,242.557,1075.512,605.1,1374.078,605.1,1762.767,605.1,1852.093,0,2336.747,0s986.207,576.987,986.207,576.987" transform="translate(15.303 259.041)" fill="none" stroke="#009dff" stroke-miterlimit="10" stroke-width="1"/>
        <path id="Path_1044" data-name="Path 1044" d="M0,241.762c185.984,53.622,244.853-23.638,376.258-99.965,61.513-35.729,106.306-76.046,173.926-93.366,62.145-15.917,114.3,2.314,189.092,59.218,177.1,134.745,320.72,491,617.208,491C1744.734,598.649,1847.338,0,2331.059,0s980.83,578.934,980.83,578.934" transform="translate(13.912 238.413)" fill="none" stroke="#009dff" stroke-miterlimit="10" stroke-width="1"/>
        <path id="Path_1045" data-name="Path 1045" d="M0,245.3c189.306,48.26,247.2-35.939,374.011-113.732,59.2-36.317,104.108-75.582,172.215-91.189,62.447-14.309,114.6,6.553,186.68,64.248C904.858,242.262,1044.48,592.2,1338.891,592.2,1726.7,592.2,1842.585,0,2325.373,0s975.452,580.881,975.452,580.881" transform="translate(12.521 217.784)" fill="none" stroke="#009dff" stroke-miterlimit="10" stroke-width="1"/>
        <path id="Path_1046" data-name="Path 1046" d="M0,248.833c192.627,42.9,249.554-48.232,371.764-127.5,56.89-36.9,101.913-75.123,170.5-89.012,62.75-12.706,114.885,10.8,184.268,69.278C893.3,242.157,1028.965,585.749,1321.3,585.749,1708.67,585.749,1837.83,0,2319.686,0s970.076,582.829,970.076,582.829" transform="translate(11.13 197.156)" fill="none" stroke="#009dff" stroke-miterlimit="10" stroke-width="1"/>
        <path id="Path_1047" data-name="Path 1047" d="M0,252.368C195.947,289.9,251.915,191.852,369.518,111.1,424.1,73.617,469.236,36.429,538.31,24.263c63.056-11.106,115.154,15.054,181.856,74.308C881.706,242.075,1013.449,579.3,1303.7,579.3,1690.637,579.3,1833.076,0,2314,0s964.7,584.775,964.7,584.775" transform="translate(9.739 176.528)" fill="none" stroke="#009dff" stroke-miterlimit="10" stroke-width="1"/>
        <path id="Path_1048" data-name="Path 1048" d="M0,255.9c199.268,32.174,254.286-72.792,367.271-155.039,52.28-38.057,97.529-74.217,167.082-84.656C597.719,6.7,649.761,35.524,713.8,95.545c156.271,146.474,284.136,477.3,572.314,477.3C1672.605,572.849,1828.322,0,2308.312,0s959.322,586.723,959.322,586.723" transform="translate(8.347 155.899)" fill="none" stroke="#009dff" stroke-miterlimit="10" stroke-width="1"/>
        <path id="Path_1049" data-name="Path 1049" d="M0,259.437c202.589,26.812,256.667-85.06,365.024-168.808C415.006,52,460.367,16.86,530.4,8.151,594.074.233,646.038,31.736,707.428,92.519,858.383,241.984,982.417,566.4,1268.518,566.4,1654.573,566.4,1823.568,0,2302.625,0s953.944,588.669,953.944,588.669" transform="translate(6.956 135.271)" fill="none" stroke="#009dff" stroke-miterlimit="10" stroke-width="1"/>
        <path id="Path_1050" data-name="Path 1050" d="M0,263.626C205.912,285.075,259.059,166.3,362.779,81.05c47.689-39.2,93.16-73.329,163.66-80.3,63.995-6.329,115.858,27.858,174.621,89.4C846.649,242.621,966.9,560.6,1250.925,560.6,1636.541,560.6,1818.814.653,2296.939.653s948.567,590.617,948.567,590.617" transform="translate(5.564 113.99)" fill="none" stroke="#009dff" stroke-miterlimit="10" stroke-width="1"/>
        <path id="Path_1051" data-name="Path 1051" d="M0,274.878C209.232,290.965,261.464,165.3,360.531,78.533c45.4-39.767,90.98-72.89,161.949-78.125,64.314-4.744,116.054,32.132,172.208,94.428,140.17,155.5,256.7,467.031,538.643,467.031,385.177,0,580.729-553.5,1057.92-553.5s943.19,592.564,943.19,592.564" transform="translate(4.174 85.645)" fill="none" stroke="#009dff" stroke-miterlimit="10" stroke-width="1"/>
        <path id="Path_1052" data-name="Path 1052" d="M0,286.236C212.553,296.961,263.884,164.413,358.284,76.123,401.406,35.792,447.089,3.668,518.522.176c64.638-3.16,116.227,36.407,169.8,99.458,134.693,158.534,247.552,463.607,527.42,463.607,384.738,0,593.568-547.048,1069.827-547.048S3223.378,610.7,3223.378,610.7" transform="translate(2.783 57.193)" fill="none" stroke="#009dff" stroke-miterlimit="10" stroke-width="1"/>
        <path id="Path_1053" data-name="Path 1053" d="M0,297.7c215.875,5.362,266.44-133.921,356.037-223.883C396.94,32.989,442.669,1.688,514.565.048,579.528-1.628,630.944,40.727,681.95,104.536c129.156,161.575,238.4,460.182,516.2,460.182,384.3,0,606.407-540.6,1081.732-540.6s932.436,596.459,932.436,596.459" transform="translate(1.391 28.636)" fill="none" stroke="#009dff" stroke-miterlimit="10" stroke-width="1"/>
        <path id="Path_1054" data-name="Path 1054" d="M0,309.243C318.676,309.243,278.842,0,510.607,0s286.085,566.277,669.945,566.277S1799.8,32.129,2274.191,32.129,3201.25,630.535,3201.25,630.535" transform="translate(0 0)" fill="none" stroke="#009dff" stroke-miterlimit="10" stroke-width="1"/>
      </g>
    </g>
  </g>
</svg>
