<svg xmlns="http://www.w3.org/2000/svg" xmlns:xlink="http://www.w3.org/1999/xlink" width="1920" height="1381" viewBox="0 0 1920 1381">
  <defs>
    <clipPath id="clip-path">
      <rect id="Rectangle_2" data-name="Rectangle 2" width="1920" height="1381" transform="translate(-1864.851 -933.691)" fill="none"/>
    </clipPath>
  </defs>
  <g id="wave_bg_faq_landlords" transform="translate(1864.851 933.691)" clip-path="url(#clip-path)">
    <g id="Group_294" data-name="Group 294" transform="translate(-783.466 172.292) rotate(180)" style="isolation: isolate">
      <path id="Path_821" data-name="Path 821" d="M-2584.422-256.454c0-515.555,185.14-977.6,811.145-977.6s222.319,637.707,959.486,637.707,1345.618-994.588,2012.577-994.588S830.2-192.663,1696.081-192.663s2071.083-684.51,2071.083-684.51" transform="translate(44.762 0)" fill="none" stroke="rgba(0,157,255,0.5)" stroke-miterlimit="10" stroke-width="1"/>
      <path id="Path_822" data-name="Path 822" d="M-2585.992-243.457c5.366-507.743,188.914-959.559,807.516-957.542,305.842.915,363.841,155.186,433.024,310.466,70.5,158.7,151.656,318.167,519.8,316.742,729.021-3.633,1330.843-989.6,1994.446-989.6,666.25,0-347.841,1388.878,516.529,1388.878s2062.4-687.347,2062.4-687.347" transform="translate(44.083 11.903)" fill="none" stroke="rgba(0,157,255,0.5)" stroke-miterlimit="10" stroke-width="1"/>
      <path id="Path_823" data-name="Path 823" d="M-2587.561-230.46c10.731-499.932,192.688-941.518,803.886-937.485,302.1,1.83,360.342,154.4,430.26,307.294,71.035,156.263,152.218,312.265,515.9,309.414C-116.636-558.5,478.555-1535.849,1138.8-1535.849c665.541,0-327.1,1379.481,535.765,1379.481s2053.71-690.183,2053.71-690.183" transform="translate(43.406 23.806)" fill="none" stroke="rgba(0,157,255,0.5)" stroke-miterlimit="10" stroke-width="1"/>
      <path id="Path_824" data-name="Path 824" d="M-2589.13-217.462c16.1-492.121,196.462-923.477,800.255-917.427,298.35,2.744,356.845,153.619,427.5,304.121C-1289.8-676.947-1208.6-524.406-849.372-528.681c712.731-10.9,1301.29-979.625,1958.18-979.625,664.832,0-306.354,1370.086,555,1370.086S3708.831-831.24,3708.831-831.24" transform="translate(42.728 35.709)" fill="none" stroke="rgba(0,157,255,0.5)" stroke-miterlimit="10" stroke-width="1"/>
      <path id="Path_825" data-name="Path 825" d="M-2590.7-204.466c21.462-484.309,200.236-905.435,796.626-897.369,294.6,3.659,353.684,152.674,424.733,300.949,72.456,151.214,153.357,301.269,508.11,294.76,704.617-12.928,1286.513-974.637,1940.047-974.637,664.123,0-285.611,1360.689,574.237,1360.689S3689.388-815.93,3689.388-815.93" transform="translate(42.049 47.613)" fill="none" stroke="rgba(0,157,255,0.5)" stroke-miterlimit="10" stroke-width="1"/>
      <path id="Path_826" data-name="Path 826" d="M-2592.269-191.468c26.827-476.5,204.01-887.394,793-877.313C-1508.415-1064.2-1449.007-916.933-1377.3-771c73.076,148.73,153.928,295.563,504.213,287.431,696.491-16.168,1271.738-969.648,1921.915-969.648,663.413,0-264.869,1351.293,593.474,1351.293S3669.944-800.62,3669.944-800.62" transform="translate(41.371 59.516)" fill="none" stroke="rgba(0,157,255,0.5)" stroke-miterlimit="10" stroke-width="1"/>
      <path id="Path_827" data-name="Path 827" d="M-2593.838-178.47c32.192-468.687,207.783-869.351,789.365-857.255,287.112,5.491,346.847,151.02,419.2,294.606,73.695,146.242,154.5,289.856,500.316,280.1,688.37-19.412,1256.962-964.66,1903.782-964.66,662.7,0-244.126,1341.9,612.709,1341.9S3650.5-785.31,3650.5-785.31" transform="translate(40.693 71.419)" fill="none" stroke="rgba(0,157,255,0.5)" stroke-miterlimit="10" stroke-width="1"/>
      <path id="Path_828" data-name="Path 828" d="M-2595.408-165.473c37.56-460.874,211.558-851.309,785.736-837.2,283.365,6.4,343.426,150.19,416.44,291.434,74.31,143.754,155.075,284.146,496.42,272.777,680.249-22.658,1242.185-959.673,1885.648-959.673,662,0-223.382,1332.5,631.946,1332.5S3631.055-770,3631.055-770" transform="translate(40.014 83.322)" fill="none" stroke="rgba(0,157,255,0.5)" stroke-miterlimit="10" stroke-width="1"/>
      <path id="Path_829" data-name="Path 829" d="M-2596.977-152.476c42.925-453.063,215.332-833.268,782.106-817.139,279.619,7.32,340,149.358,413.676,288.262,74.925,141.265,155.651,278.434,492.524,265.449,672.136-25.908,1227.408-954.684,1867.517-954.684,661.285,0-202.642,1323.1,651.179,1323.1s2001.587-707.2,2001.587-707.2" transform="translate(39.336 95.225)" fill="none" stroke="rgba(0,157,255,0.5)" stroke-miterlimit="10" stroke-width="1"/>
      <path id="Path_830" data-name="Path 830" d="M-2598.546-139.478c48.29-445.252,219.106-815.227,778.475-797.082,275.874,8.235,336.577,148.526,410.912,285.09,75.538,138.775,156.23,272.72,488.627,258.122,664.027-29.162,1212.633-949.7,1849.384-949.7,660.576,0-181.9,1313.707,670.416,1313.707s1992.9-710.041,1992.9-710.041" transform="translate(38.658 107.129)" fill="none" stroke="rgba(0,157,255,0.5)" stroke-miterlimit="10" stroke-width="1"/>
      <path id="Path_831" data-name="Path 831" d="M-2600.116-126.482c53.656-437.44,222.881-797.185,774.846-777.024,272.127,9.151,333.15,147.694,408.148,281.919,76.148,136.283,156.81,267,484.729,250.8C-276.468-403.213,265.465-1315.5,898.86-1315.5,1558.726-1315.5,737.7-11.19,1588.511-11.19S3572.723-724.067,3572.723-724.067" transform="translate(37.98 119.032)" fill="none" stroke="rgba(0,157,255,0.5)" stroke-miterlimit="10" stroke-width="1"/>
      <path id="Path_832" data-name="Path 832" d="M-2601.685-113.484c59.021-429.629,226.653-779.144,771.217-756.967,268.379,10.065,329.719,146.859,405.382,278.747,76.755,133.791,157.393,261.284,480.834,243.468,647.824-35.685,1183.08-939.721,1813.118-939.721,659.158,0-140.413,1294.914,708.888,1294.914S3553.279-708.756,3553.279-708.756" transform="translate(37.302 130.935)" fill="none" stroke="rgba(0,157,255,0.5)" stroke-miterlimit="10" stroke-width="1"/>
      <path id="Path_833" data-name="Path 833" d="M-2603.255-100.486c64.387-421.818,230.429-761.1,767.588-736.91,264.633,10.98,326.286,146.023,402.618,275.574,77.359,131.3,157.977,255.562,476.937,236.14,639.729-38.952,1168.3-934.732,1794.985-934.732C1497.323-1260.414,719.2,25.1,1567,25.1s1966.838-718.55,1966.838-718.55" transform="translate(36.624 142.838)" fill="none" stroke="rgba(0,157,255,0.5)" stroke-miterlimit="10" stroke-width="1"/>
      <path id="Path_834" data-name="Path 834" d="M-2604.824-87.49c69.752-414.005,234.2-743.061,763.958-716.851,260.888,11.9,322.851,145.186,399.853,272.4,77.962,128.8,158.566,249.836,473.042,228.813C-336.333-345.35,185.556-1232.87,808.881-1232.87c657.74,0-98.926,1276.122,747.36,1276.122s1958.15-721.387,1958.15-721.387" transform="translate(35.945 154.741)" fill="none" stroke="rgba(0,157,255,0.5)" stroke-miterlimit="10" stroke-width="1"/>
      <path id="Path_835" data-name="Path 835" d="M-2606.393-74.492c75.117-406.194,237.917-723.922,760.327-696.794,257.114,13.351,319.414,144.347,397.089,269.23,78.562,126.308,159.154,244.107,469.145,221.486,623.554-45.5,1138.752-924.757,1758.72-924.757,657.031,0-78.183,1266.727,766.6,1266.727S3494.947-662.824,3494.947-662.824" transform="translate(35.267 166.644)" fill="none" stroke="rgba(0,157,255,0.5)" stroke-miterlimit="10" stroke-width="1"/>
      <path id="Path_836" data-name="Path 836" d="M-2607.963-61.495c80.484-398.383,241.684-705.808,756.7-676.738,253.363,14.3,315.973,143.509,394.325,266.059,79.158,123.811,159.745,238.374,465.249,214.158C-376.217-306.8,132.284-1177.783,748.9-1177.783c656.321,0-57.442,1257.329,785.831,1257.329S3475.5-647.514,3475.5-647.514" transform="translate(34.589 178.547)" fill="none" stroke="rgba(0,157,255,0.5)" stroke-miterlimit="10" stroke-width="1"/>
      <path id="Path_837" data-name="Path 837" d="M-2609.532-48.5c85.849-390.572,245.448-687.7,753.067-656.68,249.612,15.253,312.53,142.67,391.561,262.887,79.753,121.314,160.339,232.638,461.352,206.831,607.4-52.076,1109.2-914.781,1722.455-914.781,655.612,0-36.7,1247.934,805.066,1247.934S3456.06-632.2,3456.06-632.2" transform="translate(33.91 190.45)" fill="none" stroke="rgba(0,157,255,0.5)" stroke-miterlimit="10" stroke-width="1"/>
      <path id="Path_838" data-name="Path 838" d="M-2611.1-35.5c91.214-382.76,249.21-669.584,749.437-636.621,245.862,16.2,309.084,141.828,388.8,259.715,80.343,118.816,160.934,226.9,457.456,199.5C-416.081-268.275,79.01-1122.7,688.911-1122.7c654.9,0-15.956,1238.536,824.3,1238.536s1923.4-732.732,1923.4-732.732" transform="translate(33.232 202.354)" fill="none" stroke="rgba(0,157,255,0.5)" stroke-miterlimit="10" stroke-width="1"/>
      <path id="Path_839" data-name="Path 839" d="M-2612.671-22.5c96.581-374.949,252.973-651.473,745.807-616.564,242.109,17.149,305.634,140.987,386.033,256.542,80.928,116.319,161.533,221.155,453.559,192.176,591.268-58.674,1079.647-904.8,1686.19-904.8,654.194,0,4.786,1229.141,843.538,1229.141S3417.171-601.581,3417.171-601.581" transform="translate(32.554 214.257)" fill="none" stroke="rgba(0,157,255,0.5)" stroke-miterlimit="10" stroke-width="1"/>
      <path id="Path_840" data-name="Path 840" d="M-2614.24-9.5c101.945-367.138,256.734-633.365,742.177-596.507,238.357,18.1,302.181,140.144,383.268,253.37,81.513,113.819,162.133,215.408,449.663,184.849,583.208-61.984,1064.87-899.816,1668.056-899.816,653.485,0,25.53,1219.745,862.775,1219.745S3397.728-586.271,3397.728-586.271" transform="translate(31.876 226.16)" fill="none" stroke="rgba(0,157,255,0.5)" stroke-miterlimit="10" stroke-width="1"/>
      <path id="Path_841" data-name="Path 841" d="M-2615.809,3.492c107.31-359.326,260.5-615.256,738.548-576.449,234.6,19.045,298.724,139.3,380.5,250.2,82.091,111.32,162.735,209.655,445.766,177.522,575.155-65.3,1050.093-894.83,1649.924-894.83,652.776,0,46.273,1210.348,882.01,1210.348s1897.34-741.244,1897.34-741.244" transform="translate(31.198 238.063)" fill="none" stroke="rgba(0,157,255,0.5)" stroke-miterlimit="10" stroke-width="1"/>
      <path id="Path_842" data-name="Path 842" d="M-2617.379,16.489C-2504.7-335.025-2353.123-580.66-1882.46-539.9c230.851,19.992,295.264,138.46,377.739,247.027,82.667,108.821,163.341,203.9,441.869,170.195,567.109-68.626,1035.317-889.841,1631.791-889.841,652.067,0,67.015,1200.952,901.246,1200.952S3358.839-555.651,3358.839-555.651" transform="translate(30.519 249.966)" fill="none" stroke="rgba(0,157,255,0.5)" stroke-miterlimit="10" stroke-width="1"/>
      <path id="Path_843" data-name="Path 843" d="M-2618.948,29.487c118.042-343.7,268.014-579.046,731.289-536.335,227.1,20.937,291.8,137.616,374.974,243.855,83.24,106.322,163.948,198.138,437.973,162.866C-515.645-172.085-54.17-984.979,538.948-984.979c651.357,0,87.757,1191.556,920.481,1191.556S3339.4-540.34,3339.4-540.34" transform="translate(29.842 261.869)" fill="none" stroke="rgba(0,157,255,0.5)" stroke-miterlimit="10" stroke-width="1"/>
      <path id="Path_844" data-name="Path 844" d="M-2620.518,42.483c123.41-335.891,271.774-560.941,727.66-516.276,223.343,21.882,288.332,136.772,372.211,240.684,83.807,103.823,164.558,192.369,434.076,155.538C-535.541-152.87-80.806-957.435,508.955-957.435c650.648,0,108.5,1182.159,939.716,1182.159S3319.952-525.029,3319.952-525.029" transform="translate(29.163 273.773)" fill="none" stroke="rgba(0,157,255,0.5)" stroke-miterlimit="10" stroke-width="1"/>
      <path id="Path_845" data-name="Path 845" d="M-2622.087,55.482c128.774-328.08,275.53-542.839,724.029-496.218,219.59,22.826,284.86,135.929,369.446,237.512,84.371,101.324,165.17,186.6,430.18,148.211,543-78.653,990.988-874.878,1577.393-874.878,649.939,0,129.244,1172.763,958.953,1172.763S3300.507-509.718,3300.507-509.718" transform="translate(28.485 285.675)" fill="none" stroke="rgba(0,157,255,0.5)" stroke-miterlimit="10" stroke-width="1"/>
      <path id="Path_846" data-name="Path 846" d="M-2623.656,68.479c134.139-320.269,279.285-524.74,720.4-476.161,215.836,23.768,281.385,135.085,366.682,234.34,84.93,98.826,165.784,180.819,426.283,140.883C-575.318-114.472-134.08-902.348,448.969-902.348c649.23,0,149.986,1163.366,978.188,1163.366S3281.063-494.408,3281.063-494.408" transform="translate(27.807 297.579)" fill="none" stroke="rgba(0,157,255,0.5)" stroke-miterlimit="10" stroke-width="1"/>
      <path id="Path_847" data-name="Path 847" d="M-2625.226,81.476c139.505-312.457,283.042-506.642,716.77-456.1,212.081,24.712,277.9,134.243,363.918,231.169,85.486,96.328,166.4,175.035,422.386,133.556C-595.2-95.288-160.715-874.8,418.977-874.8,1067.5-874.8,589.706,279.166,1416.4,279.166S3261.62-479.1,3261.62-479.1" transform="translate(27.128 309.482)" fill="none" stroke="rgba(0,157,255,0.5)" stroke-miterlimit="10" stroke-width="1"/>
      <path id="Path_848" data-name="Path 848" d="M-2626.795,94.473c144.87-304.646,286.8-488.545,713.139-436.046,208.326,25.653,274.42,133.4,361.154,228,86.035,93.832,167.018,169.244,418.49,126.229,518.943-88.769,946.661-859.914,1523-859.914,647.812,0,191.472,1144.574,1016.66,1144.574s1836.531-761.1,1836.531-761.1" transform="translate(26.45 321.385)" fill="none" stroke="rgba(0,157,255,0.5)" stroke-miterlimit="10" stroke-width="1"/>
      <path id="Path_849" data-name="Path 849" d="M-2628.364,107.471c150.235-296.835,290.549-470.451,709.508-415.989,204.569,26.592,270.931,132.561,358.391,224.825,86.581,91.337,167.64,163.448,414.594,118.9C-634.939-56.956-213.989-819.718,358.99-819.718c647.1,0,212.214,1135.179,1035.9,1135.179S3222.731-448.475,3222.731-448.475" transform="translate(25.772 333.288)" fill="none" stroke="rgba(0,157,255,0.5)" stroke-miterlimit="10" stroke-width="1"/>
      <path id="Path_850" data-name="Path 850" d="M-2629.934,120.467c155.6-289.022,294.3-452.359,705.879-395.93,200.814,27.532,267.438,131.721,355.626,221.652,87.122,88.844,168.263,157.643,410.7,111.574C-654.8-37.809-240.624-792.174,329-792.174c646.393,0,232.956,1125.781,1055.131,1125.781S3203.287-433.165,3203.287-433.165" transform="translate(25.094 345.192)" fill="none" stroke="rgba(0,157,255,0.5)" stroke-miterlimit="10" stroke-width="1"/>
      <path id="Path_851" data-name="Path 851" d="M-2631.5,133.465c160.966-281.211,298.053-434.269,702.25-375.873,197.056,28.468,263.938,130.883,352.86,218.48,87.66,86.352,168.889,151.832,406.8,104.247,494.932-98.994,902.331-844.95,1468.6-844.95,645.684,0,253.7,1116.386,1074.368,1116.386S3183.842-417.854,3183.842-417.854" transform="translate(24.416 357.094)" fill="none" stroke="rgba(0,157,255,0.5)" stroke-miterlimit="10" stroke-width="1"/>
      <path id="Path_852" data-name="Path 852" d="M-2633.072,146.463c166.331-273.4,301.8-416.184,698.62-355.817,193.3,29.406,260.435,130.049,350.1,215.309,88.191,83.863,169.514,146.013,402.9,96.918C-694.513.446-293.9-737.087,269.013-737.087c644.975,0,274.442,1106.989,1093.6,1106.989S3164.4-402.543,3164.4-402.543" transform="translate(23.738 368.998)" fill="none" stroke="rgba(0,157,255,0.5)" stroke-miterlimit="10" stroke-width="1"/>
      <path id="Path_853" data-name="Path 853" d="M-2634.642,159.461c171.7-265.589,305.555-398.1,694.991-335.759,189.542,30.342,256.928,129.215,347.333,212.137,88.718,81.375,170.143,140.185,399.008,89.592C-714.361,19.551-320.534-709.544,239.021-709.544c644.266,0,295.185,1097.593,1112.84,1097.593S3144.955-387.233,3144.955-387.233" transform="translate(23.059 380.901)" fill="none" stroke="rgba(0,157,255,0.5)" stroke-miterlimit="10" stroke-width="1"/>
      <path id="Path_854" data-name="Path 854" d="M-2636.211,172.457c177.064-257.777,309.3-380.016,691.36-315.7,185.784,31.275,253.416,128.383,344.569,208.965,89.24,78.89,170.775,134.349,395.111,82.265C-734.2,38.639-347.17-682,209.027-682,852.585-682,524.956,406.2,1341.1,406.2S3125.511-371.922,3125.511-371.922" transform="translate(22.381 392.804)" fill="none" stroke="rgba(0,157,255,0.5)" stroke-miterlimit="10" stroke-width="1"/>
      <path id="Path_855" data-name="Path 855" d="M-2637.78,185.455c182.428-249.966,313.051-361.939,687.729-295.643,182.026,32.206,249.9,127.555,341.8,205.793,89.758,76.41,171.406,128.5,391.214,74.938,462.986-112.83,843.226-825,1396.066-825,642.849,0,336.672,1078.8,1151.312,1078.8s1775.72-780.954,1775.72-780.954" transform="translate(21.703 404.708)" fill="none" stroke="rgba(0,157,255,0.5)" stroke-miterlimit="10" stroke-width="1"/>
      <path id="Path_856" data-name="Path 856" d="M-2639.35,198.453c187.795-242.155,316.8-343.864,684.1-275.586C-1776.983-44-1708.872,49.6-1616.209,125.487c90.271,73.931,172.039,122.65,387.317,67.609C-773.881,76.765-400.441-626.913,149.042-626.913c642.14,0,357.414,1069.4,1170.547,1069.4S3086.623-341.3,3086.623-341.3" transform="translate(21.024 416.61)" fill="none" stroke="rgba(0,157,255,0.5)" stroke-miterlimit="10" stroke-width="1"/>
      <path id="Path_857" data-name="Path 857" d="M-2640.919,211.449c193.16-234.343,320.544-325.792,680.47-255.529,174.507,34.067,242.851,125.91,336.276,199.45,90.779,71.458,172.674,116.785,383.422,60.282C-793.714,95.8-427.079-599.369,119.05-599.369c641.429,0,378.156,1060.008,1189.783,1060.008s1758.346-786.63,1758.346-786.63" transform="translate(20.347 428.514)" fill="none" stroke="rgba(0,157,255,0.5)" stroke-miterlimit="10" stroke-width="1"/>
      <path id="Path_858" data-name="Path 858" d="M-2642.489,224.447C-2443.963-2.085-2318.2-83.277-1965.648-11.024c170.747,34.993,239.319,125.092,333.512,196.277,91.283,68.987,173.308,110.909,379.525,52.955,439.065-123.393,798.9-810.034,1341.669-810.034,640.72,0,398.9,1050.611,1209.018,1050.611S3047.734-310.681,3047.734-310.681" transform="translate(19.668 440.417)" fill="none" stroke="rgba(0,157,255,0.5)" stroke-miterlimit="10" stroke-width="1"/>
      <path id="Path_859" data-name="Path 859" d="M-2644.058,237.444c203.891-218.721,328.036-289.66,673.21-215.414,166.988,35.919,235.785,124.278,330.748,193.105,91.783,66.521,173.943,105.023,375.628,45.627C-833.375,133.808-480.35-544.282,59.065-544.282c640.011,0,419.641,1041.215,1228.255,1041.215s1740.972-792.3,1740.972-792.3" transform="translate(18.99 452.32)" fill="none" stroke="rgba(0,157,255,0.5)" stroke-miterlimit="10" stroke-width="1"/>
      <path id="Path_860" data-name="Path 860" d="M-2645.627,250.441c209.256-210.908,331.78-271.6,669.58-195.355,163.229,36.841,232.244,123.471,327.984,189.933,92.277,64.059,174.577,99.125,371.731,38.3C-853.2,152.778-506.987-516.739,29.072-516.739c639.3,0,440.384,1031.818,1247.49,1031.818S3008.847-280.059,3008.847-280.059" transform="translate(18.312 464.223)" fill="none" stroke="rgba(0,157,255,0.5)" stroke-miterlimit="10" stroke-width="1"/>
      <path id="Path_861" data-name="Path 861" d="M-2647.2,263.438c214.623-203.1,335.524-253.544,665.952-175.3,159.467,37.762,228.7,122.667,325.219,186.761,92.768,61.6,175.213,93.215,367.836,30.973,415.158-134.15,754.568-795.07,1287.27-795.07,638.594,0,461.128,1022.422,1266.725,1022.422S2989.4-264.749,2989.4-264.749" transform="translate(17.633 476.126)" fill="none" stroke="rgba(0,157,255,0.5)" stroke-miterlimit="10" stroke-width="1"/>
      <path id="Path_862" data-name="Path 862" d="M-2648.766,276.436C-2428.778,81.15-2309.5,40.944-1986.444,121.195c155.707,38.681,225.152,121.872,322.455,183.59,93.257,59.152,175.846,87.293,363.939,23.645C-892.861,190.646-560.26-461.652-30.914-461.652c637.885,0,481.87,1013.027,1285.962,1013.027s1714.91-800.813,1714.91-800.813" transform="translate(16.955 488.029)" fill="none" stroke="rgba(0,157,255,0.5)" stroke-miterlimit="10" stroke-width="1"/>
      <path id="Path_863" data-name="Path 863" d="M-2650.335,289.433c225.353-187.474,343.01-217.446,658.691-135.183,151.946,39.6,221.6,121.08,319.691,180.418,93.74,56.708,176.477,81.357,360.042,16.318C-912.693,209.54-586.9-434.108-60.907-434.108c637.176,0,502.613,1003.629,1305.2,1003.629S2950.515-234.127,2950.515-234.127" transform="translate(16.277 499.933)" fill="none" stroke="rgba(0,157,255,0.5)" stroke-miterlimit="10" stroke-width="1"/>
      <path id="Path_864" data-name="Path 864" d="M-2651.905,302.431c230.719-179.663,346.754-199.407,655.062-115.125,148.187,40.509,218.047,120.3,316.926,177.245,94.222,54.269,177.108,75.407,356.145,8.991C-932.529,228.405-613.531-406.565-90.9-406.565c636.467,0,523.356,994.234,1324.434,994.234S2931.071-218.816,2931.071-218.816" transform="translate(15.599 511.836)" fill="none" stroke="rgba(0,157,255,0.5)" stroke-miterlimit="10" stroke-width="1"/>
      <path id="Path_865" data-name="Path 865" d="M-2653.474,315.428c236.084-171.852,350.5-181.371,651.432-95.068,144.426,41.419,214.49,119.516,314.163,174.073,94.7,51.836,177.735,69.442,352.249,1.664,383.26-148.856,695.463-775.118,1214.739-775.118,635.757,0,544.1,984.836,1343.668,984.836s1688.85-809.321,1688.85-809.321" transform="translate(14.921 523.739)" fill="none" stroke="rgba(0,157,255,0.5)" stroke-miterlimit="10" stroke-width="1"/>
      <path id="Path_866" data-name="Path 866" d="M-2655.043,328.426c241.449-164.041,354.24-163.343,647.8-75.011,140.667,42.326,210.931,118.746,311.4,170.9,95.177,49.409,178.358,63.465,348.353-5.664,375.271-152.605,680.686-770.13,1196.607-770.13,635.046,0,564.84,975.441,1362.9,975.441S2892.182-188.195,2892.182-188.195" transform="translate(14.243 535.642)" fill="none" stroke="rgba(0,157,255,0.5)" stroke-miterlimit="10" stroke-width="1"/>
      <path id="Path_867" data-name="Path 867" d="M-2656.613,341.422c246.815-156.228,357.985-145.321,644.172-54.953,136.906,43.231,207.369,117.983,308.634,167.73,95.651,46.991,178.977,57.471,344.456-12.991C-992.077,284.821-693.441-323.934-180.877-323.934c634.337,0,585.584,966.044,1382.14,966.044S2872.739-172.884,2872.739-172.884" transform="translate(13.564 547.545)" fill="none" stroke="rgba(0,157,255,0.5)" stroke-miterlimit="10" stroke-width="1"/>
      <path id="Path_868" data-name="Path 868" d="M-2658.182,354.42c252.18-148.417,361.73-127.306,640.541-34.9,133.148,44.132,203.806,117.226,305.87,164.558,96.124,44.577,179.591,51.46,340.559-20.318C-1011.948,303.559-720.077-296.391-210.87-296.391c633.628,0,606.327,956.649,1401.377,956.649S2853.295-157.573,2853.295-157.573" transform="translate(12.886 559.448)" fill="none" stroke="rgba(0,157,255,0.5)" stroke-miterlimit="10" stroke-width="1"/>
      <path id="Path_869" data-name="Path 869" d="M-2659.752,367.418c257.548-140.606,365.478-109.3,636.912-14.839,129.388,45.029,200.242,116.477,303.106,161.386,96.595,42.173,180.2,45.435,336.663-27.646,351.24-164.057,636.358-755.166,1142.208-755.166,632.919,0,627.069,947.252,1420.612,947.252s1654.1-820.668,1654.1-820.668" transform="translate(12.208 571.352)" fill="none" stroke="rgba(0,157,255,0.5)" stroke-miterlimit="10" stroke-width="1"/>
      <path id="Path_870" data-name="Path 870" d="M-2661.321,380.414c262.913-132.794,369.226-91.3,633.283,5.22,125.63,45.921,196.674,115.737,300.339,158.215,97.069,39.772,180.8,39.391,332.768-34.975C-1051.733,340.928-773.35-241.3-270.856-241.3c632.21,0,647.812,937.856,1439.849,937.856s1645.414-823.5,1645.414-823.5" transform="translate(11.529 583.254)" fill="none" stroke="rgba(0,157,255,0.5)" stroke-miterlimit="10" stroke-width="1"/>
      <path id="Path_871" data-name="Path 871" d="M-2662.89,393.412c268.278-124.983,372.977-73.308,629.653,25.278,121.874,46.81,193.109,115,297.575,155.043,97.54,37.382,181.39,33.333,328.871-42.3C-1071.653,359.557-799.986-213.76-300.849-213.76c631.5,0,668.556,928.459,1459.084,928.459S2794.963-111.641,2794.963-111.641" transform="translate(10.852 595.158)" fill="none" stroke="rgba(0,157,255,0.5)" stroke-miterlimit="10" stroke-width="1"/>
      <path id="Path_872" data-name="Path 872" d="M-2664.46,406.41c273.644-117.172,376.732-55.326,626.023,45.335,118.119,47.694,189.545,114.28,294.811,151.87,98.013,35,181.97,27.257,324.974-49.63,327.053-175.839,592.03-740.2,1087.811-740.2,630.791,0,689.3,919.063,1478.319,919.063S2775.518-96.332,2775.518-96.332" transform="translate(10.173 607.061)" fill="none" stroke="rgba(0,157,255,0.5)" stroke-miterlimit="10" stroke-width="1"/>
      <path id="Path_873" data-name="Path 873" d="M-2666.029,419.406c279.009-109.36,380.49-37.352,622.393,65.392,114.365,48.576,185.98,113.564,292.047,148.7,98.485,32.622,182.539,21.164,321.078-56.957,318.939-179.848,577.253-735.214,1069.678-735.214,630.082,0,710.04,909.667,1497.555,909.667S2756.074-81.021,2756.074-81.021" transform="translate(9.495 618.964)" fill="none" stroke="rgba(0,157,255,0.5)" stroke-miterlimit="10" stroke-width="1"/>
      <path id="Path_874" data-name="Path 874" d="M-2667.6,432.4c284.374-101.549,384.252-19.39,618.762,85.45,110.614,49.451,182.418,112.857,289.283,145.527,98.961,30.253,183.093,15.055,317.182-64.284C-1131.577,415.2-879.9-131.13-390.826-131.13c629.373,0,730.783,900.272,1516.791,900.272S2736.631-65.71,2736.631-65.71" transform="translate(8.817 630.867)" fill="none" stroke="rgba(0,157,255,0.5)" stroke-miterlimit="10" stroke-width="1"/>
      <path id="Path_875" data-name="Path 875" d="M-2669.168,445.4c289.74-93.738,388.021-1.438,615.133,105.507,106.866,50.322,178.858,112.157,286.519,142.355,99.438,27.89,183.634,8.928,313.285-71.612,302.614-187.985,547.7-725.238,1033.412-725.238,628.664,0,751.525,890.874,1536.027,890.874S2717.188-50.4,2717.188-50.4" transform="translate(8.138 642.77)" fill="none" stroke="rgba(0,157,255,0.5)" stroke-miterlimit="10" stroke-width="1"/>
      <path id="Path_876" data-name="Path 876" d="M-2670.737,458.4c295.1-85.925,391.8,16.506,611.5,125.566,103.121,51.188,175.3,111.465,283.755,139.183,99.917,25.535,184.157,2.787,309.387-78.939C-1171.7,452.091-933.167-76.043-450.812-76.043c627.956,0,772.268,881.479,1555.264,881.479S2697.742-35.089,2697.742-35.089" transform="translate(7.46 654.673)" fill="none" stroke="rgba(0,157,255,0.5)" stroke-miterlimit="10" stroke-width="1"/>
      <path id="Path_877" data-name="Path 877" d="M-2672.306,471.4c300.471-78.114,395.578,34.435,607.872,145.623,99.379,52.048,171.745,110.78,280.991,136.011,100.4,23.187,184.661-3.371,305.492-86.266C-1191.83,470.474-959.8-48.5-480.8-48.5c627.247,0,793.012,872.081,1574.5,872.081S2678.3-19.778,2678.3-19.778" transform="translate(6.782 666.576)" fill="none" stroke="rgba(0,157,255,0.5)" stroke-miterlimit="10" stroke-width="1"/>
      <path id="Path_878" data-name="Path 878" d="M-2673.876,484.394c305.837-70.3,399.37,52.354,604.243,165.679,95.642,52.905,168.194,110.1,278.227,132.84,100.887,20.845,185.145-9.545,301.6-93.593C-1212.011,488.815-986.44-20.956-510.8-20.956c626.538,0,813.755,862.686,1593.735,862.686S2658.855-4.468,2658.855-4.468" transform="translate(6.104 678.48)" fill="none" stroke="rgba(0,157,255,0.5)" stroke-miterlimit="10" stroke-width="1"/>
      <path id="Path_879" data-name="Path 879" d="M-2675.445,497.39c311.2-62.491,403.173,70.262,600.613,185.738,91.91,53.755,164.647,109.435,275.463,129.668,101.377,18.509,185.6-15.731,297.7-100.921C-1232.249,507.116-1013.076,6.588-540.789,6.588c625.827,0,834.5,853.29,1612.969,853.29S2639.41,10.843,2639.41,10.843" transform="translate(5.426 690.383)" fill="none" stroke="rgba(0,157,255,0.5)" stroke-miterlimit="10" stroke-width="1"/>
      <path id="Path_880" data-name="Path 880" d="M-2677.014,512.8c316.567-54.68,406.988,88.157,596.983,205.8,88.182,54.6,161.1,108.772,272.7,126.5,101.872,16.179,186.04-21.929,293.8-108.248,260.981-209.049,473.82-700.3,942.75-700.3,625.118,0,855.239,843.892,1632.2,843.892S2619.966,28.561,2619.966,28.561" transform="translate(4.748 699.879)" fill="none" stroke="rgba(0,157,255,0.5)" stroke-miterlimit="10" stroke-width="1"/>
      <path id="Path_881" data-name="Path 881" d="M-2678.584,529.484c321.934-46.869,410.817,106.04,593.355,225.853,84.461,55.439,157.564,108.115,269.933,123.323,102.372,13.855,186.45-28.139,289.906-115.575,252.468-213.376,459.042-695.311,924.615-695.311,624.409,0,875.982,834.5,1651.442,834.5S2600.522,47.563,2600.522,47.563" transform="translate(4.069 708.091)" fill="none" stroke="rgba(0,157,255,0.5)" stroke-miterlimit="10" stroke-width="1"/>
      <path id="Path_882" data-name="Path 882" d="M-2680.153,546.173c327.3-39.058,414.664,123.912,589.724,245.91,80.749,56.274,154.033,107.465,267.169,120.151,102.878,11.535,186.83-34.357,286.009-122.9C-1293.371,571.6-1092.985,99.009-630.768,99.009c623.7,0,896.724,825.1,1670.677,825.1S2581.078,66.565,2581.078,66.565" transform="translate(3.391 716.302)" fill="none" stroke="rgba(0,157,255,0.5)" stroke-miterlimit="10" stroke-width="1"/>
      <path id="Path_883" data-name="Path 883" d="M-2681.723,562.861c332.664-31.245,418.529,141.774,586.095,265.968,77.046,57.1,150.507,106.822,264.4,116.98,103.388,9.22,187.177-40.582,282.112-130.231,235.212-222.118,429.49-685.335,888.35-685.335,622.992,0,917.468,815.7,1689.914,815.7S2561.634,85.567,2561.634,85.567" transform="translate(2.712 724.514)" fill="none" stroke="rgba(0,157,255,0.5)" stroke-miterlimit="10" stroke-width="1"/>
      <path id="Path_884" data-name="Path 884" d="M-2683.292,579.55c338.029-23.434,422.415,159.624,582.465,286.025,73.35,57.931,146.985,106.183,261.641,113.808,103.9,6.91,187.494-46.809,278.215-137.557,226.456-226.523,414.715-680.347,870.218-680.347,622.283,0,938.211,806.308,1709.149,806.308S2542.19,104.569,2542.19,104.569" transform="translate(2.035 732.726)" fill="none" stroke="rgba(0,157,255,0.5)" stroke-miterlimit="10" stroke-width="1"/>
      <path id="Path_885" data-name="Path 885" d="M-2684.861,596.239c343.394-15.623,426.325,177.466,578.834,306.082,69.667,58.753,143.471,105.549,258.877,110.636,104.427,4.6,187.774-53.036,274.318-144.886,217.606-230.944,399.939-675.359,852.085-675.359,621.574,0,958.953,796.911,1728.386,796.911S2522.747,123.571,2522.747,123.571" transform="translate(1.356 740.938)" fill="none" stroke="rgba(0,157,255,0.5)" stroke-miterlimit="10" stroke-width="1"/>
      <path id="Path_886" data-name="Path 886" d="M-2686.431,612.927c348.762-7.811,430.454,195.09,575.2,326.141,66.081,59.476,139.96,105.075,256.113,107.463,104.953,2.442,188.02-59.26,270.423-152.213,208.661-235.374,385.16-670.37,833.953-670.37,620.863,0,979.695,787.515,1747.62,787.515S2503.3,142.573,2503.3,142.573" transform="translate(0.678 749.15)" fill="none" stroke="rgba(0,157,255,0.5)" stroke-miterlimit="10" stroke-width="1"/>
      <path id="Path_887" data-name="Path 887" d="M-2688,629.616c514.845,0,450.49,450.49,824.923,450.49s462.19-824.923,1082.346-824.923S219.708,1033.3,986.126,1033.3,2483.858,161.574,2483.858,161.574" transform="translate(0 757.361)" fill="none" stroke="rgba(0,157,255,0.5)" stroke-miterlimit="10" stroke-width="1"/>
    </g>
  </g>
</svg>
