<svg xmlns="http://www.w3.org/2000/svg" xmlns:xlink="http://www.w3.org/1999/xlink" width="1920" height="1381" viewBox="0 0 1920 1381">
  <defs>
    <clipPath id="clip-path">
      <rect id="Rectangle_2" data-name="Rectangle 2" width="1920" height="1381" transform="translate(-2140.851 -878.691)" fill="none"/>
    </clipPath>
  </defs>
  <g id="wave_bg_faq" transform="translate(2140.851 878.691)" clip-path="url(#clip-path)">
    <g id="Group_39" data-name="Group 39" transform="translate(-2243.334 -986.923)">
      <path id="Path_219" data-name="Path 219" d="M0,632.5c0-244.356,79.123-463.35,346.66-463.35S441.673,471.4,756.716,471.4,1331.795,0,1616.834,0s-157.521,662.735,212.53,662.735S2714.485,338.3,2714.485,338.3" transform="translate(63.396 0)" fill="none" stroke="#009dff" stroke-miterlimit="10" stroke-width="1"/>
      <path id="Path_220" data-name="Path 220" d="M0,625.605c2.293-240.653,80.737-454.8,345.109-453.843,130.708.434,155.5,73.553,185.062,147.15,30.128,75.221,64.813,150.8,222.147,150.125C1063.881,467.316,1321.083,0,1604.688,0c284.736,0-148.658,658.282,220.75,658.282S2706.847,332.5,2706.847,332.5" transform="translate(62.435 18.696)" fill="none" stroke="#009dff" stroke-miterlimit="10" stroke-width="1"/>
      <path id="Path_221" data-name="Path 221" d="M0,618.711C4.586,381.76,82.349,172.463,343.558,174.374c129.107.867,154,73.181,183.881,145.647,30.359,74.063,65.054,148,220.482,146.652C1056,463.229,1310.37,0,1592.54,0c284.433,0-139.792,653.828,228.97,653.828s877.7-327.123,877.7-327.123" transform="translate(61.475 37.393)" fill="none" stroke="#009dff" stroke-miterlimit="10" stroke-width="1"/>
      <path id="Path_222" data-name="Path 222" d="M0,611.817c6.879-233.249,83.962-437.7,342.006-434.83,127.506,1.3,152.505,72.81,182.7,144.143C555.294,394.037,590,466.336,743.523,464.31,1048.123,459.143,1299.656,0,1580.392,0c284.13,0-130.927,649.375,237.192,649.375s873.984-328.468,873.984-328.468" transform="translate(60.515 56.089)" fill="none" stroke="#009dff" stroke-miterlimit="10" stroke-width="1"/>
      <path id="Path_223" data-name="Path 223" d="M0,604.922C9.172,375.376,85.575,175.776,340.455,179.6c125.9,1.734,151.155,72.362,181.518,142.64,30.966,71.671,65.54,142.791,217.152,139.706C1040.258,455.818,1288.944,0,1568.245,0c283.827,0-122.062,644.921,245.412,644.921s870.271-329.813,870.271-329.813" transform="translate(59.554 74.786)" fill="none" stroke="#009dff" stroke-miterlimit="10" stroke-width="1"/>
      <path id="Path_224" data-name="Path 224" d="M0,598.028c11.465-225.844,87.188-420.6,338.9-415.817,124.3,2.169,149.694,71.971,180.337,141.137,31.231,70.493,65.785,140.087,215.486,136.233C1032.387,451.918,1278.231,0,1556.1,0c283.523,0-113.2,640.467,253.633,640.467S2676.29,309.31,2676.29,309.31" transform="translate(58.593 93.482)" fill="none" stroke="#009dff" stroke-miterlimit="10" stroke-width="1"/>
      <path id="Path_225" data-name="Path 225" d="M0,591.133C13.758,368.992,88.8,179.09,337.352,184.823c122.7,2.6,148.233,71.578,179.156,139.634,31.5,69.314,66.029,137.382,213.821,132.76C1024.518,448.016,1267.518,0,1543.95,0c283.22,0-104.332,636.014,261.854,636.014s862.845-332.5,862.845-332.5" transform="translate(57.633 112.178)" fill="none" stroke="#009dff" stroke-miterlimit="10" stroke-width="1"/>
      <path id="Path_226" data-name="Path 226" d="M0,584.239C16.052,365.8,90.414,180.747,335.8,187.436c121.1,3.036,146.77,71.185,177.975,138.13C545.534,393.7,580.05,460.241,725.931,454.853,1016.651,444.114,1256.806,0,1531.8,0c282.918,0-95.467,631.56,270.075,631.56s859.133-333.846,859.133-333.846" transform="translate(56.672 130.874)" fill="none" stroke="#009dff" stroke-miterlimit="10" stroke-width="1"/>
      <path id="Path_227" data-name="Path 227" d="M0,577.344C18.345,362.607,92.026,182.4,334.25,190.048c119.5,3.469,145.307,70.791,176.793,136.626,32.021,66.955,66.521,131.969,210.49,125.814C1008.785,440.209,1246.092,0,1519.656,0c282.614,0-86.6,627.107,278.3,627.107s855.42-335.191,855.42-335.191" transform="translate(55.712 149.571)" fill="none" stroke="#009dff" stroke-miterlimit="10" stroke-width="1"/>
      <path id="Path_228" data-name="Path 228" d="M0,570.45c20.637-211.035,93.64-386.39,332.7-377.79,117.9,3.9,143.843,70.4,175.612,135.123,32.283,65.775,66.768,129.26,208.825,122.341C1000.921,436.3,1235.379,0,1507.508,0c282.311,0-77.738,622.653,286.517,622.653s851.708-336.536,851.708-336.536" transform="translate(54.752 168.268)" fill="none" stroke="#009dff" stroke-miterlimit="10" stroke-width="1"/>
      <path id="Path_229" data-name="Path 229" d="M0,563.555C22.931,356.223,95.253,185.716,331.147,195.272c116.3,4.338,142.379,70,174.431,133.62,32.544,64.593,67.016,126.55,207.16,118.869C993.06,432.394,1224.667,0,1495.361,0c282.008,0-68.873,618.2,294.737,618.2s847.995-337.88,847.995-337.88" transform="translate(53.791 186.964)" fill="none" stroke="#009dff" stroke-miterlimit="10" stroke-width="1"/>
      <path id="Path_230" data-name="Path 230" d="M0,556.661c25.224-203.63,96.865-369.288,329.6-358.777C444.294,202.654,470.508,267.49,502.845,330c32.8,63.412,67.265,123.84,205.495,115.4C985.2,428.483,1213.954,0,1483.214,0c281.7,0-60.009,613.746,302.958,613.746s844.282-339.224,844.282-339.224" transform="translate(52.83 205.66)" fill="none" stroke="#009dff" stroke-miterlimit="10" stroke-width="1"/>
      <path id="Path_231" data-name="Path 231" d="M0,549.767C27.517,349.839,98.478,189.029,328.045,200.5c113.1,5.2,139.445,69.21,172.067,130.613,33.061,62.23,67.515,121.127,203.829,111.922C977.344,424.57,1203.241,0,1471.067,0c281.4,0-51.143,609.292,311.179,609.292s840.57-340.568,840.57-340.568" transform="translate(51.869 224.357)" fill="none" stroke="#009dff" stroke-miterlimit="10" stroke-width="1"/>
      <path id="Path_232" data-name="Path 232" d="M0,542.872C29.81,346.647,100.091,190.686,326.493,203.108c111.5,5.638,137.977,68.813,170.885,129.109,33.319,61.048,67.766,118.414,202.164,108.45C969.488,420.655,1192.528,0,1458.919,0c281.1,0-42.278,604.839,319.4,604.839s836.857-341.913,836.857-341.913" transform="translate(50.909 243.053)" fill="none" stroke="#009dff" stroke-miterlimit="10" stroke-width="1"/>
      <path id="Path_233" data-name="Path 233" d="M0,535.978C32.1,343.455,101.679,192.863,324.942,205.721c109.883,6.328,136.508,68.416,169.7,127.606,33.575,59.866,68.018,115.7,200.5,104.977C961.634,416.737,1181.815,0,1446.772,0c280.8,0-33.413,600.386,327.621,600.386s833.145-343.258,833.145-343.258" transform="translate(49.949 261.749)" fill="none" stroke="#009dff" stroke-miterlimit="10" stroke-width="1"/>
      <path id="Path_234" data-name="Path 234" d="M0,529.083c34.4-188.82,103.289-334.529,323.391-320.751,108.28,6.779,135.038,68.019,168.523,126.1,33.83,58.683,68.27,112.981,198.834,101.5C953.784,412.816,1171.1,0,1434.625,0c280.492,0-24.549,595.932,335.841,595.932S2599.9,251.33,2599.9,251.33" transform="translate(48.988 280.446)" fill="none" stroke="#009dff" stroke-miterlimit="10" stroke-width="1"/>
      <path id="Path_235" data-name="Path 235" d="M0,522.189C36.69,337.071,104.9,196.244,321.839,210.945c106.677,7.229,133.566,67.621,167.342,124.6,34.084,57.5,68.524,110.263,197.169,98.031C945.935,408.893,1160.389,0,1422.478,0c280.189,0-15.684,591.479,344.062,591.479s825.72-345.947,825.72-345.947" transform="translate(48.027 299.142)" fill="none" stroke="#009dff" stroke-miterlimit="10" stroke-width="1"/>
      <path id="Path_236" data-name="Path 236" d="M0,515.294c38.982-181.415,106.505-317.36,320.288-301.737,105.074,7.679,132.094,67.222,166.16,123.1,34.336,56.315,68.779,107.542,195.5,94.558C938.089,404.967,1149.676,0,1410.33,0c279.887,0-6.819,587.025,352.283,587.025S2584.62,239.734,2584.62,239.734" transform="translate(47.067 317.839)" fill="none" stroke="#009dff" stroke-miterlimit="10" stroke-width="1"/>
      <path id="Path_237" data-name="Path 237" d="M0,508.4C41.276,330.687,108.114,199.624,318.737,216.17c103.47,8.128,130.619,66.823,164.979,121.593,34.587,55.131,69.035,104.82,193.838,91.085C930.245,401.038,1138.964,0,1398.183,0c279.584,0,2.045,582.572,360.5,582.572s818.294-348.635,818.294-348.635" transform="translate(46.106 336.535)" fill="none" stroke="#009dff" stroke-miterlimit="10" stroke-width="1"/>
      <path id="Path_238" data-name="Path 238" d="M0,501.506C43.568,327.495,109.721,201.312,317.185,218.782c101.867,8.577,129.144,66.423,163.8,120.089,34.836,53.946,69.291,102.1,192.173,87.612C922.4,397.1,1128.251,0,1386.035,0c279.281,0,10.911,578.118,368.725,578.118s814.581-349.98,814.581-349.98" transform="translate(45.146 355.232)" fill="none" stroke="#009dff" stroke-miterlimit="10" stroke-width="1"/>
      <path id="Path_239" data-name="Path 239" d="M0,494.612C45.861,324.3,111.328,203,315.634,221.394,415.9,230.42,443.3,287.419,478.25,339.98c35.083,52.762,69.548,99.37,190.508,84.139C914.563,393.169,1117.538,0,1373.888,0c278.978,0,19.776,573.665,376.946,573.665S2561.7,222.34,2561.7,222.34" transform="translate(44.185 373.928)" fill="none" stroke="#009dff" stroke-miterlimit="10" stroke-width="1"/>
      <path id="Path_240" data-name="Path 240" d="M0,487.717C48.155,321.111,112.935,204.688,314.083,224.006c98.659,9.475,126.187,65.625,161.435,117.083,35.33,51.578,69.807,96.641,188.842,80.667C906.726,389.228,1106.825,0,1361.741,0c278.675,0,28.64,569.211,385.167,569.211s807.156-352.669,807.156-352.669" transform="translate(43.225 392.625)" fill="none" stroke="#009dff" stroke-miterlimit="10" stroke-width="1"/>
      <path id="Path_241" data-name="Path 241" d="M0,480.823c50.447-162.9,114.541-274.448,312.532-254.2,97.055,9.923,124.706,65.225,160.253,115.579,35.575,50.393,70.066,93.911,187.177,77.193C898.891,385.285,1096.112,0,1349.594,0c278.371,0,37.5,564.757,393.387,564.757s803.444-354.013,803.444-354.013" transform="translate(42.264 411.32)" fill="none" stroke="#009dff" stroke-miterlimit="10" stroke-width="1"/>
      <path id="Path_242" data-name="Path 242" d="M0,473.928c52.742-159.2,116.148-265.867,310.981-244.7,95.45,10.371,123.225,64.826,159.072,114.076,35.817,49.209,70.327,91.177,185.511,73.72C891.059,381.337,1085.4,0,1337.447,0c278.068,0,46.37,560.3,401.608,560.3s799.732-355.358,799.732-355.358" transform="translate(41.303 430.017)" fill="none" stroke="#009dff" stroke-miterlimit="10" stroke-width="1"/>
      <path id="Path_243" data-name="Path 243" d="M0,467.034c55.034-155.5,117.754-257.288,309.429-235.191,93.846,10.819,121.741,64.426,157.891,112.573,36.058,48.024,70.589,88.441,183.847,70.247C883.229,377.384,1074.686,0,1325.3,0c277.765,0,55.235,555.85,409.829,555.85s796.018-356.7,796.018-356.7" transform="translate(40.343 448.713)" fill="none" stroke="#009dff" stroke-miterlimit="10" stroke-width="1"/>
      <path id="Path_244" data-name="Path 244" d="M0,460.139c57.327-151.8,119.359-248.709,307.877-225.684,92.242,11.265,120.256,64.026,156.71,111.069,36.3,46.84,70.851,85.7,182.181,66.774C875.4,373.427,1063.973,0,1313.151,0c277.462,0,64.1,551.4,418.049,551.4S2523.507,193.35,2523.507,193.35" transform="translate(39.383 467.41)" fill="none" stroke="#009dff" stroke-miterlimit="10" stroke-width="1"/>
      <path id="Path_245" data-name="Path 245" d="M0,453.245C59.62,305.151,120.964,213.114,306.327,237.067,396.964,248.78,425.1,300.694,461.855,346.633c36.534,45.656,71.114,82.961,180.516,63.3C867.576,369.465,1053.261,0,1301,0c277.159,0,72.964,546.944,426.271,546.944s788.593-359.391,788.593-359.391" transform="translate(38.422 486.106)" fill="none" stroke="#009dff" stroke-miterlimit="10" stroke-width="1"/>
      <path id="Path_246" data-name="Path 246" d="M0,446.35C61.913,301.959,122.568,214.8,304.775,239.679c89.032,12.159,117.279,63.228,154.347,108.063,36.769,44.473,71.379,80.216,178.851,59.828C859.753,365.5,1042.548,0,1288.857,0c276.856,0,81.83,542.49,434.491,542.49s784.88-360.735,784.88-360.735" transform="translate(37.461 504.803)" fill="none" stroke="#009dff" stroke-miterlimit="10" stroke-width="1"/>
      <path id="Path_247" data-name="Path 247" d="M0,439.457c64.206-140.69,124.172-222.978,303.224-197.165,87.427,12.6,115.788,62.829,153.166,106.559,37,43.291,71.645,77.469,177.185,56.355C851.933,361.523,1031.835,0,1276.709,0c276.554,0,90.694,538.037,442.713,538.037s781.168-362.08,781.168-362.08" transform="translate(36.501 523.499)" fill="none" stroke="#009dff" stroke-miterlimit="10" stroke-width="1"/>
      <path id="Path_248" data-name="Path 248" d="M0,432.561C66.5,295.574,125.776,218.159,301.672,244.9c85.822,13.049,114.3,62.432,151.984,105.056,37.234,42.109,71.911,74.718,175.52,52.882C844.115,357.544,1021.122,0,1264.563,0c276.25,0,99.559,533.582,450.932,533.582s777.455-363.424,777.455-363.424" transform="translate(35.54 542.196)" fill="none" stroke="#009dff" stroke-miterlimit="10" stroke-width="1"/>
      <path id="Path_249" data-name="Path 249" d="M0,425.668C68.792,292.383,127.379,219.839,300.121,247.516c84.216,13.493,112.8,62.034,150.8,103.552C488.387,392,523.1,423.032,624.779,400.478,836.3,353.559,1010.409,0,1252.415,0c275.947,0,108.424,529.13,459.154,529.13s773.743-364.769,773.743-364.769" transform="translate(34.58 560.892)" fill="none" stroke="#009dff" stroke-miterlimit="10" stroke-width="1"/>
      <path id="Path_250" data-name="Path 250" d="M0,418.773C71.085,289.19,128.983,221.516,298.571,250.128c82.61,13.938,111.3,61.639,149.621,102.049,37.69,39.748,72.446,69.205,172.189,45.936C828.485,349.566,999.7,0,1240.268,0c275.644,0,117.288,524.676,467.375,524.676s770.03-366.114,770.03-366.114" transform="translate(33.619 579.588)" fill="none" stroke="#009dff" stroke-miterlimit="10" stroke-width="1"/>
      <path id="Path_251" data-name="Path 251" d="M0,411.879C73.379,286,130.585,223.193,297.019,252.74c81,14.381,109.8,61.244,148.44,100.546,37.916,38.569,72.715,66.443,170.525,42.463C820.673,345.566,988.983,0,1228.12,0c275.341,0,126.154,520.222,475.6,520.222s766.317-367.458,766.317-367.458" transform="translate(32.658 598.284)" fill="none" stroke="#009dff" stroke-miterlimit="10" stroke-width="1"/>
      <path id="Path_252" data-name="Path 252" d="M0,404.984C75.672,282.806,132.187,224.869,295.467,255.353c79.4,14.823,108.3,60.849,147.259,99.042,38.139,37.391,72.984,63.677,168.859,38.991C812.863,341.559,978.27,0,1215.973,0c275.038,0,135.019,515.769,483.817,515.769s762.6-368.8,762.6-368.8" transform="translate(31.698 616.981)" fill="none" stroke="#009dff" stroke-miterlimit="10" stroke-width="1"/>
      <path id="Path_253" data-name="Path 253" d="M0,398.09C77.965,279.614,133.789,226.542,293.916,257.964c77.792,15.265,106.8,60.457,146.077,97.539,38.36,36.216,73.254,60.907,167.193,35.518C805.054,337.544,967.558,0,1203.826,0c274.735,0,143.884,511.315,492.037,511.315s758.892-370.146,758.892-370.146" transform="translate(30.738 635.678)" fill="none" stroke="#009dff" stroke-miterlimit="10" stroke-width="1"/>
      <path id="Path_254" data-name="Path 254" d="M0,391.2c80.258-114.773,135.391-162.98,292.365-130.618,76.186,15.706,105.294,60.065,144.9,96.035,38.579,35.041,73.525,58.132,165.528,32.045C797.248,333.52,956.845,0,1191.678,0c274.432,0,152.748,506.862,500.258,506.862s755.18-371.491,755.18-371.491" transform="translate(29.777 654.374)" fill="none" stroke="#009dff" stroke-miterlimit="10" stroke-width="1"/>
      <path id="Path_255" data-name="Path 255" d="M0,384.3C82.551,273.23,136.991,229.886,290.813,263.188c74.579,16.147,103.788,59.677,143.715,94.532,38.8,33.869,73.8,55.352,163.863,28.572C789.442,329.487,946.131,0,1179.531,0c274.128,0,161.613,502.408,508.479,502.408s751.467-372.836,751.467-372.836" transform="translate(28.816 673.071)" fill="none" stroke="#009dff" stroke-miterlimit="10" stroke-width="1"/>
      <path id="Path_256" data-name="Path 256" d="M0,377.407C84.844,270.038,138.593,231.556,289.262,265.8,362.235,282.387,391.54,325.091,431.8,358.83c39.012,32.7,74.067,52.567,162.2,25.1C781.638,325.445,935.419,0,1167.385,0c273.825,0,170.478,497.955,516.7,497.955s747.754-374.18,747.754-374.18" transform="translate(27.856 691.767)" fill="none" stroke="#009dff" stroke-miterlimit="10" stroke-width="1"/>
      <path id="Path_257" data-name="Path 257" d="M0,370.512c87.137-103.666,140.193-137.289,287.711-102.1,71.366,17.024,100.768,58.9,141.352,91.525,39.225,31.529,74.338,49.777,160.533,21.626C773.834,321.392,924.706,0,1155.237,0c273.522,0,179.342,493.5,524.921,493.5S2424.2,117.976,2424.2,117.976" transform="translate(26.895 710.463)" fill="none" stroke="#009dff" stroke-miterlimit="10" stroke-width="1"/>
      <path id="Path_258" data-name="Path 258" d="M0,363.618c89.43-99.963,141.793-128.729,286.159-92.592,69.759,17.461,99.255,58.521,140.171,90.022C465.766,391.409,500.939,408.03,585.2,379.2,766.03,317.328,913.993,0,1143.089,0c273.22,0,188.208,489.047,533.141,489.047s740.329-376.869,740.329-376.869" transform="translate(25.935 729.159)" fill="none" stroke="#009dff" stroke-miterlimit="10" stroke-width="1"/>
      <path id="Path_259" data-name="Path 259" d="M0,356.723c91.724-96.261,143.394-120.171,284.609-83.085,68.151,17.9,97.74,58.14,138.989,88.518,39.646,29.2,74.881,44.181,157.2,14.68C758.227,313.254,903.281,0,1130.942,0c272.917,0,197.073,484.594,541.362,484.594S2408.921,106.38,2408.921,106.38" transform="translate(24.974 747.856)" fill="none" stroke="#009dff" stroke-miterlimit="10" stroke-width="1"/>
      <path id="Path_260" data-name="Path 260" d="M0,349.829C94.017,257.27,144.993,238.214,283.057,276.25c66.545,18.334,96.224,57.763,137.808,87.015C460.72,391.3,496.017,404.639,576.4,374.472,750.423,309.167,892.567,0,1118.795,0c272.613,0,205.937,480.141,549.583,480.141s732.9-379.558,732.9-379.558" transform="translate(24.014 766.552)" fill="none" stroke="#009dff" stroke-miterlimit="10" stroke-width="1"/>
      <path id="Path_261" data-name="Path 261" d="M0,342.934c96.309-88.856,146.593-103.062,281.505-64.072,64.938,18.767,94.706,57.388,136.627,85.512,40.062,26.878,75.422,38.56,153.871,7.734C742.618,305.067,881.854,0,1106.647,0c272.311,0,214.8,475.687,557.8,475.687s729.191-380.9,729.191-380.9" transform="translate(23.053 785.249)" fill="none" stroke="#009dff" stroke-miterlimit="10" stroke-width="1"/>
      <path id="Path_262" data-name="Path 262" d="M0,336.04c98.6-85.154,148.193-94.512,279.955-54.566,63.331,19.2,93.187,57.016,135.445,84.008,40.267,25.722,75.691,35.741,152.206,4.262C734.812,300.955,871.142,0,1094.5,0c272.007,0,223.667,471.234,566.025,471.234S2386,88.987,2386,88.987" transform="translate(22.092 803.945)" fill="none" stroke="#009dff" stroke-miterlimit="10" stroke-width="1"/>
      <path id="Path_263" data-name="Path 263" d="M0,329.146c100.9-81.452,149.792-85.964,278.4-45.059,61.723,19.631,91.667,56.647,134.264,82.5,40.472,24.568,75.959,32.913,150.541.789C727,296.828,860.429,0,1082.353,0c271.7,0,232.532,466.779,574.245,466.779S2378.364,83.188,2378.364,83.188" transform="translate(21.132 822.642)" fill="none" stroke="#009dff" stroke-miterlimit="10" stroke-width="1"/>
      <path id="Path_264" data-name="Path 264" d="M0,322.252C103.189,244.5,151.392,244.833,276.852,286.7c60.117,20.061,90.146,56.282,133.083,81,40.676,23.418,76.225,30.08,148.876-2.685C719.19,292.686,849.716,0,1070.205,0c271.4,0,241.4,462.327,582.466,462.327S2370.725,77.391,2370.725,77.391" transform="translate(20.172 841.338)" fill="none" stroke="#009dff" stroke-miterlimit="10" stroke-width="1"/>
      <path id="Path_265" data-name="Path 265" d="M0,315.357c105.482-74.047,152.993-68.877,275.3-26.046,58.51,20.49,88.624,55.92,131.9,79.5,40.878,22.272,76.489,27.239,147.21-6.157C711.375,288.529,839,0,1058.058,0c271.1,0,250.261,457.872,590.687,457.872s714.341-386.28,714.341-386.28" transform="translate(19.211 860.035)" fill="none" stroke="#009dff" stroke-miterlimit="10" stroke-width="1"/>
      <path id="Path_266" data-name="Path 266" d="M0,308.463c107.775-70.345,154.593-60.339,273.749-16.54,56.9,20.917,87.1,55.561,130.72,77.995,41.081,21.128,76.752,24.39,145.545-9.63C703.553,284.356,828.29,0,1045.911,0c270.794,0,259.126,453.419,598.908,453.419S2355.447,65.795,2355.447,65.795" transform="translate(18.251 878.731)" fill="none" stroke="#009dff" stroke-miterlimit="10" stroke-width="1"/>
      <path id="Path_267" data-name="Path 267" d="M0,301.568c110.068-66.643,156.195-51.8,272.2-7.033,55.3,21.342,85.577,55.206,129.539,76.491,41.282,19.988,77.012,21.535,143.88-13.1C695.727,280.166,817.578,0,1033.764,0c270.491,0,267.991,448.966,607.129,448.966S2347.807,60,2347.807,60" transform="translate(17.29 897.427)" fill="none" stroke="#009dff" stroke-miterlimit="10" stroke-width="1"/>
      <path id="Path_268" data-name="Path 268" d="M0,294.674c112.362-62.94,157.8-43.273,270.647,2.474C324.338,318.913,354.7,352,399,372.136c41.484,18.851,77.268,18.67,142.215-16.577C687.892,275.959,806.865,0,1021.616,0c270.189,0,276.856,444.512,615.35,444.512S2340.169,54.2,2340.169,54.2" transform="translate(16.329 916.123)" fill="none" stroke="#009dff" stroke-miterlimit="10" stroke-width="1"/>
      <path id="Path_269" data-name="Path 269" d="M0,287.779c114.654-59.238,159.4-34.745,269.1,11.981,52.086,22.186,82.53,54.508,127.176,73.485,41.686,17.718,77.521,15.8,140.55-20.05C680.049,271.733,796.151,0,1009.468,0c269.886,0,285.722,440.059,623.571,440.059S2332.529,48.4,2332.529,48.4" transform="translate(15.369 934.82)" fill="none" stroke="#009dff" stroke-miterlimit="10" stroke-width="1"/>
      <path id="Path_270" data-name="Path 270" d="M0,280.885c116.948-55.536,161-26.223,267.544,21.487,50.481,22.605,81.006,54.165,125.994,71.981,41.888,16.588,77.769,12.919,138.884-23.523C672.2,267.489,785.439,0,997.322,0c269.582,0,294.585,435.605,631.791,435.605s695.777-393,695.777-393" transform="translate(14.408 953.516)" fill="none" stroke="#009dff" stroke-miterlimit="10" stroke-width="1"/>
      <path id="Path_271" data-name="Path 271" d="M0,273.99c119.241-51.833,162.611-17.7,265.993,30.994,48.876,23.023,79.482,53.826,124.812,70.479,42.09,15.462,78.011,10.031,137.22-27C664.331,263.225,774.727,0,985.175,0c269.279,0,303.451,431.152,640.012,431.152S2317.251,36.8,2317.251,36.8" transform="translate(13.448 972.213)" fill="none" stroke="#009dff" stroke-miterlimit="10" stroke-width="1"/>
      <path id="Path_272" data-name="Path 272" d="M0,267.1c121.533-48.131,164.218-9.19,264.441,40.5,47.273,23.438,77.96,53.49,123.631,68.975,42.293,14.339,78.249,7.135,135.554-30.468C656.451,258.943,764.013,0,973.027,0,1242,0,1285.343,426.7,1621.26,426.7S2309.612,31.007,2309.612,31.007" transform="translate(12.487 990.909)" fill="none" stroke="#009dff" stroke-miterlimit="10" stroke-width="1"/>
      <path id="Path_273" data-name="Path 273" d="M0,260.2c123.826-44.429,165.829-.681,262.89,50.007,45.672,23.851,76.439,53.158,122.45,67.471,42.5,13.219,78.48,4.232,133.889-33.942C648.557,254.64,753.3,0,960.88,0c268.673,0,321.18,422.244,656.454,422.244s684.64-397.036,684.64-397.036" transform="translate(11.526 1009.606)" fill="none" stroke="#009dff" stroke-miterlimit="10" stroke-width="1"/>
      <path id="Path_274" data-name="Path 274" d="M0,253.307c126.119-40.726,167.442,7.823,261.339,59.514,44.071,24.261,74.918,52.831,121.269,65.968,42.7,12.1,78.7,1.321,132.224-37.415C640.646,250.318,742.588,0,948.732,0c268.37,0,330.045,417.792,664.675,417.792S2294.334,19.411,2294.334,19.411" transform="translate(10.566 1028.302)" fill="none" stroke="#009dff" stroke-miterlimit="10" stroke-width="1"/>
      <path id="Path_275" data-name="Path 275" d="M0,246.413c128.413-37.023,169.058,16.321,259.787,69.021,42.472,24.669,73.4,52.506,120.087,64.464,42.908,10.99,78.919-1.6,130.559-40.887C632.713,245.976,731.874,0,936.585,0c268.067,0,338.91,413.337,672.9,413.337S2286.694,13.613,2286.694,13.613" transform="translate(9.606 1046.998)" fill="none" stroke="#009dff" stroke-miterlimit="10" stroke-width="1"/>
      <path id="Path_276" data-name="Path 276" d="M0,239.519c130.706-33.321,170.679,24.814,258.236,78.526,40.875,25.075,71.881,52.186,118.906,62.962,43.116,9.88,79.126-4.524,128.893-44.36C624.759,241.614,721.161,0,924.438,0c267.764,0,347.776,408.884,681.117,408.884s673.5-401.069,673.5-401.069" transform="translate(8.645 1065.694)" fill="none" stroke="#009dff" stroke-miterlimit="10" stroke-width="1"/>
      <path id="Path_277" data-name="Path 277" d="M0,232.624c133-29.619,172.3,33.3,256.685,88.034,39.28,25.478,70.365,51.869,117.725,61.458,43.326,8.773,79.322-7.456,127.228-47.833C616.781,237.233,710.449,0,912.291,0c267.46,0,356.639,404.431,689.337,404.431S2271.416,2.017,2271.416,2.017" transform="translate(7.684 1084.391)" fill="none" stroke="#009dff" stroke-miterlimit="10" stroke-width="1"/>
      <path id="Path_278" data-name="Path 278" d="M0,229.511c135.292-25.916,173.935,41.783,255.134,97.54,37.687,25.878,68.851,51.555,116.543,59.955,43.537,7.668,79.508-10.394,125.562-51.306,111.536-99.082,202.5-331.918,402.9-331.918,267.158,0,365.5,399.977,697.558,399.977S2263.777,0,2263.777,0" transform="translate(6.724 1099.307)" fill="none" stroke="#009dff" stroke-miterlimit="10" stroke-width="1"/>
      <path id="Path_279" data-name="Path 279" d="M0,228.414C137.585,206.2,175.571,278.674,253.582,335.461c36.1,26.276,67.339,51.243,115.362,58.451,43.751,6.567,79.683-13.337,123.9-54.779C600.739,238,689.023,9.579,888,9.579c266.854,0,374.37,395.524,705.778,395.524S2256.138,0,2256.138,0" transform="translate(5.763 1112.205)" fill="none" stroke="#009dff" stroke-miterlimit="10" stroke-width="1"/>
      <path id="Path_280" data-name="Path 280" d="M0,227.318c139.878-18.512,177.216,58.73,252.031,116.553,34.51,26.672,65.829,50.935,114.18,56.948,43.967,5.467,79.845-16.284,122.232-58.252,104.227-103.2,189.866-327.189,387.4-327.189,266.552,0,383.234,391.069,714,391.069S2248.5,0,2248.5,0" transform="translate(4.803 1125.103)" fill="none" stroke="#009dff" stroke-miterlimit="10" stroke-width="1"/>
      <path id="Path_281" data-name="Path 281" d="M0,226.221c142.172-14.809,178.868,67.2,250.481,126.06,32.927,27.066,64.322,50.63,113,55.445,44.185,4.37,79.994-19.234,120.567-61.725C584.569,240.724,667.6,21.175,863.7,21.175c266.249,0,392.1,386.617,722.221,386.617S2240.86,0,2240.86,0" transform="translate(3.842 1138.002)" fill="none" stroke="#009dff" stroke-miterlimit="10" stroke-width="1"/>
      <path id="Path_282" data-name="Path 282" d="M0,225.125c144.464-11.107,180.528,75.656,248.929,135.566,31.348,27.457,62.817,50.327,111.818,53.941,44.406,3.275,80.13-22.186,118.9-65.2C576.428,242.071,656.884,26.973,851.554,26.973c265.946,0,400.965,382.163,730.441,382.163S2233.221,0,2233.221,0" transform="translate(2.881 1150.9)" fill="none" stroke="#009dff" stroke-miterlimit="10" stroke-width="1"/>
      <path id="Path_283" data-name="Path 283" d="M0,224.029c146.757-7.4,182.2,84.113,247.377,145.073,29.774,27.847,61.315,50.027,110.637,52.438,44.629,2.182,80.249-25.137,117.236-68.671,93-109.46,170.922-320.1,364.157-320.1,265.643,0,409.829,377.709,738.662,377.709S2225.582,0,2225.582,0" transform="translate(1.921 1163.798)" fill="none" stroke="#009dff" stroke-miterlimit="10" stroke-width="1"/>
      <path id="Path_284" data-name="Path 284" d="M0,222.932c149.051-3.7,183.964,92.466,245.826,154.58,28.241,28.19,59.815,49.8,109.455,50.934,44.854,1.157,80.354-28.087,115.571-72.144C560.028,244.743,635.459,38.569,827.26,38.569c265.339,0,418.693,373.256,746.883,373.256S2217.943,0,2217.943,0" transform="translate(0.96 1176.697)" fill="none" stroke="#009dff" stroke-miterlimit="10" stroke-width="1"/>
      <path id="Path_285" data-name="Path 285" d="M0,221.836c220.03,0,192.526,213.517,352.548,213.517S550.076,44.367,815.112,44.367s427.558,368.8,755.1,368.8S2210.3,0,2210.3,0" transform="translate(0 1189.595)" fill="none" stroke="#009dff" stroke-miterlimit="10" stroke-width="1"/>
    </g>
  </g>
</svg>
