<svg xmlns="http://www.w3.org/2000/svg" xmlns:xlink="http://www.w3.org/1999/xlink" width="940" height="312" viewBox="0 0 940 312">
  <defs>
    <clipPath id="clip-path">
      <rect id="Rectangle_2" data-name="Rectangle 2" width="940" height="312" transform="translate(11.999 384.824)" fill="none"/>
    </clipPath>
  </defs>
  <g id="wave_header" transform="translate(1627.85 449.841)">
    <g id="wave_header-2" data-name="wave_header" transform="translate(-1639.849 -834.666)" clip-path="url(#clip-path)">
      <g id="Group_7" data-name="Group 7" transform="translate(-590.482 -572.415)">
        <path id="Path_72" data-name="Path 72" d="M-2584.422-885.674c0-272.467,97.844-516.654,428.683-516.654s117.494,337.022,507.08,337.022,711.148-525.631,1063.63-525.631S-779.822-851.961-322.214-851.961,772.335-1213.718,772.335-1213.718" transform="translate(2662.818 1590.936)" fill="none" stroke="rgba(0,157,255,0.5)" stroke-miterlimit="10" stroke-width="1"/>
        <path id="Path_73" data-name="Path 73" d="M-2585.992-865.819c2.836-268.338,99.84-507.118,426.765-506.053,161.635.484,192.287,82.014,228.85,164.079,37.257,83.874,80.149,168.148,274.709,167.4,385.281-1.92,703.339-523,1054.047-523,352.107,0-183.831,734.01,272.981,734.01S761.319-1192.64,761.319-1192.64" transform="translate(2663.2 1584.24)" fill="none" stroke="rgba(0,157,255,0.5)" stroke-miterlimit="10" stroke-width="1"/>
        <path id="Path_74" data-name="Path 74" d="M-2587.561-845.962c5.671-264.21,101.834-497.584,424.847-495.453,159.656.967,190.438,81.6,227.389,162.4,37.542,82.583,80.446,165.029,272.65,163.522,380.977-3.84,695.53-520.359,1044.464-520.359,351.733,0-172.868,729.043,283.147,729.043S750.3-1171.561,750.3-1171.561" transform="translate(2663.582 1577.543)" fill="none" stroke="rgba(0,157,255,0.5)" stroke-miterlimit="10" stroke-width="1"/>
        <path id="Path_75" data-name="Path 75" d="M-2589.13-826.106c8.506-260.082,103.828-488.05,422.928-484.852,157.675,1.45,188.589,81.186,225.928,160.725,37.826,81.293,80.744,161.909,270.591,159.65,376.672-5.761,687.721-517.723,1034.881-517.723,351.358,0-161.906,724.078,293.313,724.078S739.287-1150.483,739.287-1150.483" transform="translate(2663.963 1570.847)" fill="none" stroke="rgba(0,157,255,0.5)" stroke-miterlimit="10" stroke-width="1"/>
        <path id="Path_76" data-name="Path 76" d="M-2590.7-806.251c11.343-255.953,105.823-478.514,421.01-474.252,155.7,1.934,186.919,80.687,224.467,159.049,38.292,79.915,81.048,159.218,268.531,155.778,372.384-6.832,679.911-515.087,1025.3-515.087,350.983,0-150.943,719.112,303.479,719.112S728.271-1129.4,728.271-1129.4" transform="translate(2664.345 1564.151)" fill="none" stroke="rgba(0,157,255,0.5)" stroke-miterlimit="10" stroke-width="1"/>
        <path id="Path_77" data-name="Path 77" d="M-2592.269-786.394c14.178-251.825,107.817-468.98,419.092-463.652,153.716,2.418,185.112,80.25,223.006,157.373,38.62,78.6,81.35,156.2,266.472,151.9,368.09-8.544,672.1-512.451,1015.715-512.451,350.608,0-139.981,714.146,313.646,714.146S717.255-1108.326,717.255-1108.326" transform="translate(2664.726 1557.454)" fill="none" stroke="rgba(0,157,255,0.5)" stroke-miterlimit="10" stroke-width="1"/>
        <path id="Path_78" data-name="Path 78" d="M-2593.838-766.538c17.013-247.7,109.812-459.445,417.173-453.052,151.736,2.9,183.306,79.813,221.546,155.7,38.947,77.288,81.653,153.186,264.412,148.033,363.8-10.259,664.294-509.814,1006.132-509.814,350.233,0-129.018,709.18,323.811,709.18s1067-370.753,1067-370.753" transform="translate(2665.108 1550.758)" fill="none" stroke="rgba(0,157,255,0.5)" stroke-miterlimit="10" stroke-width="1"/>
        <path id="Path_79" data-name="Path 79" d="M-2595.408-746.683c19.85-243.568,111.807-449.909,415.255-442.451,149.756,3.385,181.5,79.374,220.085,154.02,39.272,75.973,81.956,150.169,262.354,144.16,359.506-11.975,656.484-507.179,996.548-507.179,349.859,0-118.056,704.214,333.978,704.214S695.223-1066.169,695.223-1066.169" transform="translate(2665.49 1544.062)" fill="none" stroke="rgba(0,157,255,0.5)" stroke-miterlimit="10" stroke-width="1"/>
        <path id="Path_80" data-name="Path 80" d="M-2596.977-726.826c22.685-239.44,113.8-440.375,413.336-431.851,147.776,3.868,179.689,78.934,218.624,152.344,39.6,74.657,82.26,147.15,260.294,140.287,355.218-13.692,648.674-504.542,986.966-504.542,349.483,0-107.094,699.249,344.143,699.249S684.208-1045.09,684.208-1045.09" transform="translate(2665.87 1537.366)" fill="none" stroke="rgba(0,157,255,0.5)" stroke-miterlimit="10" stroke-width="1"/>
        <path id="Path_81" data-name="Path 81" d="M-2598.546-706.97c25.521-235.312,115.8-430.84,411.417-421.251,145.8,4.352,177.878,78.495,217.163,150.667,39.921,73.341,82.566,144.13,258.235,136.415,350.933-15.412,640.866-501.906,977.383-501.906,349.109,0-96.132,694.283,354.309,694.283s1053.23-375.251,1053.23-375.251" transform="translate(2666.252 1530.669)" fill="none" stroke="rgba(0,157,255,0.5)" stroke-miterlimit="10" stroke-width="1"/>
        <path id="Path_82" data-name="Path 82" d="M-2600.116-687.115c28.357-231.183,117.791-421.305,409.5-410.651,143.817,4.837,176.067,78.055,215.7,148.992,40.243,72.024,82.872,141.109,256.175,132.543,346.65-17.134,633.057-499.27,967.8-499.27,348.734,0-85.169,689.317,364.475,689.317S662.175-1002.933,662.175-1002.933" transform="translate(2666.634 1523.973)" fill="none" stroke="rgba(0,157,255,0.5)" stroke-miterlimit="10" stroke-width="1"/>
        <path id="Path_83" data-name="Path 83" d="M-2601.685-667.258c31.192-227.055,119.784-411.771,407.581-400.051,141.836,5.319,174.254,77.614,214.241,147.315,40.564,70.707,83.181,138.086,254.117,128.671,342.369-18.859,625.247-496.634,958.217-496.634,348.359,0-74.207,684.351,374.641,684.351S651.16-981.855,651.16-981.855" transform="translate(2667.015 1517.277)" fill="none" stroke="rgba(0,157,255,0.5)" stroke-miterlimit="10" stroke-width="1"/>
        <path id="Path_84" data-name="Path 84" d="M-2603.255-647.4c34.028-222.927,121.78-402.236,405.664-389.451,139.856,5.8,172.439,77.172,212.78,145.639,40.884,69.389,83.49,135.062,252.057,124.8,338.091-20.586,617.438-494,948.634-494,347.984,0-63.245,679.385,384.807,679.385S640.144-960.776,640.144-960.776" transform="translate(2667.397 1510.581)" fill="none" stroke="rgba(0,157,255,0.5)" stroke-miterlimit="10" stroke-width="1"/>
        <path id="Path_85" data-name="Path 85" d="M-2604.824-627.547c36.863-218.8,123.774-392.7,403.745-378.85,137.877,6.287,170.624,76.73,211.319,143.962,41.2,68.071,83.8,132.036,250,120.926,333.816-22.315,609.629-491.362,939.051-491.362,347.61,0-52.282,674.419,394.973,674.419S629.127-939.7,629.127-939.7" transform="translate(2667.779 1503.884)" fill="none" stroke="rgba(0,157,255,0.5)" stroke-miterlimit="10" stroke-width="1"/>
        <path id="Path_86" data-name="Path 86" d="M-2606.393-607.691c39.7-214.67,125.737-382.586,401.826-368.249,135.882,7.056,168.808,76.286,209.858,142.286C-1953.189-766.9-1910.6-704.646-1746.77-716.6c329.543-24.048,601.821-488.726,929.468-488.726,347.235,0-41.319,669.454,405.139,669.454S618.112-918.619,618.112-918.619" transform="translate(2668.16 1497.188)" fill="none" stroke="rgba(0,157,255,0.5)" stroke-miterlimit="10" stroke-width="1"/>
        <path id="Path_87" data-name="Path 87" d="M-2607.963-587.834c42.535-210.542,127.728-373.013,399.908-357.65,133.9,7.559,166.989,75.843,208.4,140.61,41.834,65.433,84.424,125.979,245.88,113.181,325.273-25.783,594.011-486.089,919.885-486.089,346.86,0-30.358,664.487,415.3,664.487S607.1-897.54,607.1-897.54" transform="translate(2668.542 1490.491)" fill="none" stroke="rgba(0,157,255,0.5)" stroke-miterlimit="10" stroke-width="1"/>
        <path id="Path_88" data-name="Path 88" d="M-2609.532-567.978c45.371-206.414,129.717-363.442,397.99-347.05,131.918,8.061,165.169,75.4,206.937,138.933,42.148,64.113,84.738,122.947,243.821,109.308,321.005-27.522,586.2-483.454,910.3-483.454,346.485,0-19.4,659.522,425.47,659.522S596.08-876.462,596.08-876.462" transform="translate(2668.923 1483.795)" fill="none" stroke="rgba(0,157,255,0.5)" stroke-miterlimit="10" stroke-width="1"/>
        <path id="Path_89" data-name="Path 89" d="M-2611.1-548.123C-2562.9-750.408-2479.4-901.992-2215.03-884.572c129.936,8.562,163.348,74.955,205.476,137.257,42.46,62.793,85.052,119.914,241.761,105.436C-1451.052-671.142-1189.4-1122.7-867.074-1122.7c346.11,0-8.432,654.555,435.637,654.555s1016.5-387.243,1016.5-387.243" transform="translate(2669.305 1477.099)" fill="none" stroke="rgba(0,157,255,0.5)" stroke-miterlimit="10" stroke-width="1"/>
        <path id="Path_90" data-name="Path 90" d="M-2612.671-528.267c51.042-198.157,133.694-344.3,394.153-325.849,127.953,9.063,161.525,74.511,204.015,135.58,42.77,61.473,85.369,116.879,239.7,101.563,312.48-31.009,570.584-478.181,891.137-478.181,345.736,0,2.53,649.59,445.8,649.59S574.048-834.3,574.048-834.3" transform="translate(2669.686 1470.403)" fill="none" stroke="rgba(0,157,255,0.5)" stroke-miterlimit="10" stroke-width="1"/>
        <path id="Path_91" data-name="Path 91" d="M-2614.24-508.41c53.877-194.029,135.682-334.728,392.234-315.249,125.97,9.564,159.7,74.065,202.554,133.9,43.079,60.152,85.686,113.841,237.643,97.691,308.22-32.758,562.774-475.545,881.553-475.545,345.361,0,13.492,644.624,455.969,644.624S563.032-813.226,563.032-813.226" transform="translate(2670.067 1463.706)" fill="none" stroke="rgba(0,157,255,0.5)" stroke-miterlimit="10" stroke-width="1"/>
        <path id="Path_92" data-name="Path 92" d="M-2615.809-488.555c56.713-189.9,137.67-325.158,390.316-304.648,123.986,10.065,157.873,73.621,201.092,132.228,43.385,58.832,86,110.8,235.584,93.819,303.964-34.511,554.965-472.91,871.97-472.91,344.987,0,24.455,639.659,466.135,639.659S552.016-792.148,552.016-792.148" transform="translate(2670.449 1457.01)" fill="none" stroke="rgba(0,157,255,0.5)" stroke-miterlimit="10" stroke-width="1"/>
        <path id="Path_93" data-name="Path 93" d="M-2617.379-468.7c59.549-185.772,139.657-315.588,388.4-294.048,122,10.565,156.044,73.175,199.632,130.552,43.689,57.511,86.324,107.759,233.524,89.947,299.712-36.268,547.156-470.273,862.387-470.273,344.612,0,35.417,634.692,476.3,634.692S541-771.069,541-771.069" transform="translate(2670.831 1450.314)" fill="none" stroke="rgba(0,157,255,0.5)" stroke-miterlimit="10" stroke-width="1"/>
        <path id="Path_94" data-name="Path 94" d="M-2618.948-448.842c62.384-181.644,141.643-306.021,386.48-283.448,120.019,11.065,154.213,72.729,198.171,128.875,43.992,56.19,86.645,104.714,231.465,86.074,295.462-38.03,539.347-467.637,852.8-467.637,344.236,0,46.379,629.727,486.466,629.727S529.984-749.991,529.984-749.991" transform="translate(2671.212 1443.618)" fill="none" stroke="rgba(0,157,255,0.5)" stroke-miterlimit="10" stroke-width="1"/>
        <path id="Path_95" data-name="Path 95" d="M-2620.518-428.987c65.221-177.516,143.63-296.452,384.562-272.847,118.035,11.564,152.381,72.283,196.71,127.2,44.291,54.869,86.967,101.665,229.405,82.2,291.215-39.8,531.538-465,843.222-465,343.862,0,57.341,624.761,496.632,624.761S518.968-728.912,518.968-728.912" transform="translate(2671.594 1436.921)" fill="none" stroke="rgba(0,157,255,0.5)" stroke-miterlimit="10" stroke-width="1"/>
        <path id="Path_96" data-name="Path 96" d="M-2622.087-409.131c68.056-173.387,145.615-286.886,382.643-262.247,116.051,12.063,150.546,71.837,195.249,125.523,44.59,53.549,87.291,98.615,227.347,78.328,286.971-41.567,523.728-462.365,833.638-462.365,343.487,0,68.3,619.795,506.8,619.795S507.952-707.834,507.952-707.834" transform="translate(2671.975 1430.225)" fill="none" stroke="rgba(0,157,255,0.5)" stroke-miterlimit="10" stroke-width="1"/>
        <path id="Path_97" data-name="Path 97" d="M-2623.656-389.274c70.891-169.259,147.6-277.32,380.724-251.647,114.067,12.561,148.709,71.391,193.788,123.846,44.885,52.229,87.615,95.561,225.287,74.455,282.729-43.343,515.919-459.728,824.056-459.728,343.112,0,79.266,614.829,516.964,614.829S496.936-686.755,496.936-686.755" transform="translate(2672.357 1423.529)" fill="none" stroke="rgba(0,157,255,0.5)" stroke-miterlimit="10" stroke-width="1"/>
        <path id="Path_98" data-name="Path 98" d="M-2625.226-369.419c73.727-165.131,149.585-267.756,378.806-241.047,112.083,13.06,146.87,70.946,192.328,122.171,45.178,50.909,87.941,92.5,223.228,70.583,278.491-45.125,508.111-457.093,814.473-457.093,342.738,0,90.229,609.864,527.13,609.864S485.92-665.677,485.92-665.677" transform="translate(2672.739 1416.832)" fill="none" stroke="rgba(0,157,255,0.5)" stroke-miterlimit="10" stroke-width="1"/>
        <path id="Path_99" data-name="Path 99" d="M-2626.795-349.563c76.563-161,151.569-258.192,376.888-230.447,110.1,13.557,145.029,70.5,190.867,120.494,45.469,49.589,88.267,89.444,221.168,66.711,274.257-46.914,500.3-454.457,804.89-454.457,342.363,0,101.191,604.9,537.3,604.9S474.9-644.6,474.9-644.6" transform="translate(2673.12 1410.136)" fill="none" stroke="rgba(0,157,255,0.5)" stroke-miterlimit="10" stroke-width="1"/>
        <path id="Path_100" data-name="Path 100" d="M-2628.364-329.707c79.4-156.875,153.553-248.629,374.969-219.846,108.113,14.054,143.185,70.057,189.406,118.818,45.758,48.271,88.6,86.381,219.109,62.838,270.023-48.708,492.492-451.821,795.306-451.821,341.988,0,112.153,599.932,547.462,599.932s966-403.733,966-403.733" transform="translate(2673.501 1403.44)" fill="none" stroke="rgba(0,157,255,0.5)" stroke-miterlimit="10" stroke-width="1"/>
        <path id="Path_101" data-name="Path 101" d="M-2629.934-309.851C-2547.7-462.6-2474.4-548.919-2256.883-519.1c106.129,14.55,141.339,69.614,187.946,117.141,46.043,46.953,88.925,83.313,217.05,58.966,265.794-50.509,484.683-449.184,785.724-449.184,341.613,0,123.115,594.965,557.627,594.965S452.872-602.441,452.872-602.441" transform="translate(2673.883 1396.743)" fill="none" stroke="rgba(0,157,255,0.5)" stroke-miterlimit="10" stroke-width="1"/>
        <path id="Path_102" data-name="Path 102" d="M-2631.5-289.995c85.069-148.618,157.519-229.507,371.133-198.645,104.143,15.045,139.489,69.171,186.484,115.465,46.327,45.636,89.256,80.242,214.99,55.094,261.568-52.317,476.874-446.549,776.141-446.549,341.238,0,134.078,590,567.794,590S441.856-581.362,441.856-581.362" transform="translate(2674.264 1390.047)" fill="none" stroke="rgba(0,157,255,0.5)" stroke-miterlimit="10" stroke-width="1"/>
        <path id="Path_103" data-name="Path 103" d="M-2633.072-270.139c87.9-144.49,159.5-219.949,369.215-188.046,102.156,15.541,137.637,68.729,185.023,113.789,46.608,44.321,89.587,77.167,212.931,51.221,257.343-54.132,469.065-443.912,766.558-443.912,340.864,0,145.04,585.034,577.96,585.034S430.84-560.284,430.84-560.284" transform="translate(2674.646 1383.351)" fill="none" stroke="rgba(0,157,255,0.5)" stroke-miterlimit="10" stroke-width="1"/>
        <path id="Path_104" data-name="Path 104" d="M-2634.642-250.283c90.741-140.362,161.483-210.392,367.3-177.446,100.171,16.035,135.784,68.289,183.562,112.113,46.886,43.006,89.919,74.087,210.872,47.348,253.121-55.956,461.255-441.276,756.975-441.276,340.489,0,156,580.068,588.126,580.068S419.824-539.205,419.824-539.205" transform="translate(2675.028 1376.655)" fill="none" stroke="rgba(0,157,255,0.5)" stroke-miterlimit="10" stroke-width="1"/>
        <path id="Path_105" data-name="Path 105" d="M-2636.211-230.427c93.577-136.233,163.464-200.835,365.378-166.845,98.185,16.529,133.928,67.849,182.1,110.436,47.163,41.693,90.253,71,208.812,43.476,248.9-57.789,453.446-438.64,747.392-438.64,340.115,0,166.965,575.1,598.292,575.1S408.809-518.127,408.809-518.127" transform="translate(2675.409 1369.958)" fill="none" stroke="rgba(0,157,255,0.5)" stroke-miterlimit="10" stroke-width="1"/>
        <path id="Path_106" data-name="Path 106" d="M-2637.78-210.571c96.412-132.1,165.445-191.282,363.459-156.245,96.2,17.021,132.069,67.412,180.641,108.76,47.436,40.382,90.587,67.914,206.753,39.6,244.684-59.629,445.638-436,737.809-436,339.74,0,177.928,570.136,608.458,570.136S397.792-497.048,397.792-497.048" transform="translate(2675.791 1363.262)" fill="none" stroke="rgba(0,157,255,0.5)" stroke-miterlimit="10" stroke-width="1"/>
        <path id="Path_107" data-name="Path 107" d="M-2639.35-190.715c99.248-127.977,167.426-181.729,361.541-145.645,94.212,17.513,130.208,66.975,179.18,107.083,47.707,39.072,90.921,64.819,204.694,35.731,240.469-61.48,437.829-433.368,728.226-433.368,339.365,0,188.89,565.171,618.624,565.171S386.776-475.969,386.776-475.969" transform="translate(2676.172 1356.566)" fill="none" stroke="rgba(0,157,255,0.5)" stroke-miterlimit="10" stroke-width="1"/>
        <path id="Path_108" data-name="Path 108" d="M-2640.919-170.859c102.083-123.848,169.4-172.178,359.622-135.045,92.225,18,128.344,66.542,177.719,105.407,47.976,37.765,91.257,61.72,202.635,31.859,236.255-63.341,430.018-430.732,718.643-430.732,338.99,0,199.852,560.2,628.79,560.2S375.761-454.891,375.761-454.891" transform="translate(2676.554 1349.869)" fill="none" stroke="rgba(0,157,255,0.5)" stroke-miterlimit="10" stroke-width="1"/>
        <path id="Path_109" data-name="Path 109" d="M-2642.489-151c104.919-119.72,171.385-162.629,357.7-124.444,90.239,18.494,126.478,66.11,176.259,103.731,48.242,36.459,91.592,58.615,200.575,27.986,232.042-65.212,422.21-428.1,709.06-428.1,338.615,0,210.815,555.239,638.955,555.239S364.744-433.813,364.744-433.813" transform="translate(2676.936 1343.173)" fill="none" stroke="rgba(0,157,255,0.5)" stroke-miterlimit="10" stroke-width="1"/>
        <path id="Path_110" data-name="Path 110" d="M-2644.058-131.146c107.755-115.592,173.365-153.083,355.786-113.844,88.252,18.983,124.61,65.68,174.8,102.054,48.506,35.156,91.927,55.5,198.516,24.114,227.831-67.095,414.4-425.459,699.477-425.459,338.24,0,221.777,550.273,649.122,550.273S353.728-412.734,353.728-412.734" transform="translate(2677.317 1336.477)" fill="none" stroke="rgba(0,157,255,0.5)" stroke-miterlimit="10" stroke-width="1"/>
        <path id="Path_111" data-name="Path 111" d="M-2645.627-111.291c110.59-111.463,175.343-143.538,353.867-103.243,86.265,19.47,122.739,65.253,173.337,100.378,48.768,33.855,92.263,52.387,196.457,20.241,223.62-68.99,406.592-422.824,689.894-422.824,337.866,0,232.739,545.307,659.287,545.307s915.5-420.224,915.5-420.224" transform="translate(2677.698 1329.781)" fill="none" stroke="rgba(0,157,255,0.5)" stroke-miterlimit="10" stroke-width="1"/>
        <path id="Path_112" data-name="Path 112" d="M-2647.2-91.435c113.427-107.335,177.322-134,351.95-92.643,84.276,19.957,120.866,64.829,171.875,98.7,49.027,32.557,92.6,49.263,194.4,16.369,219.408-70.9,398.783-420.187,680.311-420.187,337.491,0,243.7,540.341,669.453,540.341S331.7-370.577,331.7-370.577" transform="translate(2678.08 1323.084)" fill="none" stroke="rgba(0,157,255,0.5)" stroke-miterlimit="10" stroke-width="1"/>
        <path id="Path_113" data-name="Path 113" d="M-2648.766-71.579c116.262-103.207,179.3-124.456,350.031-82.044,82.29,20.443,118.991,64.408,170.415,97.026,49.285,31.262,92.933,46.134,192.338,12.5,215.2-72.817,390.973-417.551,670.728-417.551,337.116,0,254.664,535.376,679.62,535.376S320.68-349.5,320.68-349.5" transform="translate(2678.461 1316.388)" fill="none" stroke="rgba(0,157,255,0.5)" stroke-miterlimit="10" stroke-width="1"/>
        <path id="Path_114" data-name="Path 114" d="M-2650.335-51.723c119.1-99.078,181.278-114.918,348.112-71.443,80.3,20.926,117.114,63.99,168.954,95.349,49.541,29.97,93.267,43,190.279,8.624,210.984-74.753,383.165-414.915,661.145-414.915C-945.1-434.108-1016.219,96.3-592.06,96.3S309.665-328.42,309.665-328.42" transform="translate(2678.843 1309.692)" fill="none" stroke="rgba(0,157,255,0.5)" stroke-miterlimit="10" stroke-width="1"/>
        <path id="Path_115" data-name="Path 115" d="M-2651.905-31.867c121.933-94.95,183.257-105.385,346.195-60.843C-2227.4-71.3-2190.474-29.135-2138.218.963c49.8,28.681,93.6,39.852,188.219,4.752,206.769-76.7,375.356-412.279,651.562-412.279,336.367,0,276.589,525.444,699.952,525.444s897.133-426.22,897.133-426.22" transform="translate(2679.225 1302.995)" fill="none" stroke="rgba(0,157,255,0.5)" stroke-miterlimit="10" stroke-width="1"/>
        <path id="Path_116" data-name="Path 116" d="M-2653.474-12.011c124.769-90.822,185.234-95.853,344.276-50.243,76.328,21.89,113.356,63.163,166.032,92,50.048,27.395,93.931,36.7,186.161.879,202.549-78.669,367.546-409.643,641.979-409.643,335.992,0,287.551,520.477,710.117,520.477S287.632-286.263,287.632-286.263" transform="translate(2679.606 1296.299)" fill="none" stroke="rgba(0,157,255,0.5)" stroke-miterlimit="10" stroke-width="1"/>
        <path id="Path_117" data-name="Path 117" d="M-2655.043,7.845c127.6-86.694,187.213-86.326,342.357-39.643,74.341,22.369,111.476,62.756,164.572,90.32,50.3,26.112,94.26,33.541,184.1-2.993,198.328-80.65,359.737-407.007,632.4-407.007,335.616,0,298.513,515.512,720.283,515.512S276.617-265.184,276.617-265.184" transform="translate(2679.988 1289.603)" fill="none" stroke="rgba(0,157,255,0.5)" stroke-miterlimit="10" stroke-width="1"/>
        <path id="Path_118" data-name="Path 118" d="M-2656.613,27.7c130.44-82.565,189.192-76.8,340.439-29.042,72.354,22.847,109.593,62.353,163.111,88.644,50.551,24.834,94.587,30.373,182.042-6.866,194.1-82.649,351.928-404.371,622.813-404.371,335.242,0,309.476,510.546,730.449,510.546S265.6-244.106,265.6-244.106" transform="translate(2680.369 1282.906)" fill="none" stroke="rgba(0,157,255,0.5)" stroke-miterlimit="10" stroke-width="1"/>
        <path id="Path_119" data-name="Path 119" d="M-2658.182,47.557c133.275-78.437,191.171-67.28,338.52-18.442,70.367,23.323,107.71,61.953,161.65,86.967,50.8,23.559,94.912,27.2,179.982-10.738,189.868-84.667,344.119-401.735,613.23-401.735,334.867,0,320.439,505.58,740.615,505.58S254.585-223.027,254.585-223.027" transform="translate(2680.751 1276.21)" fill="none" stroke="rgba(0,157,255,0.5)" stroke-miterlimit="10" stroke-width="1"/>
        <path id="Path_120" data-name="Path 120" d="M-2659.752,67.413C-2523.64-6.9-2466.6,9.65-2323.149,59.571c68.38,23.8,105.826,61.557,160.189,85.291,51.05,22.288,95.233,24.012,177.924-14.611,185.627-86.7,336.309-399.1,603.646-399.1,334.492,0,331.4,500.614,750.781,500.614S243.569-201.948,243.569-201.948" transform="translate(2681.132 1269.514)" fill="none" stroke="rgba(0,157,255,0.5)" stroke-miterlimit="10" stroke-width="1"/>
        <path id="Path_121" data-name="Path 121" d="M-2661.321,87.269c138.947-70.18,195.133-48.251,334.685,2.759,66.394,24.269,103.941,61.166,158.727,83.615,51.3,21.019,95.55,20.818,175.865-18.484C-1810.668,66.4-1663.545-241.3-1397.981-241.3c334.118,0,342.363,495.649,760.948,495.649S232.553-180.87,232.553-180.87" transform="translate(2681.514 1262.818)" fill="none" stroke="rgba(0,157,255,0.5)" stroke-miterlimit="10" stroke-width="1"/>
        <path id="Path_122" data-name="Path 122" d="M-2662.89,107.125c141.782-66.052,197.115-38.743,332.766,13.359,64.409,24.739,102.057,60.778,157.266,81.939,51.549,19.756,95.863,17.616,173.806-22.356,177.117-90.834,320.691-393.827,584.481-393.827,333.743,0,353.326,490.683,771.113,490.683s865-436.714,865-436.714" transform="translate(2681.895 1256.121)" fill="none" stroke="rgba(0,157,255,0.5)" stroke-miterlimit="10" stroke-width="1"/>
        <path id="Path_123" data-name="Path 123" d="M-2664.46,126.981c144.619-61.924,199.1-29.239,330.848,23.959,62.425,25.206,100.173,60.4,155.805,80.262,51.8,18.5,96.17,14.4,171.746-26.229,172.845-92.929,312.883-391.19,574.9-391.19,333.368,0,364.287,485.717,781.279,485.717s860.4-438.213,860.4-438.213" transform="translate(2682.277 1249.425)" fill="none" stroke="rgba(0,157,255,0.5)" stroke-miterlimit="10" stroke-width="1"/>
        <path id="Path_124" data-name="Path 124" d="M-2666.029,146.837c147.454-57.8,201.085-19.74,328.929,34.559,60.441,25.672,98.289,60.018,154.344,78.586,52.049,17.24,96.47,11.185,169.687-30.1,168.556-95.048,305.073-388.554,565.315-388.554,332.993,0,375.25,480.751,791.444,480.751S199.5-117.635,199.5-117.635" transform="translate(2682.658 1242.729)" fill="none" stroke="rgba(0,157,255,0.5)" stroke-miterlimit="10" stroke-width="1"/>
        <path id="Path_125" data-name="Path 125" d="M-2667.6,166.693c150.289-53.668,203.074-10.247,327.01,45.159,58.459,26.134,96.407,59.644,152.884,76.91,52.3,15.988,96.763,7.956,167.628-33.973,164.252-97.188,297.264-385.919,555.732-385.919,332.618,0,386.212,475.786,801.611,475.786S188.489-96.556,188.489-96.556" transform="translate(2683.04 1236.032)" fill="none" stroke="rgba(0,157,255,0.5)" stroke-miterlimit="10" stroke-width="1"/>
        <path id="Path_126" data-name="Path 126" d="M-2669.168,186.549c153.125-49.54,205.066-.76,325.093,55.76,56.478,26.595,94.525,59.274,151.423,75.233,52.552,14.74,97.049,4.718,165.568-37.846,159.928-99.348,289.455-383.282,546.149-383.282,332.244,0,397.174,470.819,811.777,470.819S177.473-75.478,177.473-75.478" transform="translate(2683.422 1229.336)" fill="none" stroke="rgba(0,157,255,0.5)" stroke-miterlimit="10" stroke-width="1"/>
        <path id="Path_127" data-name="Path 127" d="M-2670.737,206.4c155.96-45.411,207.06,8.723,323.174,66.361,54.5,27.053,92.644,58.908,149.962,73.557,52.806,13.5,97.326,1.473,163.509-41.719,155.583-101.532,281.646-380.646,536.566-380.646,331.869,0,408.137,465.854,821.943,465.854S166.457-54.4,166.457-54.4" transform="translate(2683.803 1222.64)" fill="none" stroke="rgba(0,157,255,0.5)" stroke-miterlimit="10" stroke-width="1"/>
        <path id="Path_128" data-name="Path 128" d="M-2672.306,226.261c158.8-41.283,209.059,18.2,321.255,76.961,52.521,27.507,90.765,58.546,148.5,71.88,53.061,12.254,97.592-1.782,161.45-45.591C-1889.887,225.773-1767.263-48.5-1514.117-48.5c331.494,0,419.1,460.887,832.109,460.887S155.441-33.321,155.441-33.321" transform="translate(2684.184 1215.943)" fill="none" stroke="rgba(0,157,255,0.5)" stroke-miterlimit="10" stroke-width="1"/>
        <path id="Path_129" data-name="Path 129" d="M-2673.876,246.117c161.633-37.155,211.064,27.669,319.337,87.56,50.546,27.96,88.889,58.189,147.04,70.2,53.318,11.016,97.848-5.045,159.391-49.463,146.815-105.965,266.027-375.375,517.4-375.375,331.12,0,430.062,455.922,842.275,455.922S144.425-12.242,144.425-12.242" transform="translate(2684.566 1209.247)" fill="none" stroke="rgba(0,157,255,0.5)" stroke-miterlimit="10" stroke-width="1"/>
        <path id="Path_130" data-name="Path 130" d="M-2675.445,265.973c164.468-33.026,213.073,37.133,317.418,98.161,48.574,28.409,87.014,57.836,145.58,68.528,53.577,9.782,98.091-8.314,157.331-53.336C-1912.729,271.112-1796.9,6.588-1547.3,6.588c330.744,0,441.024,450.956,852.44,450.956S133.409,8.837,133.409,8.837" transform="translate(2684.948 1202.551)" fill="none" stroke="rgba(0,157,255,0.5)" stroke-miterlimit="10" stroke-width="1"/>
        <path id="Path_131" data-name="Path 131" d="M-2677.014,284.474c167.3-28.9,215.09,46.59,315.5,108.761,46.6,28.855,85.141,57.485,144.118,66.852,53.839,8.551,98.321-11.589,155.271-57.208,137.926-110.481,250.41-370.1,498.235-370.1,330.37,0,451.986,445.99,862.606,445.99S122.393,28.561,122.393,28.561" transform="translate(2685.329 1197.209)" fill="none" stroke="rgba(0,157,255,0.5)" stroke-miterlimit="10" stroke-width="1"/>
        <path id="Path_132" data-name="Path 132" d="M-2678.584,302.254C-2508.445,277.484-2461.47,358.3-2365,421.615c44.637,29.3,83.271,57.138,142.657,65.175,54.1,7.322,98.537-14.871,153.213-61.08,133.427-112.767,242.6-367.466,488.651-367.466,329.995,0,462.949,441.024,872.772,441.024S111.378,47.563,111.378,47.563" transform="translate(2685.71 1192.589)" fill="none" stroke="rgba(0,157,255,0.5)" stroke-miterlimit="10" stroke-width="1"/>
        <path id="Path_133" data-name="Path 133" d="M-2680.153,320.034c172.974-20.642,219.146,65.486,311.664,129.961,42.675,29.74,81.405,56.794,141.2,63.5,54.37,6.1,98.738-18.158,151.153-64.953,128.888-115.07,234.791-364.829,479.069-364.829,329.62,0,473.911,436.058,882.938,436.058s814.494-453.2,814.494-453.2" transform="translate(2686.092 1187.969)" fill="none" stroke="rgba(0,157,255,0.5)" stroke-miterlimit="10" stroke-width="1"/>
        <path id="Path_134" data-name="Path 134" d="M-2681.723,337.813c175.81-16.513,221.189,74.926,309.746,140.561,40.718,30.179,79.541,56.454,139.735,61.823,54.64,4.873,98.922-21.447,149.094-68.826,124.307-117.387,226.981-362.193,469.485-362.193,329.246,0,484.874,431.093,893.1,431.093s809.9-454.7,809.9-454.7" transform="translate(2686.474 1183.35)" fill="none" stroke="rgba(0,157,255,0.5)" stroke-miterlimit="10" stroke-width="1"/>
        <path id="Path_135" data-name="Path 135" d="M-2683.292,355.592c178.646-12.385,223.242,84.36,307.827,151.162,38.765,30.616,77.68,56.117,138.275,60.146,54.913,3.652,99.089-24.738,147.034-72.7,119.68-119.715,219.173-359.557,459.9-359.557,328.871,0,495.836,426.127,903.27,426.127S78.33,104.569,78.33,104.569" transform="translate(2686.855 1178.73)" fill="none" stroke="rgba(0,157,255,0.5)" stroke-miterlimit="10" stroke-width="1"/>
        <path id="Path_136" data-name="Path 136" d="M-2684.861,373.372c181.481-8.257,225.309,93.789,305.909,161.762,36.819,31.05,75.823,55.782,136.814,58.47,55.189,2.433,99.237-28.029,144.975-76.571,115-122.052,211.364-356.921,450.32-356.921,328.5,0,506.8,421.161,913.437,421.161s800.721-457.7,800.721-457.7" transform="translate(2687.237 1174.11)" fill="none" stroke="rgba(0,157,255,0.5)" stroke-miterlimit="10" stroke-width="1"/>
        <path id="Path_137" data-name="Path 137" d="M-2686.431,391.151c184.318-4.128,227.491,103.1,303.991,172.363,34.923,31.433,73.968,55.531,135.353,56.793,55.467,1.29,99.367-31.318,142.916-80.443,110.276-124.393,203.554-354.285,440.737-354.285,328.121,0,517.76,416.195,923.6,416.195S56.3,142.573,56.3,142.573" transform="translate(2687.618 1169.49)" fill="none" stroke="rgba(0,157,255,0.5)" stroke-miterlimit="10" stroke-width="1"/>
        <path id="Path_138" data-name="Path 138" d="M-2688,408.93c272.091,0,238.08,238.08,435.965,238.08s244.264-435.965,572.011-435.965S-1151.3,622.274-746.257,622.274s791.538-460.7,791.538-460.7" transform="translate(2688 1164.871)" fill="none" stroke="rgba(0,157,255,0.5)" stroke-miterlimit="10" stroke-width="1"/>
      </g>
    </g>
  </g>
</svg>
