<svg xmlns="http://www.w3.org/2000/svg" xmlns:xlink="http://www.w3.org/1999/xlink" width="485.529" height="485.529" viewBox="0 0 485.529 485.529">
  <defs>
    <clipPath id="clip-path">
      <circle id="Ellipse_173" data-name="Ellipse 173" cx="242.765" cy="242.765" r="242.765" transform="translate(735 4843.689)" fill="#e6e6e6"/>
    </clipPath>
    <clipPath id="clip-path-2">
      <rect id="Rectangle_2" data-name="Rectangle 2" width="1324.436" height="621.331" fill="none"/>
    </clipPath>
  </defs>
  <g id="wave_circle_faq_1" transform="translate(-735 -4843.689)" clip-path="url(#clip-path)">
    <g id="wave_you" transform="translate(224.646 4816.675)" clip-path="url(#clip-path-2)">
      <g id="Group_388" data-name="Group 388" transform="translate(1443.556 846.426) rotate(180)">
        <path id="Path_1190" data-name="Path 1190" d="M0,23.836C0,216.473,62.377,389.117,273.289,389.117s74.9-238.28,323.267-238.28,453.362,371.628,678.073,371.628S1150.447,0,1442.176,0,2139.96,255.768,2139.96,255.768" transform="translate(49.978 758.56)" fill="none" stroke="#009dff" stroke-miterlimit="10" stroke-width="1"/>
        <path id="Path_1191" data-name="Path 1191" d="M0,25.761C1.808,215.479,63.649,384.3,272.066,383.547,375.11,383.2,394.651,325.562,417.96,267.541c23.751-59.3,51.1-118.883,175.129-118.351,245.62,1.358,448.384,369.765,671.964,369.765C1489.524,518.955,1147.859,0,1439.081,0s694.857,256.828,694.857,256.828" transform="translate(49.221 747.331)" fill="none" stroke="#009dff" stroke-miterlimit="10" stroke-width="1"/>
        <path id="Path_1192" data-name="Path 1192" d="M0,27.684c3.616,186.8,64.92,351.8,270.843,350.292,101.782-.684,121.406-57.692,144.962-114.82,23.933-58.388,51.285-116.678,173.816-115.613,242.876,2.715,443.406,367.9,665.855,367.9C1479.709,515.444,1145.272,0,1435.985,0s691.931,257.887,691.931,257.887" transform="translate(48.464 736.103)" fill="none" stroke="#009dff" stroke-miterlimit="10" stroke-width="1"/>
        <path id="Path_1193" data-name="Path 1193" d="M0,29.609c5.423,183.881,66.191,345.058,269.62,342.8,100.519-1.025,120.227-57.4,144.031-113.635C437.765,201.3,465.126,144.3,586.155,145.9c240.131,4.073,438.427,366.038,659.745,366.038C1469.893,511.934,1142.684,0,1432.89,0s689,258.947,689,258.947" transform="translate(47.707 724.874)" fill="none" stroke="#009dff" stroke-miterlimit="10" stroke-width="1"/>
        <path id="Path_1194" data-name="Path 1194" d="M0,31.533C7.231,212.5,67.463,369.85,268.4,366.836c99.257-1.367,119.162-57.047,143.1-112.45,24.412-56.5,51.669-112.569,171.191-110.137,237.4,4.831,433.449,364.174,653.636,364.174C1460.079,508.422,1140.1,0,1429.794,0s686.077,260.007,686.077,260.007" transform="translate(46.949 713.646)" fill="none" stroke="#009dff" stroke-miterlimit="10" stroke-width="1"/>
        <path id="Path_1195" data-name="Path 1195" d="M0,33.457C9.038,211.5,68.734,365.033,267.174,361.266c98-1.71,118.011-56.738,142.168-111.265,24.621-55.573,51.861-110.437,169.878-107.4,234.66,6.041,428.471,362.31,647.527,362.31C1450.263,504.911,1137.508,0,1426.7,0s683.15,261.068,683.15,261.068" transform="translate(46.192 702.418)" fill="none" stroke="#009dff" stroke-miterlimit="10" stroke-width="1"/>
        <path id="Path_1196" data-name="Path 1196" d="M0,35.382C10.846,210.507,70.006,360.215,265.951,355.7c96.733-2.052,116.859-56.429,141.237-110.08,24.829-54.643,52.054-108.3,168.565-104.661C807.677,148.208,999.246,501.4,1217.171,501.4,1440.447,501.4,1134.92,0,1423.6,0s680.223,262.128,680.223,262.128" transform="translate(45.435 691.189)" fill="none" stroke="#009dff" stroke-miterlimit="10" stroke-width="1"/>
        <path id="Path_1197" data-name="Path 1197" d="M0,37.306C12.655,209.512,71.277,355.4,264.728,350.125c95.471-2.393,115.706-56.119,140.306-108.895,25.037-53.714,52.248-106.171,167.253-101.924C801.475,147.773,990.8,497.89,1207.595,497.89,1430.632,497.89,1132.333,0,1420.508,0s677.3,263.187,677.3,263.187" transform="translate(44.677 679.961)" fill="none" stroke="#009dff" stroke-miterlimit="10" stroke-width="1"/>
        <path id="Path_1198" data-name="Path 1198" d="M0,39.23C14.462,208.518,72.549,350.581,263.505,344.555c94.209-2.735,114.553-55.808,139.375-107.709,25.244-52.784,52.441-104.037,165.94-99.185,226.455,9.68,413.535,356.718,629.2,356.718C1420.817,494.379,1129.745,0,1417.412,0s674.37,264.247,674.37,264.247" transform="translate(43.92 668.733)" fill="none" stroke="#009dff" stroke-miterlimit="10" stroke-width="1"/>
        <path id="Path_1199" data-name="Path 1199" d="M0,41.154c16.269,166.369,73.821,304.61,262.282,297.83,92.947-3.077,113.4-55.5,138.443-106.524,25.45-51.853,52.637-101.9,164.627-96.448,223.722,10.9,408.557,354.854,623.09,354.854C1411,490.868,1127.157,0,1414.317,0S2085.76,265.307,2085.76,265.307" transform="translate(43.163 657.504)" fill="none" stroke="#009dff" stroke-miterlimit="10" stroke-width="1"/>
        <path id="Path_1200" data-name="Path 1200" d="M0,43.079c18.077,163.45,75.093,297.869,261.059,290.336C352.743,330,373.3,278.229,398.571,228.075c25.656-50.922,52.832-99.766,163.314-93.71,220.992,12.114,403.579,352.991,616.981,352.991C1401.187,487.357,1124.57,0,1411.222,0s668.516,266.367,668.516,266.367" transform="translate(42.406 646.276)" fill="none" stroke="#009dff" stroke-miterlimit="10" stroke-width="1"/>
        <path id="Path_1201" data-name="Path 1201" d="M0,45C19.885,205.534,76.364,336.131,259.836,327.844c90.422-3.761,111.088-54.874,136.58-104.154,25.86-49.991,53.028-97.629,162-90.972,218.263,13.334,398.6,351.127,610.871,351.127C1391.371,483.846,1121.982,0,1408.126,0s665.589,267.427,665.589,267.427" transform="translate(41.649 635.047)" fill="none" stroke="#009dff" stroke-miterlimit="10" stroke-width="1"/>
        <path id="Path_1202" data-name="Path 1202" d="M0,46.927C21.693,204.539,77.635,331.314,258.614,322.274c89.16-4.1,109.931-54.562,135.649-102.969,26.064-49.059,53.225-95.491,160.689-88.234,215.536,14.554,393.622,349.263,604.762,349.263C1381.556,480.335,1119.394,0,1405.031,0s662.662,268.487,662.662,268.487" transform="translate(40.891 623.819)" fill="none" stroke="#009dff" stroke-miterlimit="10" stroke-width="1"/>
        <path id="Path_1203" data-name="Path 1203" d="M0,48.852C23.5,203.545,78.907,326.5,257.391,316.7c87.9-4.445,108.774-54.249,134.717-101.783,26.267-48.127,53.424-93.351,159.376-85.5,212.81,15.777,388.643,347.4,598.653,347.4,221.6,0-33.33-476.824,251.8-476.824S2061.67,269.547,2061.67,269.547" transform="translate(40.134 612.591)" fill="none" stroke="#009dff" stroke-miterlimit="10" stroke-width="1"/>
        <path id="Path_1204" data-name="Path 1204" d="M0,50.776C25.308,202.551,80.158,321.27,256.167,311.133c86.626-4.988,107.616-53.935,133.786-100.6,26.469-47.2,53.622-91.211,158.063-82.759,210.086,17,383.665,345.536,592.544,345.536C1361.926,473.313,1114.219,0,1398.84,0s656.808,270.607,656.808,270.607" transform="translate(39.377 601.362)" fill="none" stroke="#009dff" stroke-miterlimit="10" stroke-width="1"/>
        <path id="Path_1205" data-name="Path 1205" d="M0,52.7C27.117,201.556,81.427,316.425,254.945,305.563,340.307,300.219,361.4,251.941,387.8,206.15c26.67-46.262,53.821-89.069,156.75-80.02C751.914,144.359,923.237,469.8,1130.985,469.8,1352.11,469.8,1111.631,0,1395.745,0s653.881,271.666,653.881,271.666" transform="translate(38.619 590.134)" fill="none" stroke="#009dff" stroke-miterlimit="10" stroke-width="1"/>
        <path id="Path_1206" data-name="Path 1206" d="M0,54.624C28.924,200.562,82.7,311.583,253.721,299.993c84.1-5.7,105.3-53.309,131.924-98.228,26.87-45.329,54.021-86.925,155.438-77.282,204.644,19.458,373.708,341.809,580.325,341.809C1342.3,466.291,1109.043,0,1392.649,0S2043.6,272.726,2043.6,272.726" transform="translate(37.862 578.906)" fill="none" stroke="#009dff" stroke-miterlimit="10" stroke-width="1"/>
        <path id="Path_1207" data-name="Path 1207" d="M0,56.549C30.732,199.567,83.963,306.739,252.5,294.423c82.835-6.053,104.136-52.994,130.992-97.043,27.069-44.4,54.222-84.781,154.125-74.545,201.925,20.69,368.73,339.945,574.216,339.945C1332.48,462.78,1106.456,0,1389.553,0s648.028,273.786,648.028,273.786" transform="translate(37.105 567.678)" fill="none" stroke="#009dff" stroke-miterlimit="10" stroke-width="1"/>
        <path id="Path_1208" data-name="Path 1208" d="M0,58.473c32.54,140.1,85.231,243.423,251.276,230.38,81.571-6.408,102.973-52.68,130.061-95.857,27.266-43.462,54.423-82.635,152.812-71.807C733.357,143.112,897.9,459.269,1102.255,459.269c220.409,0,1.613-459.269,284.2-459.269s645.1,274.846,645.1,274.846" transform="translate(36.348 556.449)" fill="none" stroke="#009dff" stroke-miterlimit="10" stroke-width="1"/>
        <path id="Path_1209" data-name="Path 1209" d="M0,60.4C34.347,197.578,86.5,297.054,250.052,283.282c80.307-6.762,101.81-52.365,129.13-94.672,27.463-42.529,54.625-80.487,151.5-69.069,196.493,23.16,358.773,336.217,562,336.217C1312.849,455.759,1101.28,0,1383.363,0s642.174,275.906,642.174,275.906" transform="translate(35.591 545.221)" fill="none" stroke="#009dff" stroke-miterlimit="10" stroke-width="1"/>
        <path id="Path_1210" data-name="Path 1210" d="M0,62.321C36.155,196.584,87.765,292.212,248.83,277.712c79.042-7.116,100.645-52.051,128.2-93.487,27.658-41.595,54.828-78.338,150.187-66.331,193.78,24.4,353.794,334.354,555.888,334.354C1303.034,452.248,1098.693,0,1380.267,0s639.247,276.966,639.247,276.966" transform="translate(34.833 533.992)" fill="none" stroke="#009dff" stroke-miterlimit="10" stroke-width="1"/>
        <path id="Path_1211" data-name="Path 1211" d="M0,64.246c37.963,131.344,89.032,223.125,247.607,207.9,77.778-7.47,99.48-51.736,127.267-92.3,27.852-40.661,55.032-76.187,148.873-63.593,191.069,25.642,348.816,332.49,549.779,332.49C1293.219,448.737,1096.1,0,1377.172,0s636.321,278.026,636.321,278.026" transform="translate(34.076 522.764)" fill="none" stroke="#009dff" stroke-miterlimit="10" stroke-width="1"/>
        <path id="Path_1212" data-name="Path 1212" d="M0,66.169c39.77,128.425,90.3,216.361,246.384,200.4,76.513-7.823,98.312-51.42,126.335-91.117,28.045-39.727,55.237-74.034,147.561-60.855,188.359,26.887,343.838,330.626,543.67,330.626C1283.4,445.226,1093.517,0,1374.076,0S2007.47,279.086,2007.47,279.086" transform="translate(33.319 511.536)" fill="none" stroke="#009dff" stroke-miterlimit="10" stroke-width="1"/>
        <path id="Path_1213" data-name="Path 1213" d="M0,68.094C41.579,193.6,91.565,277.69,245.161,261c75.248-8.176,97.144-51.105,125.4-89.932,28.236-38.794,55.442-71.879,146.248-58.117,185.652,28.136,338.86,328.762,537.561,328.762C1273.589,441.715,1090.93,0,1370.981,0s630.467,280.146,630.467,280.146" transform="translate(32.561 500.307)" fill="none" stroke="#009dff" stroke-miterlimit="10" stroke-width="1"/>
        <path id="Path_1214" data-name="Path 1214" d="M0,70.018C43.386,192.606,92.831,272.851,243.938,255.431c73.984-8.529,95.974-50.79,124.473-88.747,28.426-37.86,55.649-69.722,144.935-55.379C696.292,140.693,847.227,438.2,1044.8,438.2,1263.773,438.2,1088.342,0,1367.886,0s627.54,281.205,627.54,281.205" transform="translate(31.804 489.079)" fill="none" stroke="#009dff" stroke-miterlimit="10" stroke-width="1"/>
        <path id="Path_1215" data-name="Path 1215" d="M0,71.943C45.194,191.611,94.1,268.012,242.715,249.86c72.719-8.881,94.8-50.475,123.542-87.561,28.614-36.926,55.855-67.563,143.622-52.641,180.242,30.644,328.9,325.034,525.342,325.034C1253.958,434.693,1085.754,0,1364.79,0S1989.4,282.266,1989.4,282.266" transform="translate(31.047 477.851)" fill="none" stroke="#009dff" stroke-miterlimit="10" stroke-width="1"/>
        <path id="Path_1216" data-name="Path 1216" d="M0,73.867c47,116.75,95.362,189.307,241.492,170.424,71.454-9.234,93.631-50.16,122.611-86.376,28.8-35.993,56.063-65.4,142.309-49.9,177.54,31.9,323.925,323.171,519.233,323.171,218.5,0,57.521-431.182,336.05-431.182s621.686,283.326,621.686,283.326" transform="translate(30.29 466.622)" fill="none" stroke="#009dff" stroke-miterlimit="10" stroke-width="1"/>
        <path id="Path_1217" data-name="Path 1217" d="M0,75.791C48.809,189.622,96.626,258.336,240.269,238.72c70.189-9.585,92.457-49.845,121.679-85.191,28.987-35.06,56.272-63.238,141-47.166,174.841,33.169,318.947,321.307,513.124,321.307C1234.328,427.671,1080.579,0,1358.6,0s618.759,284.385,618.759,284.385" transform="translate(29.533 455.394)" fill="none" stroke="#009dff" stroke-miterlimit="10" stroke-width="1"/>
        <path id="Path_1218" data-name="Path 1218" d="M0,77.715C50.617,188.628,97.891,253.5,239.046,233.15c68.923-9.936,91.281-49.531,120.748-84.006,29.171-34.128,56.481-61.072,139.684-44.427C671.62,139.154,813.445,424.16,1006.492,424.16,1224.513,424.16,1077.991,0,1355.5,0s615.832,285.445,615.832,285.445" transform="translate(28.776 444.165)" fill="none" stroke="#009dff" stroke-miterlimit="10" stroke-width="1"/>
        <path id="Path_1219" data-name="Path 1219" d="M0,79.64c52.425,107.993,99.156,169.024,237.823,147.94,67.658-10.287,90.1-49.218,119.817-82.821,29.353-33.2,56.691-58.9,138.371-41.69C665.457,138.78,805,420.649,996.916,420.649,1214.7,420.649,1075.4,0,1352.408,0s612.906,286.5,612.906,286.5" transform="translate(28.018 432.937)" fill="none" stroke="#009dff" stroke-miterlimit="10" stroke-width="1"/>
        <path id="Path_1220" data-name="Path 1220" d="M0,81.564C54.232,186.639,100.419,243.829,236.6,222.009c66.392-10.637,88.925-48.9,118.885-81.635,29.534-32.265,56.9-56.732,137.058-38.952,166.751,36.989,304.011,315.716,494.8,315.716C1204.882,417.138,1072.815,0,1349.313,0s609.979,287.565,609.979,287.565" transform="translate(27.261 421.709)" fill="none" stroke="#009dff" stroke-miterlimit="10" stroke-width="1"/>
        <path id="Path_1221" data-name="Path 1221" d="M0,83.488C56.04,185.645,101.683,239,235.378,216.44c65.125-10.988,87.745-48.593,117.954-80.451,29.713-31.335,57.112-54.558,135.745-36.214,164.059,38.272,299.033,313.852,488.687,313.852C1195.067,413.627,1070.228,0,1346.217,0s607.052,288.625,607.052,288.625" transform="translate(26.504 410.48)" fill="none" stroke="#009dff" stroke-miterlimit="10" stroke-width="1"/>
        <path id="Path_1222" data-name="Path 1222" d="M0,85.412c57.848,99.238,102.947,148.75,234.155,125.457,63.86-11.337,86.563-48.281,117.022-79.265C381.068,101.2,408.5,79.223,485.61,98.128,646.976,137.69,779.663,410.116,968.187,410.116,1185.252,410.116,1067.64,0,1343.122,0s604.125,289.685,604.125,289.685" transform="translate(25.746 399.252)" fill="none" stroke="#009dff" stroke-miterlimit="10" stroke-width="1"/>
        <path id="Path_1223" data-name="Path 1223" d="M0,87.337C59.656,183.656,104.209,229.33,232.931,205.3c62.594-11.686,85.38-47.97,116.091-78.08,30.067-29.477,57.537-50.2,133.12-30.738C640.819,137.338,771.218,406.605,958.61,406.605,1175.436,406.605,1065.052,0,1340.026,0s601.2,290.745,601.2,290.745" transform="translate(24.989 388.024)" fill="none" stroke="#009dff" stroke-miterlimit="10" stroke-width="1"/>
        <path id="Path_1224" data-name="Path 1224" d="M0,89.261c61.463,93.4,105.472,135.239,231.708,110.467,61.328-12.034,84.2-47.661,115.16-76.895,30.241-28.551,57.75-48.016,131.807-28,155.988,42.159,284.1,308.261,470.359,308.261C1165.621,403.094,1062.465,0,1336.931,0S1935.2,291.8,1935.2,291.8" transform="translate(24.232 376.796)" fill="none" stroke="#009dff" stroke-miterlimit="10" stroke-width="1"/>
        <path id="Path_1225" data-name="Path 1225" d="M0,91.185C63.271,181.667,106.735,219.67,230.486,194.158c60.061-12.382,83.009-47.352,114.229-75.709,30.414-27.624,57.963-45.828,130.494-25.262,153.3,43.467,279.12,306.4,464.25,306.4C1155.806,399.584,1059.877,0,1333.836,0S1929.18,292.864,1929.18,292.864" transform="translate(23.475 365.567)" fill="none" stroke="#009dff" stroke-miterlimit="10" stroke-width="1"/>
        <path id="Path_1226" data-name="Path 1226" d="M0,93.11c65.079,87.562,108,121.732,229.262,95.478,58.794-12.729,81.821-47.046,113.3-74.524,30.585-26.7,58.177-43.637,129.181-22.525,150.615,44.783,274.14,304.533,458.141,304.533C1145.99,396.073,1057.289,0,1330.74,0s592.418,293.925,592.418,293.925" transform="translate(22.718 354.339)" fill="none" stroke="#009dff" stroke-miterlimit="10" stroke-width="1"/>
        <path id="Path_1227" data-name="Path 1227" d="M0,95.034c66.887,84.644,109.259,114.981,228.04,87.984,57.528-13.075,80.631-46.741,112.366-73.339C371.16,83.9,398.8,68.237,468.274,89.892,616.2,136,737.436,392.562,920.306,392.562,1136.176,392.562,1054.7,0,1327.645,0s589.491,294.984,589.491,294.984" transform="translate(21.96 343.11)" fill="none" stroke="#009dff" stroke-miterlimit="10" stroke-width="1"/>
        <path id="Path_1228" data-name="Path 1228" d="M0,96.958c68.694,81.725,110.521,108.232,226.816,80.49,56.261-13.421,79.44-46.437,111.435-72.154,30.923-24.856,58.6-39.242,126.556-17.049,145.244,47.437,264.184,300.806,445.923,300.806C1126.36,389.051,1052.114,0,1324.55,0s586.564,296.045,586.564,296.045" transform="translate(21.203 331.882)" fill="none" stroke="#009dff" stroke-miterlimit="10" stroke-width="1"/>
        <path id="Path_1229" data-name="Path 1229" d="M0,98.882c70.5,78.806,111.782,101.483,225.593,72.995,54.995-13.766,78.247-46.135,110.5-70.969C367.186,76.973,394.915,63.87,461.339,86.6,603.9,135.374,720.545,385.54,901.152,385.54,1116.545,385.54,1049.526,0,1321.454,0s583.637,297.1,583.637,297.1" transform="translate(20.446 320.654)" fill="none" stroke="#009dff" stroke-miterlimit="10" stroke-width="1"/>
        <path id="Path_1230" data-name="Path 1230" d="M0,100.807c72.31,75.887,113.044,94.737,224.371,65.5,53.727-14.11,77.053-45.835,109.572-69.783,31.255-23.018,59.033-34.83,123.93-11.573,139.874,50.125,254.227,297.078,433.7,297.078C1106.73,382.029,1046.938,0,1318.358,0s580.711,298.164,580.711,298.164" transform="translate(19.688 309.425)" fill="none" stroke="#009dff" stroke-miterlimit="10" stroke-width="1"/>
        <path id="Path_1231" data-name="Path 1231" d="M0,102.731c74.118,72.969,114.3,87.992,223.148,58.006,52.461-14.453,75.858-45.538,108.641-68.6,31.42-22.1,59.246-32.617,122.617-8.835C591.595,134.787,703.654,378.518,882,378.518,1096.914,378.518,1044.35,0,1315.263,0s577.783,299.224,577.783,299.224" transform="translate(18.931 298.197)" fill="none" stroke="#009dff" stroke-miterlimit="10" stroke-width="1"/>
        <path id="Path_1232" data-name="Path 1232" d="M0,104.655c75.925,70.05,115.566,81.249,221.924,50.511,51.193-14.8,74.661-45.242,107.709-67.413,31.583-21.189,59.459-30.4,121.3-6.1,134.5,52.851,244.271,293.351,421.485,293.351C1087.1,375.007,1041.762,0,1312.167,0s574.857,300.284,574.857,300.284" transform="translate(18.174 286.969)" fill="none" stroke="#009dff" stroke-miterlimit="10" stroke-width="1"/>
        <path id="Path_1233" data-name="Path 1233" d="M0,106.58c77.733,67.131,116.828,74.508,220.7,43.017,49.927-15.136,73.464-44.949,106.778-66.228,31.745-20.278,59.671-28.176,119.991-3.36C579.288,134.239,686.764,371.5,862.847,371.5,1077.284,371.5,1039.175,0,1309.072,0S1881,301.344,1881,301.344" transform="translate(17.417 275.74)" fill="none" stroke="#009dff" stroke-miterlimit="10" stroke-width="1"/>
        <path id="Path_1234" data-name="Path 1234" d="M0,108.5c79.541,64.213,118.088,67.77,219.479,35.522,48.66-15.476,72.266-44.657,105.847-65.043C357.232,59.615,385.208,53.036,444,78.361c129.127,55.62,234.314,289.624,409.267,289.624C1067.469,367.985,1036.588,0,1305.976,0s569,302.4,569,302.4" transform="translate(16.659 264.512)" fill="none" stroke="#009dff" stroke-miterlimit="10" stroke-width="1"/>
        <path id="Path_1235" data-name="Path 1235" d="M0,110.428c81.348,61.294,119.35,61.033,218.256,28.028,47.393-15.815,71.066-44.37,104.916-63.857,32.066-18.462,60.092-23.714,117.366,2.116,126.435,57.021,229.335,287.76,403.158,287.76C1057.653,364.474,1034,0,1302.881,0s566.076,303.464,566.076,303.464" transform="translate(15.902 253.284)" fill="none" stroke="#009dff" stroke-miterlimit="10" stroke-width="1"/>
        <path id="Path_1236" data-name="Path 1236" d="M0,112.352c83.156,58.375,120.611,54.3,217.033,20.533C263.159,116.732,286.9,88.8,321.017,70.213c32.226-17.558,60.3-21.474,116.053,4.854,123.741,58.434,224.357,285.9,397.049,285.9C1047.838,360.963,1031.412,0,1299.786,0s563.149,304.523,563.149,304.523" transform="translate(15.145 242.056)" fill="none" stroke="#009dff" stroke-miterlimit="10" stroke-width="1"/>
        <path id="Path_1237" data-name="Path 1237" d="M0,114.276c84.964,55.456,121.873,47.568,215.81,13.039,44.86-16.49,68.666-43.8,103.053-61.487C351.249,49.172,379.37,46.6,433.6,73.42c121.042,59.861,219.379,284.033,390.939,284.033C1038.023,357.452,1028.824,0,1296.691,0s560.222,305.583,560.222,305.583" transform="translate(14.388 230.827)" fill="none" stroke="#009dff" stroke-miterlimit="10" stroke-width="1"/>
        <path id="Path_1238" data-name="Path 1238" d="M0,116.2c86.772,52.538,123.136,40.84,214.587,5.544,43.593-16.825,67.465-43.522,102.122-60.3,32.544-15.758,60.712-16.977,113.428,10.33,118.339,61.3,214.4,282.168,384.83,282.168C1028.208,353.942,1026.236,0,1293.595,0s557.3,306.643,557.3,306.643" transform="translate(13.63 219.598)" fill="none" stroke="#009dff" stroke-miterlimit="10" stroke-width="1"/>
        <path id="Path_1239" data-name="Path 1239" d="M0,118.125c88.58,49.619,124.4,34.114,213.364-1.951,42.327-17.158,66.263-43.245,101.19-59.117,32.7-14.861,60.914-14.719,112.115,13.068,115.63,62.753,209.422,280.3,378.721,280.3C1018.392,350.431,1023.649,0,1290.5,0s554.368,307.7,554.368,307.7" transform="translate(12.873 208.37)" fill="none" stroke="#009dff" stroke-miterlimit="10" stroke-width="1"/>
        <path id="Path_1240" data-name="Path 1240" d="M0,120.049c90.387,46.7,125.662,27.392,212.141-9.445C253.2,93.114,277.2,67.633,312.4,52.673,345.262,38.7,373.513,40.217,423.2,68.479,536.115,132.7,627.645,346.92,795.813,346.92,1008.577,346.92,1021.061,0,1287.4,0s551.442,308.763,551.442,308.763" transform="translate(12.116 197.142)" fill="none" stroke="#009dff" stroke-miterlimit="10" stroke-width="1"/>
        <path id="Path_1241" data-name="Path 1241" d="M0,121.973c92.2,43.781,126.927,20.672,210.918-16.939,39.8-17.821,63.861-42.7,99.327-56.746C343.267,35.21,371.554,38.1,419.735,66.831c110.19,65.7,199.465,276.577,366.5,276.577C998.762,343.409,1018.473,0,1284.309,0s548.515,309.823,548.515,309.823" transform="translate(11.359 185.914)" fill="none" stroke="#009dff" stroke-miterlimit="10" stroke-width="1"/>
        <path id="Path_1242" data-name="Path 1242" d="M0,123.9c94,40.862,128.194,13.957,209.7-24.434,38.531-18.15,62.66-42.433,98.4-55.562,33.182-12.189,61.5-7.908,108.177,21.282C523.724,132.385,610.755,339.9,776.661,339.9,988.947,339.9,1015.886,0,1281.213,0S1826.8,310.883,1826.8,310.883" transform="translate(10.601 174.685)" fill="none" stroke="#009dff" stroke-miterlimit="10" stroke-width="1"/>
        <path id="Path_1243" data-name="Path 1243" d="M0,125.822c95.811,37.944,129.461,7.245,208.472-31.928,37.268-18.477,61.46-42.169,97.464-54.376,33.342-11.3,61.687-5.625,106.864,24.02,104.712,68.713,189.508,272.85,354.284,272.85C979.131,336.387,1013.3,0,1278.118,0s542.661,311.943,542.661,311.943" transform="translate(9.844 163.457)" fill="none" stroke="#009dff" stroke-miterlimit="10" stroke-width="1"/>
        <path id="Path_1244" data-name="Path 1244" d="M0,127.746c97.618,35.025,130.731.537,207.249-39.423,36.005-18.8,60.26-41.907,96.533-53.191,33.5-10.421,61.87-3.336,105.551,26.758,101.956,70.241,184.53,270.986,348.175,270.986C969.316,332.876,1010.71,0,1275.022,0s539.735,313,539.735,313" transform="translate(9.087 152.229)" fill="none" stroke="#009dff" stroke-miterlimit="10" stroke-width="1"/>
        <path id="Path_1245" data-name="Path 1245" d="M0,129.671c99.426,32.106,132-6.167,206.026-46.918,34.743-19.126,59.061-41.649,95.6-52.006,33.664-9.541,62.046-1.041,104.238,29.5,99.186,71.785,179.551,269.122,342.065,269.122C959.5,329.365,1008.123,0,1271.927,0s536.807,314.063,536.807,314.063" transform="translate(8.33 141)" fill="none" stroke="#009dff" stroke-miterlimit="10" stroke-width="1"/>
        <path id="Path_1246" data-name="Path 1246" d="M0,131.595c101.234,29.187,133.277-12.867,204.8-54.412,33.483-19.448,57.864-41.393,94.671-50.82C333.3,17.7,361.689,27.622,402.4,58.6c96.4,73.344,174.573,267.258,335.956,267.258C949.685,325.854,1005.534,0,1268.831,0s533.881,315.122,533.881,315.122" transform="translate(7.573 129.772)" fill="none" stroke="#009dff" stroke-miterlimit="10" stroke-width="1"/>
        <path id="Path_1247" data-name="Path 1247" d="M0,133.519c103.042,26.269,134.555-19.562,203.58-61.906,32.223-19.768,56.668-41.141,93.739-49.636,33.991-7.789,62.379,3.567,101.613,34.971,93.6,74.919,169.594,265.4,329.847,265.4C939.87,322.343,1002.947,0,1265.736,0S1796.69,316.182,1796.69,316.182" transform="translate(6.815 118.543)" fill="none" stroke="#009dff" stroke-miterlimit="10" stroke-width="1"/>
        <path id="Path_1248" data-name="Path 1248" d="M0,135.444c104.85,23.35,135.836-26.253,202.357-69.4,30.966-20.085,55.473-40.891,92.808-48.45,34.156-6.916,62.534,5.878,100.3,37.709C486.238,131.81,560.081,318.832,719.2,318.832,930.055,318.832,1000.359,0,1262.641,0s528.027,317.243,528.027,317.243" transform="translate(6.058 107.315)" fill="none" stroke="#009dff" stroke-miterlimit="10" stroke-width="1"/>
        <path id="Path_1249" data-name="Path 1249" d="M0,137.368c106.657,20.431,137.121-32.94,201.134-76.9,29.71-20.4,54.278-40.643,91.877-47.265C327.333,7.162,355.691,21.4,392,53.654c87.929,78.111,159.638,261.667,317.629,261.667C920.24,315.321,997.771,0,1259.545,0s525.1,318.3,525.1,318.3" transform="translate(5.301 96.087)" fill="none" stroke="#009dff" stroke-miterlimit="10" stroke-width="1"/>
        <path id="Path_1250" data-name="Path 1250" d="M0,139.292C108.465,156.8,138.412,99.67,199.911,54.9,228.368,34.187,253,14.5,290.857,8.822c34.491-5.177,62.818,10.514,97.675,43.185,85.061,79.728,154.659,259.8,311.519,259.8C910.425,311.81,995.184,0,1256.45,0s522.174,319.362,522.174,319.362" transform="translate(4.543 84.858)" fill="none" stroke="#009dff" stroke-miterlimit="10" stroke-width="1"/>
        <path id="Path_1251" data-name="Path 1251" d="M0,141.216c110.273,14.594,139.708-46.3,198.688-91.885C225.894,28.3,250.585,9.177,288.7,4.437c34.661-4.31,62.946,12.838,96.361,45.923C467.231,131.716,534.745,308.3,690.474,308.3,900.609,308.3,992.6,0,1253.354,0S1772.6,320.422,1772.6,320.422" transform="translate(3.786 73.63)" fill="none" stroke="#009dff" stroke-miterlimit="10" stroke-width="1"/>
        <path id="Path_1252" data-name="Path 1252" d="M0,143.5c112.081,11.675,141.01-52.974,197.466-99.379C223.424,22.78,248.174,4.2,286.548.407,321.382-3.038,349.612,15.57,381.6,49.068c79.247,82.994,144.7,256.076,299.3,256.076,209.9,0,309.111-304.789,569.361-304.789s516.319,321.482,516.319,321.482" transform="translate(3.029 62.046)" fill="none" stroke="#009dff" stroke-miterlimit="10" stroke-width="1"/>
        <path id="Path_1253" data-name="Path 1253" d="M0,149.62c113.888,8.756,142.319-59.644,196.242-106.873C220.955,21.1,245.764,3.071,284.394.222c35.007-2.582,63.17,17.49,93.736,51.4,76.3,84.64,139.724,254.212,293.192,254.212,209.658,0,316.1-301.278,575.842-301.278S1760.556,327.1,1760.556,327.1" transform="translate(2.272 46.618)" fill="none" stroke="#009dff" stroke-miterlimit="10" stroke-width="1"/>
        <path id="Path_1254" data-name="Path 1254" d="M0,155.8c115.7,5.838,143.636-66.31,195.019-114.368C218.491,19.482,243.357,2,282.24.1c35.183-1.72,63.264,19.817,92.423,54.137,73.315,86.292,134.746,252.348,287.083,252.348,209.419,0,323.088-297.767,582.323-297.767s510.466,323.6,510.466,323.6" transform="translate(1.515 31.131)" fill="none" stroke="#009dff" stroke-miterlimit="10" stroke-width="1"/>
        <path id="Path_1255" data-name="Path 1255" d="M0,162.043c117.5,2.919,145.028-72.9,193.8-121.863C216.061,17.957,240.952.919,280.086.026,315.446-.886,343.433,22.169,371.2,56.9c70.3,87.948,129.767,250.484,280.973,250.484,209.18,0,330.076-294.256,588.8-294.256s507.539,324.662,507.539,324.662" transform="translate(0.757 15.587)" fill="none" stroke="#009dff" stroke-miterlimit="10" stroke-width="1"/>
        <path id="Path_1256" data-name="Path 1256" d="M0,168.326C173.46,168.326,151.778,0,277.931,0s155.72,308.233,364.661,308.233S979.658,17.488,1237.877,17.488,1742.489,343.21,1742.489,343.21" transform="translate(0 0)" fill="none" stroke="#009dff" stroke-miterlimit="10" stroke-width="1"/>
      </g>
    </g>
  </g>
</svg>
